# 3ds Max Wavefront OBJ Exporter v0.97b - (c)2007 guruware
# File Created: 20.08.2015 12:49:52

#
# object treasure
#

v  -36.1300 -0.0000 -25.6968
v  -29.8072 -0.0000 -25.6968
v  -29.8072 0.0000 25.6968
v  -36.1300 0.0000 25.6968
v  -0.0000 -0.0000 -25.6968
v  29.8072 -0.0000 -25.6968
v  29.8072 0.0000 25.6968
v  0.0000 0.0000 25.6968
v  -33.0000 38.8238 30.0000
v  -33.0000 38.8238 -30.0000
v  -40.0000 38.8238 -30.0000
v  -40.0000 38.8238 30.0000
v  33.0000 38.8238 30.0000
v  33.0000 38.8238 -30.0000
v  0.0000 38.8238 -30.0000
v  0.0000 38.8238 30.0000
v  36.1300 0.0000 25.6968
v  36.1300 -0.0000 -25.6968
v  40.0000 38.8238 -30.0000
v  40.0000 38.8238 30.0000
v  40.0000 48.3637 28.1908
v  33.0000 48.3637 28.1908
v  40.0000 56.4878 22.7908
v  33.0000 56.4878 22.7908
v  40.0000 62.5608 14.8719
v  33.0000 62.5608 14.8719
v  40.0000 65.7901 5.1640
v  33.0000 65.7901 5.1640
v  40.0000 65.7901 -5.1685
v  33.0000 65.7901 -5.1685
v  40.0000 62.5608 -14.8719
v  33.0000 62.5608 -14.8719
v  40.0000 56.4878 -22.7910
v  33.0000 56.4878 -22.7910
v  40.0000 48.3637 -28.1908
v  33.0000 48.3637 -28.1908
v  -40.0000 65.7901 5.1640
v  -40.0000 65.7901 -5.1685
v  -40.0000 62.5608 -14.8719
v  -40.0000 62.5608 14.8719
v  -40.0000 48.3637 28.1908
v  -40.0000 48.3637 -28.1908
v  -40.0000 56.4878 22.7908
v  -40.0000 56.4878 -22.7910
v  -33.0000 48.3637 28.1908
v  -0.0000 38.8238 30.0000
v  -0.0000 48.3637 28.1908
v  -33.0000 56.4878 22.7908
v  -0.0000 56.4878 22.7908
v  -33.0000 62.5608 14.8719
v  -0.0000 62.5608 14.8719
v  -33.0000 65.7901 5.1640
v  0.0000 65.7901 5.1640
v  -33.0000 65.7901 -5.1685
v  -0.0000 65.7901 -5.1458
v  -33.0000 62.5608 -14.8719
v  -0.0000 62.5608 -14.8719
v  -33.0000 56.4878 -22.7910
v  0.0000 56.4878 -22.7910
v  -33.0000 48.3637 -28.1908
v  0.0000 48.3637 -28.1908
# 61 vertices

vn -0.0000 -1.0000 0.0000
vn 0.0000 -1.0000 0.0000
vn 0.0000 1.0000 0.0000
vn 0.0000 -0.0920 0.9958
vn -0.0000 -0.0920 0.9958
vn 0.9923 -0.1236 -0.0000
vn 0.9923 -0.1236 0.0000
vn 0.0000 -0.0920 -0.9958
vn -0.0000 -0.0920 -0.9958
vn -0.9923 -0.1236 -0.0000
vn -0.9923 -0.1236 0.0000
vn -0.0000 0.3253 0.9456
vn -0.0000 0.1561 0.9877
vn 0.0000 0.6181 0.7861
vn 0.0000 0.8463 0.5328
vn -0.0000 0.8463 0.5328
vn -0.0000 0.9820 0.1888
vn 0.0000 0.9820 -0.1888
vn -0.0000 0.9820 -0.1888
vn 0.0000 0.8462 -0.5328
vn 0.0000 0.6181 -0.7861
vn 0.0000 0.3253 -0.9456
vn 0.0000 0.1561 -0.9877
vn 0.0000 -1.0000 -0.0000
vn 1.0000 0.0000 -0.0000
vn -1.0000 0.0000 -0.0000
vn -1.0000 -0.0000 -0.0000
vn -1.0000 0.0000 0.0000
vn 1.0000 -0.0000 0.0000
vn 1.0000 0.0000 0.0000
vn -0.0000 0.6181 0.7861
vn 0.0000 0.9820 0.1888
vn 0.0000 0.9820 -0.1889
vn -0.0000 0.9821 -0.1884
vn -0.0000 0.8464 -0.5325
vn -0.0000 0.6181 -0.7861
vn 0.0000 0.3253 0.9456
vn 0.0000 0.1561 0.9877
# 38 vertex normals

vt 0.0227 0.0211 0.0000
vt 0.0624 0.0211 0.0000
vt 0.0624 0.2276 0.0000
vt 0.0227 0.2276 0.0000
vt 0.2497 0.0211 0.0000
vt 0.4340 0.0211 0.0000
vt 0.4340 0.2276 0.0000
vt 0.2497 0.2276 0.0000
vt 0.5533 0.6987 0.0000
vt 0.5533 0.9398 0.0000
vt 0.5111 0.9398 0.0000
vt 0.5111 0.6987 0.0000
vt 0.9511 0.6987 0.0000
vt 0.9511 0.9398 0.0000
vt 0.7523 0.9398 0.0000
vt 0.7523 0.6987 0.0000
vt 0.0227 0.2419 0.0000
vt 0.0624 0.2419 0.0000
vt 0.0624 0.4330 0.0000
vt 0.0227 0.4330 0.0000
vt 0.2497 0.2419 0.0000
vt 0.4340 0.2419 0.0000
vt 0.4340 0.4330 0.0000
vt 0.2497 0.4330 0.0000
vt 0.4880 0.0200 0.0000
vt 0.7131 0.0200 0.0000
vt 0.7131 0.2096 0.0000
vt 0.4880 0.2096 0.0000
vt 0.4892 0.2414 0.0000
vt 0.5288 0.2414 0.0000
vt 0.5288 0.4326 0.0000
vt 0.4892 0.4326 0.0000
vt 0.7157 0.2414 0.0000
vt 0.8995 0.2414 0.0000
vt 0.8995 0.4326 0.0000
vt 0.7157 0.4326 0.0000
vt 0.7140 0.0199 0.0000
vt 0.4889 0.0199 0.0000
vt 0.4889 0.2095 0.0000
vt 0.7140 0.2095 0.0000
vt 0.4913 0.4844 0.0000
vt 0.4491 0.4844 0.0000
vt 0.4491 0.4425 0.0000
vt 0.4913 0.4425 0.0000
vt 0.4913 0.5262 0.0000
vt 0.4491 0.5262 0.0000
vt 0.4913 0.5681 0.0000
vt 0.4491 0.5681 0.0000
vt 0.4913 0.6100 0.0000
vt 0.4491 0.6100 0.0000
vt 0.4913 0.6519 0.0000
vt 0.4491 0.6519 0.0000
vt 0.4913 0.6937 0.0000
vt 0.4491 0.6937 0.0000
vt 0.4913 0.7356 0.0000
vt 0.4491 0.7356 0.0000
vt 0.4913 0.7775 0.0000
vt 0.4491 0.7775 0.0000
vt 0.4913 0.8194 0.0000
vt 0.4491 0.8194 0.0000
vt 0.5531 0.4479 0.0000
vt 0.5531 0.6890 0.0000
vt 0.5109 0.6890 0.0000
vt 0.5109 0.4479 0.0000
vt 0.8736 0.1394 0.0000
vt 0.8317 0.1394 0.0000
vt 0.7924 0.1251 0.0000
vt 0.9129 0.1251 0.0000
vt 0.8313 0.1395 0.0000
vt 0.8732 0.1395 0.0000
vt 0.9125 0.1252 0.0000
vt 0.7919 0.1252 0.0000
vt 0.9728 0.0207 0.0000
vt 0.7317 0.0207 0.0000
vt 0.7389 0.0620 0.0000
vt 0.9655 0.0620 0.0000
vt 0.7599 0.0982 0.0000
vt 0.9446 0.0982 0.0000
vt 0.7321 0.0207 0.0000
vt 0.9732 0.0207 0.0000
vt 0.9659 0.0619 0.0000
vt 0.7393 0.0619 0.0000
vt 0.9450 0.0982 0.0000
vt 0.7603 0.0982 0.0000
vt 0.9386 0.2414 0.0000
vt 0.9386 0.4326 0.0000
vt 0.4730 0.0211 0.0000
vt 0.4730 0.2276 0.0000
vt 0.9933 0.6987 0.0000
vt 0.9933 0.9398 0.0000
vt 0.4730 0.2419 0.0000
vt 0.4730 0.4330 0.0000
vt 0.0512 0.4844 0.0000
vt 0.0512 0.4425 0.0000
vt 0.2502 0.4425 0.0000
vt 0.2502 0.4844 0.0000
vt 0.0512 0.5262 0.0000
vt 0.2502 0.5262 0.0000
vt 0.0512 0.5681 0.0000
vt 0.2502 0.5681 0.0000
vt 0.0512 0.6100 0.0000
vt 0.2502 0.6100 0.0000
vt 0.0512 0.6519 0.0000
vt 0.2502 0.6519 0.0000
vt 0.0512 0.6937 0.0000
vt 0.2502 0.6937 0.0000
vt 0.0512 0.7356 0.0000
vt 0.2502 0.7356 0.0000
vt 0.0512 0.7775 0.0000
vt 0.2502 0.7775 0.0000
vt 0.0512 0.8194 0.0000
vt 0.2502 0.8194 0.0000
vt 0.9511 0.4479 0.0000
vt 0.9511 0.6890 0.0000
vt 0.7521 0.6890 0.0000
vt 0.7521 0.4479 0.0000
vt 0.0090 0.4844 0.0000
vt 0.0090 0.4425 0.0000
vt 0.0090 0.5262 0.0000
vt 0.0090 0.5681 0.0000
vt 0.0090 0.6100 0.0000
vt 0.0090 0.6519 0.0000
vt 0.0090 0.6937 0.0000
vt 0.0090 0.7356 0.0000
vt 0.0090 0.7775 0.0000
vt 0.0090 0.8194 0.0000
vt 0.9933 0.4479 0.0000
vt 0.9933 0.6890 0.0000
# 128 texture coords

g treasure
s 2
f 1/1/1 2/2/1 3/3/2 4/4/2 
f 5/5/1 6/6/2 7/7/1 8/8/1 
s 4
f 9/9/3 10/10/3 11/11/3 12/12/3 
f 13/13/3 14/14/3 15/15/3 16/16/3 
s 8
f 4/17/4 3/18/4 9/19/4 12/20/4 
f 8/21/5 7/22/5 13/23/5 16/24/4 
s 16
f 17/25/6 18/26/7 19/27/6 20/28/6 
s 32
f 18/29/8 6/30/8 14/31/8 19/32/8 
f 5/33/9 2/34/9 10/35/9 15/36/8 
s 64
f 1/37/10 4/38/11 12/39/10 11/40/10 
s 8
f 21/41/12 22/42/12 13/43/13 20/44/13 
f 23/45/14 24/46/14 22/42/12 21/41/12 
f 25/47/15 26/48/16 24/46/14 23/45/14 
f 27/49/17 28/50/17 26/48/16 25/47/15 
f 29/51/18 30/52/19 28/50/17 27/49/17 
f 31/53/20 32/54/20 30/52/19 29/51/18 
f 33/55/21 34/56/21 32/54/20 31/53/20 
f 35/57/22 36/58/22 34/56/21 33/55/21 
f 19/59/23 14/60/23 36/58/22 35/57/22 
s off
f 13/61/24 14/62/24 19/63/24 20/64/24 
f 29/65/25 27/66/25 25/67/25 31/68/25 
f 37/69/26 38/70/26 39/71/26 40/72/26 
f 11/73/27 12/74/27 41/75/27 42/76/27 
f 42/76/28 41/75/28 43/77/28 44/78/28 
f 44/78/27 43/77/27 40/72/27 39/71/27 
f 20/79/29 19/80/29 35/81/29 21/82/29 
f 21/82/30 35/81/30 33/83/30 23/84/30 
f 23/84/29 33/83/29 31/68/29 25/67/29 
s 2
f 5/5/1 8/8/1 3/3/2 2/2/1 
s 4
f 16/16/3 15/15/3 10/10/3 9/9/3 
s 8
f 8/21/5 16/24/4 9/19/4 3/18/4 
s 32
f 1/85/9 11/86/8 10/35/9 2/34/9 
s 2
f 18/87/2 17/88/1 7/7/1 6/6/2 
s 4
f 20/89/3 19/90/3 14/14/3 13/13/3 
s 8
f 17/91/5 20/92/4 13/23/5 7/22/5 
s 32
f 5/33/9 15/36/8 14/31/8 6/30/8 
s 8
f 45/93/12 9/94/13 46/95/13 47/96/12 
f 48/97/14 45/93/12 47/96/12 49/98/31 
f 50/99/15 48/97/14 49/98/31 51/100/15 
f 52/101/32 50/99/15 51/100/15 53/102/32 
f 54/103/33 52/101/32 53/102/32 55/104/34 
f 56/105/20 54/103/33 55/104/34 57/106/35 
f 58/107/36 56/105/20 57/106/35 59/108/21 
f 60/109/22 58/107/36 59/108/21 61/110/22 
f 10/111/23 60/109/22 61/110/22 15/112/23 
s off
f 9/113/24 10/114/24 15/115/24 46/116/24 
s 8
f 45/93/12 41/117/37 12/118/38 9/94/13 
f 43/119/14 41/117/37 45/93/12 48/97/14 
f 40/120/15 43/119/14 48/97/14 50/99/15 
f 37/121/32 40/120/15 50/99/15 52/101/32 
f 38/122/18 37/121/32 52/101/32 54/103/33 
f 39/123/20 38/122/18 54/103/33 56/105/20 
f 44/124/21 39/123/20 56/105/20 58/107/36 
f 42/125/22 44/124/21 58/107/36 60/109/22 
f 11/126/23 42/125/22 60/109/22 10/111/23 
s off
f 12/127/24 11/128/24 10/114/24 9/113/24 
s 8
f 47/96/12 46/95/13 13/43/13 22/42/12 
f 49/98/31 47/96/12 22/42/12 24/46/14 
f 51/100/15 49/98/31 24/46/14 26/48/16 
f 53/102/32 51/100/15 26/48/16 28/50/17 
f 55/104/34 53/102/32 28/50/17 30/52/19 
f 57/106/35 55/104/34 30/52/19 32/54/20 
f 59/108/21 57/106/35 32/54/20 34/56/21 
f 61/110/22 59/108/21 34/56/21 36/58/22 
f 15/112/23 61/110/22 36/58/22 14/60/23 
s off
f 46/116/24 15/115/24 14/62/24 13/61/24 
# 66 polygons

