# 3ds Max Wavefront OBJ Exporter v0.97b - (c)2007 guruware
# File Created: 23.08.2015 14:45:55

#
# object clay_urn
#

v  0.0865 0.0200 0.0000
v  0.0799 0.0200 -0.0331
v  0.1281 0.0900 -0.0530
v  0.1386 0.0900 -0.0000
v  0.0612 0.0200 -0.0612
v  0.0980 0.0900 -0.0980
v  0.0331 0.0200 -0.0799
v  0.0530 0.0900 -0.1281
v  -0.0000 0.0200 -0.0865
v  -0.0000 0.0900 -0.1386
v  -0.0331 0.0200 -0.0799
v  -0.0530 0.0900 -0.1281
v  -0.0612 0.0200 -0.0612
v  -0.0980 0.0900 -0.0980
v  -0.0799 0.0200 -0.0331
v  -0.1281 0.0900 -0.0530
v  -0.0865 0.0200 -0.0000
v  -0.1386 0.0900 -0.0000
v  -0.0799 0.0200 0.0331
v  -0.1281 0.0900 0.0530
v  -0.0612 0.0200 0.0612
v  -0.0980 0.0900 0.0980
v  -0.0331 0.0200 0.0799
v  -0.0530 0.0900 0.1281
v  0.0000 0.0200 0.0865
v  0.0000 0.0900 0.1386
v  0.0331 0.0200 0.0799
v  0.0530 0.0900 0.1281
v  0.0612 0.0200 0.0612
v  0.0980 0.0900 0.0980
v  0.0799 0.0200 0.0331
v  0.1281 0.0900 0.0530
v  0.1339 0.1350 -0.0555
v  0.1450 0.1350 -0.0000
v  0.1025 0.1350 -0.1025
v  0.0555 0.1350 -0.1339
v  -0.0000 0.1350 -0.1450
v  -0.0555 0.1350 -0.1339
v  -0.1025 0.1350 -0.1025
v  -0.1339 0.1350 -0.0555
v  -0.1450 0.1350 -0.0000
v  -0.1339 0.1350 0.0555
v  -0.1025 0.1350 0.1025
v  -0.0555 0.1350 0.1339
v  0.0000 0.1350 0.1450
v  0.0555 0.1350 0.1339
v  0.1025 0.1350 0.1025
v  0.1339 0.1350 0.0555
v  0.1386 0.1800 -0.0000
v  0.1281 0.1800 -0.0530
v  0.0986 0.2385 -0.0409
v  0.1068 0.2385 -0.0000
v  0.0980 0.1800 -0.0980
v  0.0755 0.2385 -0.0755
v  0.0530 0.1800 -0.1281
v  0.0409 0.2385 -0.0986
v  -0.0000 0.1800 -0.1386
v  -0.0000 0.2385 -0.1068
v  -0.0530 0.1800 -0.1281
v  -0.0409 0.2385 -0.0986
v  -0.0980 0.1800 -0.0980
v  -0.0755 0.2385 -0.0755
v  -0.1281 0.1800 -0.0530
v  -0.0986 0.2385 -0.0409
v  -0.1386 0.1800 -0.0000
v  -0.1068 0.2385 -0.0000
v  -0.1281 0.1800 0.0530
v  -0.0986 0.2385 0.0409
v  -0.0980 0.1800 0.0980
v  -0.0755 0.2385 0.0755
v  -0.0530 0.1800 0.1281
v  -0.0409 0.2385 0.0986
v  0.0000 0.1800 0.1386
v  0.0000 0.2385 0.1068
v  0.0530 0.1800 0.1281
v  0.0409 0.2385 0.0986
v  0.0980 0.1800 0.0980
v  0.0755 0.2385 0.0755
v  0.1281 0.1800 0.0530
v  0.0986 0.2385 0.0409
v  0.0762 0.2837 -0.0315
v  0.0824 0.2837 -0.0000
v  0.0583 0.2837 -0.0583
v  0.0315 0.2837 -0.0762
v  -0.0000 0.2837 -0.0824
v  -0.0315 0.2837 -0.0762
v  -0.0583 0.2837 -0.0583
v  -0.0762 0.2837 -0.0315
v  -0.0824 0.2837 -0.0000
v  -0.0762 0.2837 0.0315
v  -0.0583 0.2837 0.0583
v  -0.0315 0.2837 0.0762
v  0.0000 0.2837 0.0824
v  0.0315 0.2837 0.0762
v  0.0583 0.2837 0.0583
v  0.0762 0.2837 0.0315
v  0.0772 0.3405 -0.0000
v  0.0713 0.3405 -0.0295
v  0.0939 0.3919 -0.0389
v  0.1017 0.3919 -0.0000
v  0.0546 0.3405 -0.0546
v  0.0719 0.3919 -0.0719
v  0.0295 0.3405 -0.0713
v  0.0389 0.3919 -0.0939
v  -0.0000 0.3405 -0.0772
v  -0.0000 0.3919 -0.1017
v  -0.0295 0.3405 -0.0713
v  -0.0389 0.3919 -0.0939
v  -0.0546 0.3405 -0.0546
v  -0.0719 0.3919 -0.0719
v  -0.0713 0.3405 -0.0295
v  -0.0939 0.3919 -0.0389
v  -0.0772 0.3405 -0.0000
v  -0.1017 0.3919 -0.0000
v  -0.0713 0.3405 0.0295
v  -0.0939 0.3919 0.0389
v  -0.0546 0.3405 0.0546
v  -0.0719 0.3919 0.0719
v  -0.0295 0.3405 0.0713
v  -0.0389 0.3919 0.0939
v  0.0000 0.3405 0.0772
v  0.0000 0.3919 0.1017
v  0.0295 0.3405 0.0713
v  0.0389 0.3919 0.0939
v  0.0546 0.3405 0.0546
v  0.0719 0.3919 0.0719
v  0.0713 0.3405 0.0295
v  0.0939 0.3919 0.0389
v  0.0612 -0.0000 0.0612
v  0.0331 -0.0000 0.0799
v  0.0000 -0.0000 0.0865
v  0.0865 -0.0000 0.0000
v  -0.0331 -0.0000 0.0799
v  -0.0612 -0.0000 0.0612
v  -0.0865 -0.0000 -0.0000
v  -0.0799 -0.0000 0.0331
v  -0.0799 -0.0000 -0.0331
v  -0.0612 -0.0000 -0.0612
v  -0.0000 -0.0000 -0.0865
v  -0.0331 -0.0000 -0.0799
v  0.0331 -0.0000 -0.0799
v  0.0612 -0.0000 -0.0612
v  0.0799 -0.0000 -0.0331
v  0.0799 -0.0000 0.0331
v  0.0430 0.2355 -0.0178
v  0.0329 0.2355 -0.0329
v  0.0178 0.2355 -0.0430
v  0.0430 0.2355 0.0178
v  -0.0000 0.2355 -0.0466
v  -0.0178 0.2355 -0.0430
v  -0.0430 0.2355 -0.0178
v  -0.0329 0.2355 -0.0329
v  -0.0466 0.2355 -0.0000
v  -0.0430 0.2355 0.0178
v  -0.0178 0.2355 0.0430
v  -0.0329 0.2355 0.0329
v  -0.0000 0.2355 0.0466
v  0.0178 0.2355 0.0430
v  0.0329 0.2355 0.0329
v  0.0466 0.2355 0.0000
v  0.0901 0.4005 -0.0373
v  0.0975 0.4005 -0.0000
v  0.0690 0.4005 -0.0690
v  0.0373 0.4005 -0.0901
v  -0.0000 0.4005 -0.0975
v  -0.0373 0.4005 -0.0901
v  -0.0690 0.4005 -0.0690
v  -0.0901 0.4005 -0.0373
v  -0.0975 0.4005 -0.0000
v  -0.0901 0.4005 0.0373
v  -0.0690 0.4005 0.0690
v  -0.0373 0.4005 0.0901
v  0.0000 0.4005 0.0975
v  0.0373 0.4005 0.0901
v  0.0690 0.4005 0.0690
v  0.0901 0.4005 0.0373
v  0.0760 0.3855 -0.0315
v  0.0822 0.3855 0.0000
v  0.0582 0.3855 -0.0582
v  0.0315 0.3855 -0.0760
v  -0.0000 0.3855 -0.0822
v  -0.0315 0.3855 -0.0760
v  -0.0582 0.3855 -0.0582
v  -0.0760 0.3855 -0.0315
v  -0.0822 0.3855 -0.0000
v  -0.0760 0.3855 0.0315
v  -0.0582 0.3855 0.0582
v  -0.0315 0.3855 0.0760
v  -0.0000 0.3855 0.0822
v  0.0315 0.3855 0.0760
v  0.0582 0.3855 0.0582
v  0.0760 0.3855 0.0315
# 192 vertices

vn 0.9450 -0.3269 -0.0000
vn 0.8731 -0.3269 -0.3617
vn 0.8583 -0.3701 -0.3555
vn 0.9290 -0.3701 -0.0000
vn 0.6683 -0.3269 -0.6683
vn 0.6569 -0.3701 -0.6569
vn 0.3617 -0.3269 -0.8731
vn 0.3555 -0.3701 -0.8583
vn -0.0000 -0.3269 -0.9450
vn -0.0000 -0.3701 -0.9290
vn -0.3617 -0.3269 -0.8731
vn -0.3555 -0.3701 -0.8583
vn -0.6683 -0.3269 -0.6683
vn -0.6569 -0.3701 -0.6569
vn -0.8731 -0.3269 -0.3617
vn -0.8583 -0.3701 -0.3555
vn -0.9450 -0.3269 0.0000
vn -0.9290 -0.3701 -0.0000
vn -0.8731 -0.3269 0.3617
vn -0.8583 -0.3701 0.3555
vn -0.6683 -0.3269 0.6682
vn -0.6569 -0.3701 0.6569
vn -0.3617 -0.3269 0.8731
vn -0.3555 -0.3701 0.8583
vn 0.0000 -0.3269 0.9450
vn 0.0000 -0.3701 0.9290
vn 0.3617 -0.3269 0.8731
vn 0.3555 -0.3701 0.8583
vn 0.6683 -0.3269 0.6682
vn 0.6569 -0.3701 0.6569
vn 0.8731 -0.3269 0.3617
vn 0.8583 -0.3701 0.3555
vn 0.9239 -0.0000 -0.3827
vn 1.0000 -0.0000 -0.0000
vn 0.7071 -0.0000 -0.7071
vn 0.3827 -0.0000 -0.9239
vn -0.0000 -0.0000 -1.0000
vn -0.3827 -0.0000 -0.9239
vn -0.7071 -0.0000 -0.7071
vn -0.9239 -0.0000 -0.3827
vn -1.0000 -0.0000 -0.0000
vn -0.9239 -0.0000 0.3827
vn -0.7071 -0.0000 0.7071
vn -0.3827 -0.0000 0.9239
vn 0.0000 -0.0000 1.0000
vn 0.3827 -0.0000 0.9239
vn 0.7071 -0.0000 0.7071
vn 0.9239 -0.0000 0.3827
vn 0.9514 0.3079 -0.0000
vn 0.8790 0.3079 -0.3641
vn 0.8125 0.4761 -0.3365
vn 0.8794 0.4761 0.0000
vn 0.6728 0.3079 -0.6728
vn 0.6218 0.4761 -0.6218
vn 0.3641 0.3079 -0.8790
vn 0.3365 0.4761 -0.8125
vn -0.0000 0.3079 -0.9514
vn 0.0000 0.4761 -0.8794
vn -0.3641 0.3079 -0.8790
vn -0.3365 0.4761 -0.8125
vn -0.6728 0.3079 -0.6728
vn -0.6218 0.4761 -0.6218
vn -0.8790 0.3079 -0.3641
vn -0.8125 0.4761 -0.3365
vn -0.9514 0.3079 -0.0000
vn -0.8794 0.4761 0.0000
vn -0.8790 0.3079 0.3641
vn -0.8125 0.4761 0.3365
vn -0.6728 0.3079 0.6728
vn -0.6218 0.4761 0.6218
vn -0.3641 0.3079 0.8790
vn -0.3365 0.4761 0.8125
vn 0.0000 0.3079 0.9514
vn 0.0000 0.4761 0.8794
vn 0.3641 0.3079 0.8790
vn 0.3365 0.4761 0.8125
vn 0.6728 0.3079 0.6728
vn 0.6218 0.4761 0.6218
vn 0.8790 0.3079 0.3641
vn 0.8125 0.4761 0.3365
vn 0.8825 0.2958 -0.3656
vn 0.9552 0.2958 0.0000
vn 0.6755 0.2958 -0.6755
vn 0.3656 0.2958 -0.8825
vn -0.0000 0.2958 -0.9552
vn -0.3656 0.2958 -0.8825
vn -0.6755 0.2958 -0.6755
vn -0.8825 0.2958 -0.3656
vn -0.9552 0.2958 0.0000
vn -0.8825 0.2958 0.3656
vn -0.6755 0.2958 0.6755
vn -0.3656 0.2958 0.8825
vn 0.0000 0.2958 0.9552
vn 0.3656 0.2958 0.8825
vn 0.6755 0.2958 0.6755
vn 0.8825 0.2958 0.3656
vn 0.9835 -0.1812 -0.0000
vn 0.9086 -0.1811 -0.3764
vn 0.9239 0.0006 -0.3827
vn 1.0000 0.0006 -0.0000
vn 0.6954 -0.1811 -0.6954
vn 0.7071 0.0006 -0.7071
vn 0.3764 -0.1811 -0.9086
vn 0.3827 0.0006 -0.9239
vn -0.0000 -0.1812 -0.9835
vn -0.0000 0.0006 -1.0000
vn -0.3764 -0.1811 -0.9086
vn -0.3827 0.0006 -0.9239
vn -0.6954 -0.1811 -0.6954
vn -0.7071 0.0006 -0.7071
vn -0.9086 -0.1811 -0.3764
vn -0.9239 0.0006 -0.3827
vn -0.9835 -0.1812 -0.0000
vn -1.0000 0.0006 0.0000
vn -0.9086 -0.1812 0.3764
vn -0.9239 0.0006 0.3827
vn -0.6954 -0.1812 0.6954
vn -0.7071 0.0006 0.7071
vn -0.3764 -0.1812 0.9086
vn -0.3827 0.0006 0.9239
vn 0.0000 -0.1812 0.9835
vn 0.0000 0.0006 1.0000
vn 0.3764 -0.1812 0.9086
vn 0.3827 0.0006 0.9239
vn 0.6954 -0.1812 0.6954
vn 0.7071 0.0006 0.7071
vn 0.9086 -0.1812 0.3764
vn 0.9239 0.0006 0.3827
vn 0.0000 -1.0000 0.0000
vn 0.0000 -1.0000 -0.0000
vn -0.0000 -1.0000 0.0000
vn -0.6128 0.7484 0.2538
vn -0.4690 0.7484 0.4690
vn -0.2538 0.7484 0.6128
vn -0.6128 0.7484 -0.2538
vn -0.0000 0.7484 0.6632
vn 0.2538 0.7484 0.6128
vn 0.6128 0.7484 0.2538
vn 0.4690 0.7484 0.4690
vn 0.6632 0.7484 -0.0000
vn 0.6128 0.7484 -0.2538
vn 0.2538 0.7484 -0.6128
vn 0.4690 0.7484 -0.4690
vn -0.0000 0.7484 -0.6632
vn -0.2538 0.7484 -0.6128
vn -0.4690 0.7484 -0.4690
vn -0.6632 0.7484 0.0000
vn 1.0000 -0.0000 0.0000
vn 0.9239 0.0000 -0.3827
vn 0.7071 0.0000 0.7071
vn 0.3827 0.0000 0.9239
vn 0.0000 0.0000 1.0000
vn -0.3827 0.0000 0.9239
vn -0.7071 0.0000 0.7071
vn -0.9239 0.0000 0.3827
vn -1.0000 0.0000 0.0000
vn -0.9239 0.0000 -0.3827
vn -0.7071 0.0000 -0.7071
vn -0.3827 0.0000 -0.9239
vn 0.0000 0.0000 -1.0000
vn 0.3827 0.0000 -0.9239
vn 0.7071 0.0000 -0.7071
vn 0.8334 0.4315 -0.3452
vn 0.9021 0.4315 -0.0000
vn 0.6379 0.4315 -0.6379
vn 0.3452 0.4315 -0.8334
vn -0.0000 0.4315 -0.9021
vn -0.3452 0.4315 -0.8334
vn -0.6379 0.4315 -0.6379
vn -0.8334 0.4315 -0.3452
vn -0.9021 0.4315 0.0000
vn -0.8334 0.4315 0.3452
vn -0.6379 0.4315 0.6379
vn -0.3452 0.4315 0.8334
vn 0.0000 0.4315 0.9021
vn 0.3452 0.4315 0.8334
vn 0.6379 0.4315 0.6379
vn 0.8334 0.4315 0.3452
vn -0.7002 0.7139 0.0000
vn -0.6469 0.7139 0.2680
vn -0.7962 0.5073 0.3298
vn -0.8618 0.5073 0.0000
vn -0.4951 0.7139 0.4951
vn -0.6094 0.5073 0.6094
vn -0.2680 0.7139 0.6469
vn -0.3298 0.5073 0.7962
vn -0.0000 0.7139 0.7002
vn -0.0000 0.5073 0.8618
vn 0.2680 0.7139 0.6469
vn 0.3298 0.5073 0.7962
vn 0.4951 0.7139 0.4951
vn 0.6094 0.5073 0.6094
vn 0.6469 0.7139 0.2680
vn 0.7962 0.5073 0.3298
vn 0.7002 0.7139 0.0000
vn 0.8618 0.5073 0.0000
vn 0.6469 0.7139 -0.2680
vn 0.7962 0.5073 -0.3298
vn 0.4951 0.7139 -0.4951
vn 0.6094 0.5073 -0.6094
vn 0.2680 0.7139 -0.6469
vn 0.3298 0.5073 -0.7962
vn -0.0000 0.7139 -0.7002
vn -0.0000 0.5073 -0.8618
vn -0.2680 0.7139 -0.6469
vn -0.3298 0.5073 -0.7962
vn -0.4951 0.7139 -0.4951
vn -0.6094 0.5073 -0.6094
vn -0.6469 0.7139 -0.2680
vn -0.7962 0.5073 -0.3298
# 210 vertex normals

vt 0.7500 0.0000 1.0000
vt 0.8125 0.0000 1.0000
vt 0.8125 0.2000 1.0000
vt 0.7500 0.2000 1.0000
vt 0.8750 0.0000 1.0000
vt 0.8750 0.2000 1.0000
vt 0.9375 0.0000 1.0000
vt 0.9375 0.2000 1.0000
vt 1.0000 0.0000 1.0000
vt 1.0000 0.2000 1.0000
vt 0.0000 0.0000 1.0000
vt 0.0625 0.0000 1.0000
vt 0.0625 0.2000 1.0000
vt 0.0000 0.2000 1.0000
vt 0.1250 0.0000 1.0000
vt 0.1250 0.2000 1.0000
vt 0.1875 0.0000 1.0000
vt 0.1875 0.2000 1.0000
vt 0.2500 0.0000 1.0000
vt 0.2500 0.2000 1.0000
vt 0.3125 0.0000 1.0000
vt 0.3125 0.2000 1.0000
vt 0.3750 0.0000 1.0000
vt 0.3750 0.2000 1.0000
vt 0.4375 0.0000 1.0000
vt 0.4375 0.2000 1.0000
vt 0.5000 0.0000 1.0000
vt 0.5000 0.2000 1.0000
vt 0.5625 0.0000 1.0000
vt 0.5625 0.2000 1.0000
vt 0.6250 0.0000 1.0000
vt 0.6250 0.2000 1.0000
vt 0.6875 0.0000 1.0000
vt 0.6875 0.2000 1.0000
vt 0.8125 0.3000 1.0000
vt 0.7500 0.3000 1.0000
vt 0.8750 0.3000 1.0000
vt 0.9375 0.3000 1.0000
vt 1.0000 0.3000 1.0000
vt 0.0625 0.3000 1.0000
vt 0.0000 0.3000 1.0000
vt 0.1250 0.3000 1.0000
vt 0.1875 0.3000 1.0000
vt 0.2500 0.3000 1.0000
vt 0.3125 0.3000 1.0000
vt 0.3750 0.3000 1.0000
vt 0.4375 0.3000 1.0000
vt 0.5000 0.3000 1.0000
vt 0.5625 0.3000 1.0000
vt 0.6250 0.3000 1.0000
vt 0.6875 0.3000 1.0000
vt 0.7500 0.4000 1.0000
vt 0.8125 0.4000 1.0000
vt 0.8125 0.6000 1.0000
vt 0.7500 0.6000 1.0000
vt 0.8750 0.4000 1.0000
vt 0.8750 0.6000 1.0000
vt 0.9375 0.4000 1.0000
vt 0.9375 0.6000 1.0000
vt 1.0000 0.4000 1.0000
vt 1.0000 0.6000 1.0000
vt 0.0000 0.4000 1.0000
vt 0.0625 0.4000 1.0000
vt 0.0625 0.6000 1.0000
vt 0.0000 0.6000 1.0000
vt 0.1250 0.4000 1.0000
vt 0.1250 0.6000 1.0000
vt 0.1875 0.4000 1.0000
vt 0.1875 0.6000 1.0000
vt 0.2500 0.4000 1.0000
vt 0.2500 0.6000 1.0000
vt 0.3125 0.4000 1.0000
vt 0.3125 0.6000 1.0000
vt 0.3750 0.4000 1.0000
vt 0.3750 0.6000 1.0000
vt 0.4375 0.4000 1.0000
vt 0.4375 0.6000 1.0000
vt 0.5000 0.4000 1.0000
vt 0.5000 0.6000 1.0000
vt 0.5625 0.4000 1.0000
vt 0.5625 0.6000 1.0000
vt 0.6250 0.4000 1.0000
vt 0.6250 0.6000 1.0000
vt 0.6875 0.4000 1.0000
vt 0.6875 0.6000 1.0000
vt 0.8125 0.7000 1.0000
vt 0.7500 0.7000 1.0000
vt 0.8750 0.7000 1.0000
vt 0.9375 0.7000 1.0000
vt 1.0000 0.7000 1.0000
vt 0.0625 0.7000 1.0000
vt 0.0000 0.7000 1.0000
vt 0.1250 0.7000 1.0000
vt 0.1875 0.7000 1.0000
vt 0.2500 0.7000 1.0000
vt 0.3125 0.7000 1.0000
vt 0.3750 0.7000 1.0000
vt 0.4375 0.7000 1.0000
vt 0.5000 0.7000 1.0000
vt 0.5625 0.7000 1.0000
vt 0.6250 0.7000 1.0000
vt 0.6875 0.7000 1.0000
vt 0.7500 0.8000 1.0000
vt 0.8125 0.8000 1.0000
vt 0.8125 0.9713 1.0000
vt 0.7500 0.9713 1.0000
vt 0.8750 0.8000 1.0000
vt 0.8750 0.9713 1.0000
vt 0.9375 0.8000 1.0000
vt 0.9375 0.9713 1.0000
vt 1.0000 0.8000 1.0000
vt 1.0000 0.9713 1.0000
vt 0.0000 0.8000 1.0000
vt 0.0625 0.8000 1.0000
vt 0.0625 0.9713 1.0000
vt 0.0000 0.9713 1.0000
vt 0.1250 0.8000 1.0000
vt 0.1250 0.9713 1.0000
vt 0.1875 0.8000 1.0000
vt 0.1875 0.9713 1.0000
vt 0.2500 0.8000 1.0000
vt 0.2500 0.9713 1.0000
vt 0.3125 0.8000 1.0000
vt 0.3125 0.9713 1.0000
vt 0.3750 0.8000 1.0000
vt 0.3750 0.9713 1.0000
vt 0.4375 0.8000 1.0000
vt 0.4375 0.9713 1.0000
vt 0.5000 0.8000 1.0000
vt 0.5000 0.9713 1.0000
vt 0.5625 0.8000 1.0000
vt 0.5625 0.9713 1.0000
vt 0.6250 0.8000 1.0000
vt 0.6250 0.9713 1.0000
vt 0.6875 0.8000 1.0000
vt 0.6875 0.9713 1.0000
vt 0.8536 0.8536 -0.2500
vt 0.9619 0.6913 -0.2500
vt 1.0000 0.5000 -0.2500
vt 0.5000 1.0000 -0.2500
vt 0.9619 0.3087 -0.2500
vt 0.8536 0.1464 -0.2500
vt 0.5000 0.0000 -0.2500
vt 0.6913 0.0381 -0.2500
vt 0.3087 0.0381 -0.2500
vt 0.1464 0.1464 -0.2500
vt 0.0000 0.5000 -0.2500
vt 0.0381 0.3087 -0.2500
vt 0.0381 0.6913 -0.2500
vt 0.1464 0.8536 -0.2500
vt 0.3087 0.9619 -0.2500
vt 0.6913 0.9619 -0.2500
vt 0.3106 0.9573 0.2500
vt 0.1500 0.8500 0.2500
vt 0.0427 0.6894 0.2500
vt 0.6894 0.9573 0.2500
vt 0.0050 0.5000 0.2500
vt 0.0427 0.3106 0.2500
vt 0.3106 0.0427 0.2500
vt 0.1500 0.1500 0.2500
vt 0.5000 0.0050 0.2500
vt 0.6894 0.0427 0.2500
vt 0.9573 0.3106 0.2500
vt 0.8500 0.1500 0.2500
vt 0.9950 0.5000 0.2500
vt 0.9573 0.6894 0.2500
vt 0.8500 0.8500 0.2500
vt 0.5000 0.9950 0.2500
vt 0.2972 1.0099 0.2500
vt 0.4923 1.0487 0.2500
vt 0.1175 0.8934 0.2500
vt 0.2829 1.0039 0.2500
vt -0.0039 0.7171 0.2500
vt 0.1066 0.8825 0.2500
vt -0.0487 0.5077 0.2500
vt -0.0099 0.7028 0.2500
vt -0.0099 0.2972 0.2500
vt -0.0487 0.4923 0.2500
vt 0.1066 0.1175 0.2500
vt -0.0039 0.2829 0.2500
vt 0.2829 -0.0039 0.2500
vt 0.1175 0.1066 0.2500
vt 0.4923 -0.0487 0.2500
vt 0.2972 -0.0099 0.2500
vt 0.7028 -0.0099 0.2500
vt 0.5077 -0.0487 0.2500
vt 0.8825 0.1066 0.2500
vt 0.7171 -0.0039 0.2500
vt 1.0039 0.2829 0.2500
vt 0.8934 0.1175 0.2500
vt 1.0487 0.4923 0.2500
vt 1.0099 0.2972 0.2500
vt 1.0099 0.7028 0.2500
vt 1.0487 0.5077 0.2500
vt 0.8934 0.8825 0.2500
vt 1.0039 0.7171 0.2500
vt 0.7171 1.0039 0.2500
vt 0.8825 0.8934 0.2500
vt 0.5077 1.0487 0.2500
vt 0.7028 1.0099 0.2500
# 200 texture coords

g clay_urn
s 2
f 1/1/1 2/2/2 3/3/3 4/4/4 
f 2/2/2 5/5/5 6/6/6 3/3/3 
f 5/5/5 7/7/7 8/8/8 6/6/6 
f 7/7/7 9/9/9 10/10/10 8/8/8 
f 9/11/9 11/12/11 12/13/12 10/14/10 
f 11/12/11 13/15/13 14/16/14 12/13/12 
f 13/15/13 15/17/15 16/18/16 14/16/14 
f 15/17/15 17/19/17 18/20/18 16/18/16 
f 17/19/17 19/21/19 20/22/20 18/20/18 
f 19/21/19 21/23/21 22/24/22 20/22/20 
f 21/23/21 23/25/23 24/26/24 22/24/22 
f 23/25/23 25/27/25 26/28/26 24/26/24 
f 25/27/25 27/29/27 28/30/28 26/28/26 
f 27/29/27 29/31/29 30/32/30 28/30/28 
f 29/31/29 31/33/31 32/34/32 30/32/30 
f 31/33/31 1/1/1 4/4/4 32/34/32 
f 3/3/3 33/35/33 34/36/34 4/4/4 
f 6/6/6 35/37/35 33/35/33 3/3/3 
f 8/8/8 36/38/36 35/37/35 6/6/6 
f 10/10/10 37/39/37 36/38/36 8/8/8 
f 12/13/12 38/40/38 37/41/37 10/14/10 
f 14/16/14 39/42/39 38/40/38 12/13/12 
f 16/18/16 40/43/40 39/42/39 14/16/14 
f 18/20/18 41/44/41 40/43/40 16/18/16 
f 20/22/20 42/45/42 41/44/41 18/20/18 
f 22/24/22 43/46/43 42/45/42 20/22/20 
f 24/26/24 44/47/44 43/46/43 22/24/22 
f 26/28/26 45/48/45 44/47/44 24/26/24 
f 28/30/28 46/49/46 45/48/45 26/28/26 
f 30/32/30 47/50/47 46/49/46 28/30/28 
f 32/34/32 48/51/48 47/50/47 30/32/30 
f 4/4/4 34/36/34 48/51/48 32/34/32 
f 49/52/49 50/53/50 51/54/51 52/55/52 
f 50/53/50 53/56/53 54/57/54 51/54/51 
f 53/56/53 55/58/55 56/59/56 54/57/54 
f 55/58/55 57/60/57 58/61/58 56/59/56 
f 57/62/57 59/63/59 60/64/60 58/65/58 
f 59/63/59 61/66/61 62/67/62 60/64/60 
f 61/66/61 63/68/63 64/69/64 62/67/62 
f 63/68/63 65/70/65 66/71/66 64/69/64 
f 65/70/65 67/72/67 68/73/68 66/71/66 
f 67/72/67 69/74/69 70/75/70 68/73/68 
f 69/74/69 71/76/71 72/77/72 70/75/70 
f 71/76/71 73/78/73 74/79/74 72/77/72 
f 73/78/73 75/80/75 76/81/76 74/79/74 
f 75/80/75 77/82/77 78/83/78 76/81/76 
f 77/82/77 79/84/79 80/85/80 78/83/78 
f 79/84/79 49/52/49 52/55/52 80/85/80 
f 51/54/51 81/86/81 82/87/82 52/55/52 
f 54/57/54 83/88/83 81/86/81 51/54/51 
f 56/59/56 84/89/84 83/88/83 54/57/54 
f 58/61/58 85/90/85 84/89/84 56/59/56 
f 60/64/60 86/91/86 85/92/85 58/65/58 
f 62/67/62 87/93/87 86/91/86 60/64/60 
f 64/69/64 88/94/88 87/93/87 62/67/62 
f 66/71/66 89/95/89 88/94/88 64/69/64 
f 68/73/68 90/96/90 89/95/89 66/71/66 
f 70/75/70 91/97/91 90/96/90 68/73/68 
f 72/77/72 92/98/92 91/97/91 70/75/70 
f 74/79/74 93/99/93 92/98/92 72/77/72 
f 76/81/76 94/100/94 93/99/93 74/79/74 
f 78/83/78 95/101/95 94/100/94 76/81/76 
f 80/85/80 96/102/96 95/101/95 78/83/78 
f 52/55/52 82/87/82 96/102/96 80/85/80 
f 97/103/97 98/104/98 99/105/99 100/106/100 
f 98/104/98 101/107/101 102/108/102 99/105/99 
f 101/107/101 103/109/103 104/110/104 102/108/102 
f 103/109/103 105/111/105 106/112/106 104/110/104 
f 105/113/105 107/114/107 108/115/108 106/116/106 
f 107/114/107 109/117/109 110/118/110 108/115/108 
f 109/117/109 111/119/111 112/120/112 110/118/110 
f 111/119/111 113/121/113 114/122/114 112/120/112 
f 113/121/113 115/123/115 116/124/116 114/122/114 
f 115/123/115 117/125/117 118/126/118 116/124/116 
f 117/125/117 119/127/119 120/128/120 118/126/118 
f 119/127/119 121/129/121 122/130/122 120/128/120 
f 121/129/121 123/131/123 124/132/124 122/130/122 
f 123/131/123 125/133/125 126/134/126 124/132/124 
f 125/133/125 127/135/127 128/136/128 126/134/126 
f 127/135/127 97/103/97 100/106/100 128/136/128 
s 4
f 129/137/129 130/138/130 131/139/130 132/140/129 
f 131/139/130 133/141/130 134/142/131 135/143/129 
f 134/142/131 136/144/131 135/143/129 
f 135/143/129 137/145/129 138/146/129 139/147/130 
f 138/146/129 140/148/130 139/147/130 
f 139/147/130 141/149/130 142/150/131 132/140/129 
f 142/150/131 143/151/131 132/140/129 
f 135/143/129 139/147/130 132/140/129 131/139/130 
f 144/152/129 129/137/129 132/140/129 
s 1
f 145/153/132 146/154/133 147/155/134 148/156/135 
f 147/155/134 149/157/136 150/158/137 151/159/138 
f 150/158/137 152/160/139 151/159/138 
f 151/159/138 153/161/140 154/162/141 155/163/142 
f 154/162/141 156/164/143 155/163/142 
f 155/163/142 157/165/144 158/166/145 148/156/135 
f 158/166/145 159/167/146 148/156/135 
f 151/159/138 155/163/142 148/156/135 147/155/134 
f 160/168/147 145/153/132 148/156/135 
s 2
f 50/53/50 49/52/49 34/36/34 33/35/33 
f 53/56/53 50/53/50 33/35/33 35/37/35 
f 55/58/55 53/56/53 35/37/35 36/38/36 
f 57/60/57 55/58/55 36/38/36 37/39/37 
f 59/63/59 57/62/57 37/41/37 38/40/38 
f 61/66/61 59/63/59 38/40/38 39/42/39 
f 63/68/63 61/66/61 39/42/39 40/43/40 
f 65/70/65 63/68/63 40/43/40 41/44/41 
f 67/72/67 65/70/65 41/44/41 42/45/42 
f 69/74/69 67/72/67 42/45/42 43/46/43 
f 71/76/71 69/74/69 43/46/43 44/47/44 
f 73/78/73 71/76/71 44/47/44 45/48/45 
f 75/80/75 73/78/73 45/48/45 46/49/46 
f 77/82/77 75/80/75 46/49/46 47/50/47 
f 79/84/79 77/82/77 47/50/47 48/51/48 
f 49/52/49 79/84/79 48/51/48 34/36/34 
f 2/151/2 1/140/1 132/140/148 143/151/149 
f 1/140/1 31/152/31 144/152/48 132/140/148 
f 31/152/31 29/137/29 129/137/150 144/152/48 
f 29/137/29 27/138/27 130/138/151 129/137/150 
f 27/138/27 25/139/25 131/139/152 130/138/151 
f 25/139/25 23/141/23 133/141/153 131/139/152 
f 23/141/23 21/142/21 134/142/154 133/141/153 
f 21/142/21 19/144/19 136/144/155 134/142/154 
f 19/144/19 17/143/17 135/143/156 136/144/155 
f 17/143/17 15/145/15 137/145/157 135/143/156 
f 15/145/15 13/146/13 138/146/158 137/145/157 
f 13/146/13 11/148/11 140/148/159 138/146/158 
f 11/148/11 9/147/9 139/147/160 140/148/159 
f 9/147/9 7/149/7 141/149/161 139/147/160 
f 7/149/7 5/150/5 142/150/162 141/149/161 
f 5/150/5 2/151/2 143/151/149 142/150/162 
f 99/169/99 161/153/163 162/168/164 100/170/100 
f 102/171/102 163/154/165 161/153/163 99/172/99 
f 104/173/104 164/155/166 163/154/165 102/174/102 
f 106/175/106 165/157/167 164/155/166 104/176/104 
f 108/177/108 166/158/168 165/157/167 106/178/106 
f 110/179/110 167/160/169 166/158/168 108/180/108 
f 112/181/112 168/159/170 167/160/169 110/182/110 
f 114/183/114 169/161/171 168/159/170 112/184/112 
f 116/185/116 170/162/172 169/161/171 114/186/114 
f 118/187/118 171/164/173 170/162/172 116/188/116 
f 120/189/120 172/163/174 171/164/173 118/190/118 
f 122/191/122 173/165/175 172/163/174 120/192/120 
f 124/193/124 174/166/176 173/165/175 122/194/122 
f 126/195/126 175/167/177 174/166/176 124/196/124 
f 128/197/128 176/156/178 175/167/177 126/198/126 
f 100/199/100 162/168/164 176/156/178 128/200/128 
f 98/104/98 97/103/97 82/87/82 81/86/81 
f 101/107/101 98/104/98 81/86/81 83/88/83 
f 103/109/103 101/107/101 83/88/83 84/89/84 
f 105/111/105 103/109/103 84/89/84 85/90/85 
f 107/114/107 105/113/105 85/92/85 86/91/86 
f 109/117/109 107/114/107 86/91/86 87/93/87 
f 111/119/111 109/117/109 87/93/87 88/94/88 
f 113/121/113 111/119/111 88/94/88 89/95/89 
f 115/123/115 113/121/113 89/95/89 90/96/90 
f 117/125/117 115/123/115 90/96/90 91/97/91 
f 119/127/119 117/125/117 91/97/91 92/98/92 
f 121/129/121 119/127/119 92/98/92 93/99/93 
f 123/131/123 121/129/121 93/99/93 94/100/94 
f 125/133/125 123/131/123 94/100/94 95/101/95 
f 127/135/127 125/133/125 95/101/95 96/102/96 
f 97/103/97 127/135/127 96/102/96 82/87/82 
s 1
f 162/168/179 161/153/180 177/153/181 178/168/182 
f 161/153/180 163/154/183 179/154/184 177/153/181 
f 163/154/183 164/155/185 180/155/186 179/154/184 
f 164/155/185 165/157/187 181/157/188 180/155/186 
f 165/157/187 166/158/189 182/158/190 181/157/188 
f 166/158/189 167/160/191 183/160/192 182/158/190 
f 167/160/191 168/159/193 184/159/194 183/160/192 
f 168/159/193 169/161/195 185/161/196 184/159/194 
f 169/161/195 170/162/197 186/162/198 185/161/196 
f 170/162/197 171/164/199 187/164/200 186/162/198 
f 171/164/199 172/163/201 188/163/202 187/164/200 
f 172/163/201 173/165/203 189/165/204 188/163/202 
f 173/165/203 174/166/205 190/166/206 189/165/204 
f 174/166/205 175/167/207 191/167/208 190/166/206 
f 175/167/207 176/156/209 192/156/210 191/167/208 
f 176/156/209 162/168/179 178/168/182 192/156/210 
f 178/168/182 177/153/181 145/153/132 160/168/147 
f 177/153/181 179/154/184 146/154/133 145/153/132 
f 179/154/184 180/155/186 147/155/134 146/154/133 
f 180/155/186 181/157/188 149/157/136 147/155/134 
f 181/157/188 182/158/190 150/158/137 149/157/136 
f 182/158/190 183/160/192 152/160/139 150/158/137 
f 183/160/192 184/159/194 151/159/138 152/160/139 
f 184/159/194 185/161/196 153/161/140 151/159/138 
f 185/161/196 186/162/198 154/162/141 153/161/140 
f 186/162/198 187/164/200 156/164/143 154/162/141 
f 187/164/200 188/163/202 155/163/142 156/164/143 
f 188/163/202 189/165/204 157/165/144 155/163/142 
f 189/165/204 190/166/206 158/166/145 157/165/144 
f 190/166/206 191/167/208 159/167/146 158/166/145 
f 191/167/208 192/156/210 148/156/135 159/167/146 
f 192/156/210 178/168/182 160/168/147 148/156/135 
# 186 polygons - 8 triangles

