# 3ds Max Wavefront OBJ Exporter v0.97b - (c)2007 guruware
# File Created: 24.08.2015 01:37:13

#
# object glass
#

v  0.0633 0.0099 -0.0000
v  0.0585 0.0099 -0.0242
v  0.0525 0.0657 -0.0218
v  0.0569 0.0657 -0.0000
v  0.0447 0.0099 -0.0447
v  0.0402 0.0657 -0.0402
v  0.0242 0.0099 -0.0585
v  0.0218 0.0657 -0.0525
v  -0.0000 0.0099 -0.0633
v  -0.0000 0.0657 -0.0569
v  -0.0242 0.0099 -0.0585
v  -0.0218 0.0657 -0.0525
v  -0.0447 0.0099 -0.0447
v  -0.0402 0.0657 -0.0402
v  -0.0585 0.0099 -0.0242
v  -0.0525 0.0657 -0.0218
v  -0.0633 0.0099 -0.0000
v  -0.0569 0.0657 -0.0000
v  -0.0585 0.0099 0.0242
v  -0.0525 0.0657 0.0218
v  -0.0447 0.0099 0.0447
v  -0.0402 0.0657 0.0402
v  -0.0242 0.0099 0.0585
v  -0.0218 0.0657 0.0525
v  0.0000 0.0099 0.0633
v  0.0000 0.0657 0.0569
v  0.0242 0.0099 0.0585
v  0.0218 0.0657 0.0525
v  0.0447 0.0099 0.0447
v  0.0402 0.0657 0.0402
v  0.0585 0.0099 0.0242
v  0.0525 0.0657 0.0218
v  0.0723 0.1527 -0.0300
v  0.0783 0.1527 0.0000
v  0.0553 0.1527 -0.0553
v  0.0300 0.1527 -0.0723
v  -0.0000 0.1527 -0.0783
v  -0.0300 0.1527 -0.0723
v  -0.0553 0.1527 -0.0553
v  -0.0723 0.1527 -0.0300
v  -0.0783 0.1527 -0.0000
v  -0.0723 0.1527 0.0300
v  -0.0553 0.1527 0.0553
v  -0.0300 0.1527 0.0723
v  0.0000 0.1527 0.0783
v  0.0300 0.1527 0.0723
v  0.0553 0.1527 0.0553
v  0.0723 0.1527 0.0300
v  0.0534 0.0000 0.0000
v  0.0493 0.0000 -0.0204
v  0.0378 0.0000 -0.0378
v  0.0204 0.0000 -0.0493
v  -0.0000 0.0000 -0.0534
v  -0.0204 0.0000 -0.0493
v  -0.0378 0.0000 -0.0378
v  -0.0493 0.0000 -0.0204
v  -0.0534 0.0000 -0.0000
v  -0.0493 0.0000 0.0204
v  -0.0378 0.0000 0.0378
v  -0.0204 0.0000 0.0493
v  0.0000 0.0000 0.0534
v  0.0204 0.0000 0.0493
v  0.0378 0.0000 0.0378
v  0.0493 0.0000 0.0204
v  0.0000 0.0000 -0.0000
v  0.0417 0.2003 -0.0173
v  0.0451 0.2003 -0.0000
v  0.0738 0.1697 0.0000
v  0.0682 0.1697 -0.0282
v  0.0319 0.2003 -0.0319
v  0.0522 0.1697 -0.0522
v  0.0173 0.2003 -0.0417
v  0.0282 0.1697 -0.0682
v  -0.0000 0.2003 -0.0451
v  -0.0000 0.1697 -0.0738
v  -0.0173 0.2003 -0.0417
v  -0.0282 0.1697 -0.0682
v  -0.0319 0.2003 -0.0319
v  -0.0522 0.1697 -0.0522
v  -0.0417 0.2003 -0.0173
v  -0.0682 0.1697 -0.0282
v  -0.0451 0.2003 -0.0000
v  -0.0738 0.1697 -0.0000
v  -0.0417 0.2003 0.0173
v  -0.0682 0.1697 0.0282
v  -0.0319 0.2003 0.0319
v  -0.0522 0.1697 0.0522
v  -0.0173 0.2003 0.0417
v  -0.0282 0.1697 0.0682
v  -0.0000 0.2003 0.0451
v  0.0000 0.1697 0.0738
v  0.0173 0.2003 0.0417
v  0.0282 0.1697 0.0682
v  0.0319 0.2003 0.0319
v  0.0522 0.1697 0.0522
v  0.0417 0.2003 0.0173
v  0.0682 0.1697 0.0282
v  0.0575 0.2148 -0.0238
v  0.0622 0.2148 -0.0000
v  0.0440 0.2148 -0.0440
v  0.0238 0.2148 -0.0575
v  -0.0000 0.2148 -0.0622
v  -0.0238 0.2148 -0.0575
v  -0.0440 0.2148 -0.0440
v  -0.0575 0.2148 -0.0238
v  -0.0622 0.2148 -0.0000
v  -0.0575 0.2148 0.0238
v  -0.0440 0.2148 0.0440
v  -0.0238 0.2148 0.0575
v  -0.0000 0.2148 0.0622
v  0.0238 0.2148 0.0575
v  0.0440 0.2148 0.0440
v  0.0575 0.2148 0.0238
v  0.0504 0.2302 -0.0000
v  0.0466 0.2302 -0.0193
v  0.0357 0.2302 -0.0357
v  0.0193 0.2302 -0.0466
v  -0.0000 0.2302 -0.0504
v  -0.0193 0.2302 -0.0466
v  -0.0357 0.2302 -0.0357
v  -0.0466 0.2302 -0.0193
v  -0.0504 0.2302 -0.0000
v  -0.0466 0.2302 0.0193
v  -0.0357 0.2302 0.0357
v  -0.0193 0.2302 0.0466
v  -0.0000 0.2302 0.0504
v  0.0193 0.2302 0.0466
v  0.0357 0.2302 0.0357
v  0.0466 0.2302 0.0193
# 129 vertices

vn 0.9499 -0.3125 -0.0000
vn 0.8776 -0.3125 -0.3635
vn 0.9219 -0.0648 -0.3819
vn 0.9979 -0.0648 -0.0000
vn 0.6717 -0.3125 -0.6717
vn 0.7056 -0.0648 -0.7056
vn 0.3635 -0.3125 -0.8776
vn 0.3819 -0.0648 -0.9219
vn -0.0000 -0.3125 -0.9499
vn -0.0000 -0.0648 -0.9979
vn -0.3635 -0.3125 -0.8776
vn -0.3819 -0.0648 -0.9219
vn -0.6717 -0.3125 -0.6717
vn -0.7056 -0.0648 -0.7056
vn -0.8776 -0.3125 -0.3635
vn -0.9219 -0.0648 -0.3819
vn -0.9499 -0.3125 -0.0000
vn -0.9979 -0.0648 -0.0000
vn -0.8776 -0.3125 0.3635
vn -0.9219 -0.0648 0.3819
vn -0.6717 -0.3125 0.6717
vn -0.7056 -0.0648 0.7056
vn -0.3635 -0.3125 0.8776
vn -0.3819 -0.0648 0.9219
vn 0.0000 -0.3125 0.9499
vn 0.0000 -0.0648 0.9979
vn 0.3635 -0.3125 0.8776
vn 0.3819 -0.0648 0.9219
vn 0.6717 -0.3125 0.6717
vn 0.7056 -0.0648 0.7056
vn 0.8776 -0.3125 0.3635
vn 0.9219 -0.0648 0.3819
vn 0.9239 0.0074 -0.3827
vn 1.0000 0.0074 -0.0000
vn 0.7071 0.0074 -0.7071
vn 0.3827 0.0074 -0.9239
vn -0.0000 0.0074 -1.0000
vn -0.3827 0.0074 -0.9239
vn -0.7071 0.0074 -0.7071
vn -0.9239 0.0074 -0.3827
vn -1.0000 0.0074 -0.0000
vn -0.9239 0.0074 0.3827
vn -0.7071 0.0074 0.7071
vn -0.3827 0.0074 0.9239
vn 0.0000 0.0074 1.0000
vn 0.3827 0.0074 0.9239
vn 0.7071 0.0074 0.7071
vn 0.9239 0.0074 0.3827
vn 0.4232 -0.9060 -0.0000
vn 0.3910 -0.9060 -0.1620
vn 0.2993 -0.9060 -0.2993
vn 0.1620 -0.9060 -0.3910
vn -0.0000 -0.9060 -0.4232
vn -0.1620 -0.9060 -0.3910
vn -0.2993 -0.9060 -0.2993
vn -0.3910 -0.9060 -0.1620
vn -0.4232 -0.9060 -0.0000
vn -0.3910 -0.9060 0.1620
vn -0.2993 -0.9060 0.2993
vn -0.1620 -0.9060 0.3910
vn 0.0000 -0.9060 0.4232
vn 0.1620 -0.9060 0.3910
vn 0.2993 -0.9060 0.2993
vn 0.3910 -0.9060 0.1620
vn 0.0000 -1.0000 -0.0000
vn 0.9221 -0.0620 -0.3819
vn 0.9981 -0.0620 -0.0000
vn 0.8819 0.4715 -0.0000
vn 0.8147 0.4715 -0.3375
vn 0.7057 -0.0620 -0.7057
vn 0.6236 0.4715 -0.6236
vn 0.3819 -0.0620 -0.9221
vn 0.3375 0.4715 -0.8147
vn 0.0000 -0.0620 -0.9981
vn -0.0000 0.4715 -0.8819
vn -0.3819 -0.0620 -0.9221
vn -0.3375 0.4715 -0.8147
vn -0.7057 -0.0620 -0.7057
vn -0.6236 0.4715 -0.6236
vn -0.9221 -0.0620 -0.3819
vn -0.8147 0.4715 -0.3375
vn -0.9981 -0.0620 -0.0000
vn -0.8819 0.4715 -0.0000
vn -0.9221 -0.0620 0.3819
vn -0.8147 0.4715 0.3375
vn -0.7057 -0.0620 0.7057
vn -0.6236 0.4715 0.6236
vn -0.3819 -0.0620 0.9221
vn -0.3375 0.4715 0.8147
vn -0.0000 -0.0620 0.9981
vn 0.0000 0.4715 0.8819
vn 0.3819 -0.0620 0.9221
vn 0.3375 0.4715 0.8147
vn 0.7057 -0.0620 0.7057
vn 0.6236 0.4715 0.6236
vn 0.9221 -0.0620 0.3819
vn 0.8147 0.4715 0.3375
vn 0.9195 -0.0974 -0.3809
vn 0.9952 -0.0974 -0.0000
vn 0.7037 -0.0974 -0.7037
vn 0.3809 -0.0974 -0.9195
vn 0.0000 -0.0974 -0.9952
vn -0.3809 -0.0974 -0.9195
vn -0.7037 -0.0974 -0.7037
vn -0.9195 -0.0974 -0.3809
vn -0.9952 -0.0974 -0.0000
vn -0.9195 -0.0974 0.3809
vn -0.7037 -0.0974 0.7037
vn -0.3809 -0.0974 0.9195
vn -0.0000 -0.0974 0.9952
vn 0.3809 -0.0974 0.9195
vn 0.7037 -0.0974 0.7037
vn 0.9195 -0.0974 0.3809
vn 0.7928 0.6095 -0.0000
vn 0.7324 0.6095 -0.3034
vn 0.5606 0.6095 -0.5606
vn 0.3034 0.6095 -0.7324
vn 0.0000 0.6095 -0.7928
vn -0.3034 0.6095 -0.7324
vn -0.5606 0.6095 -0.5606
vn -0.7324 0.6095 -0.3034
vn -0.7928 0.6095 -0.0000
vn -0.7324 0.6095 0.3034
vn -0.5606 0.6095 0.5606
vn -0.3034 0.6095 0.7324
vn -0.0000 0.6095 0.7928
vn 0.3034 0.6095 0.7324
vn 0.5606 0.6095 0.5606
vn 0.7324 0.6095 0.3034
# 129 vertex normals

vt 0.7500 0.0512 1.0000
vt 0.8125 0.0512 1.0000
vt 0.8125 0.3333 1.0000
vt 0.7500 0.3333 1.0000
vt 0.8750 0.0512 1.0000
vt 0.8750 0.3333 1.0000
vt 0.9375 0.0512 1.0000
vt 0.9375 0.3333 1.0000
vt 1.0000 0.0512 1.0000
vt 1.0000 0.3333 1.0000
vt 0.0000 0.0512 1.0000
vt 0.0625 0.0512 1.0000
vt 0.0625 0.3333 1.0000
vt 0.0000 0.3333 1.0000
vt 0.1250 0.0512 1.0000
vt 0.1250 0.3333 1.0000
vt 0.1875 0.0512 1.0000
vt 0.1875 0.3333 1.0000
vt 0.2500 0.0512 1.0000
vt 0.2500 0.3333 1.0000
vt 0.3125 0.0512 1.0000
vt 0.3125 0.3333 1.0000
vt 0.3750 0.0512 1.0000
vt 0.3750 0.3333 1.0000
vt 0.4375 0.0512 1.0000
vt 0.4375 0.3333 1.0000
vt 0.5000 0.0512 1.0000
vt 0.5000 0.3333 1.0000
vt 0.5625 0.0512 1.0000
vt 0.5625 0.3333 1.0000
vt 0.6250 0.0512 1.0000
vt 0.6250 0.3333 1.0000
vt 0.6875 0.0512 1.0000
vt 0.6875 0.3333 1.0000
vt 0.8125 0.6332 1.0000
vt 0.7500 0.6332 1.0000
vt 0.8750 0.6332 1.0000
vt 0.9375 0.6332 1.0000
vt 1.0000 0.6332 1.0000
vt 0.0625 0.6332 1.0000
vt 0.0000 0.6332 1.0000
vt 0.1250 0.6332 1.0000
vt 0.1875 0.6332 1.0000
vt 0.2500 0.6332 1.0000
vt 0.3125 0.6332 1.0000
vt 0.3750 0.6332 1.0000
vt 0.4375 0.6332 1.0000
vt 0.5000 0.6332 1.0000
vt 0.5625 0.6332 1.0000
vt 0.6250 0.6332 1.0000
vt 0.6875 0.6332 1.0000
vt 0.5227 0.8944 -0.2500
vt 0.5000 0.9292 -0.2500
vt 0.3358 0.8965 -0.2500
vt 0.3281 0.8557 -0.2500
vt 0.3700 0.8731 -0.2500
vt 0.1965 0.8035 -0.2500
vt 0.2051 0.7628 -0.2500
vt 0.2372 0.7949 -0.2500
vt 0.1035 0.6642 -0.2500
vt 0.1269 0.6300 -0.2500
vt 0.1443 0.6719 -0.2500
vt 0.0708 0.5000 -0.2500
vt 0.1056 0.4773 -0.2500
vt 0.1056 0.5227 -0.2500
vt 0.1035 0.3358 -0.2500
vt 0.1443 0.3281 -0.2500
vt 0.1269 0.3700 -0.2500
vt 0.1965 0.1965 -0.2500
vt 0.2372 0.2051 -0.2500
vt 0.2051 0.2372 -0.2500
vt 0.3358 0.1035 -0.2500
vt 0.3700 0.1269 -0.2500
vt 0.3281 0.1443 -0.2500
vt 0.5000 0.0708 -0.2500
vt 0.5227 0.1056 -0.2500
vt 0.4773 0.1056 -0.2500
vt 0.6642 0.1035 -0.2500
vt 0.6719 0.1443 -0.2500
vt 0.6300 0.1269 -0.2500
vt 0.8035 0.1965 -0.2500
vt 0.7949 0.2372 -0.2500
vt 0.7628 0.2051 -0.2500
vt 0.8965 0.3358 -0.2500
vt 0.8731 0.3700 -0.2500
vt 0.8557 0.3281 -0.2500
vt 0.9292 0.5000 -0.2500
vt 0.8944 0.5227 -0.2500
vt 0.8944 0.4773 -0.2500
vt 0.8965 0.6642 -0.2500
vt 0.8557 0.6719 -0.2500
vt 0.8731 0.6300 -0.2500
vt 0.8035 0.8035 -0.2500
vt 0.7628 0.7949 -0.2500
vt 0.7949 0.7628 -0.2500
vt 0.6642 0.8965 -0.2500
vt 0.6300 0.8731 -0.2500
vt 0.6719 0.8557 -0.2500
vt 0.4773 0.8944 -0.2500
vt 0.5000 0.5000 -0.2500
vt 0.8125 1.0000 1.0000
vt 0.7500 1.0000 1.0000
vt 0.7500 0.7308 1.0000
vt 0.8125 0.7308 1.0000
vt 0.8750 1.0000 1.0000
vt 0.8750 0.7308 1.0000
vt 0.9375 1.0000 1.0000
vt 0.9375 0.7308 1.0000
vt 1.0000 1.0000 1.0000
vt 1.0000 0.7308 1.0000
vt 0.0625 1.0000 1.0000
vt 0.0000 1.0000 1.0000
vt 0.0000 0.7308 1.0000
vt 0.0625 0.7308 1.0000
vt 0.1250 1.0000 1.0000
vt 0.1250 0.7308 1.0000
vt 0.1875 1.0000 1.0000
vt 0.1875 0.7308 1.0000
vt 0.2500 1.0000 1.0000
vt 0.2500 0.7308 1.0000
vt 0.3125 1.0000 1.0000
vt 0.3125 0.7308 1.0000
vt 0.3750 1.0000 1.0000
vt 0.3750 0.7308 1.0000
vt 0.4375 1.0000 1.0000
vt 0.4375 0.7308 1.0000
vt 0.5000 1.0000 1.0000
vt 0.5000 0.7308 1.0000
vt 0.5625 1.0000 1.0000
vt 0.5625 0.7308 1.0000
vt 0.6250 1.0000 1.0000
vt 0.6250 0.7308 1.0000
vt 0.6875 1.0000 1.0000
vt 0.6875 0.7308 1.0000
vt 0.3087 0.9619 0.2500
vt 0.5000 1.0000 0.2500
vt 0.1464 0.8536 0.2500
vt 0.0381 0.6913 0.2500
vt 0.0000 0.5000 0.2500
vt 0.0381 0.3087 0.2500
vt 0.1464 0.1464 0.2500
vt 0.3087 0.0381 0.2500
vt 0.5000 0.0000 0.2500
vt 0.6913 0.0381 0.2500
vt 0.8536 0.1464 0.2500
vt 0.9619 0.3087 0.2500
vt 1.0000 0.5000 0.2500
vt 0.9619 0.6913 0.2500
vt 0.8536 0.8536 0.2500
vt 0.6913 0.9619 0.2500
# 150 texture coords

g glass
s 1
f 1/1/1 2/2/2 3/3/3 4/4/4 
f 2/2/2 5/5/5 6/6/6 3/3/3 
f 5/5/5 7/7/7 8/8/8 6/6/6 
f 7/7/7 9/9/9 10/10/10 8/8/8 
f 9/11/9 11/12/11 12/13/12 10/14/10 
f 11/12/11 13/15/13 14/16/14 12/13/12 
f 13/15/13 15/17/15 16/18/16 14/16/14 
f 15/17/15 17/19/17 18/20/18 16/18/16 
f 17/19/17 19/21/19 20/22/20 18/20/18 
f 19/21/19 21/23/21 22/24/22 20/22/20 
f 21/23/21 23/25/23 24/26/24 22/24/22 
f 23/25/23 25/27/25 26/28/26 24/26/24 
f 25/27/25 27/29/27 28/30/28 26/28/26 
f 27/29/27 29/31/29 30/32/30 28/30/28 
f 29/31/29 31/33/31 32/34/32 30/32/30 
f 31/33/31 1/1/1 4/4/4 32/34/32 
f 4/4/4 3/3/3 33/35/33 34/36/34 
f 6/6/6 35/37/35 33/35/33 3/3/3 
f 8/8/8 36/38/36 35/37/35 6/6/6 
f 10/10/10 37/39/37 36/38/36 8/8/8 
f 12/13/12 38/40/38 37/41/37 10/14/10 
f 14/16/14 39/42/39 38/40/38 12/13/12 
f 16/18/16 40/43/40 39/42/39 14/16/14 
f 18/20/18 41/44/41 40/43/40 16/18/16 
f 20/22/20 42/45/42 41/44/41 18/20/18 
f 22/24/22 43/46/43 42/45/42 20/22/20 
f 24/26/24 44/47/44 43/46/43 22/24/22 
f 26/28/26 45/48/45 44/47/44 24/26/24 
f 28/30/28 46/49/46 45/48/45 26/28/26 
f 30/32/30 47/50/47 46/49/46 28/30/28 
f 32/34/32 48/51/48 47/50/47 30/32/30 
f 4/4/4 34/36/34 48/51/48 32/34/32 
f 1/52/1 49/53/49 50/54/50 2/55/2 
f 2/56/2 50/54/50 51/57/51 5/58/5 
f 5/59/5 51/57/51 52/60/52 7/61/7 
f 7/62/7 52/60/52 53/63/53 9/64/9 
f 9/65/9 53/63/53 54/66/54 11/67/11 
f 11/68/11 54/66/54 55/69/55 13/70/13 
f 13/71/13 55/69/55 56/72/56 15/73/15 
f 15/74/15 56/72/56 57/75/57 17/76/17 
f 17/77/17 57/75/57 58/78/58 19/79/19 
f 19/80/19 58/78/58 59/81/59 21/82/21 
f 21/83/21 59/81/59 60/84/60 23/85/23 
f 23/86/23 60/84/60 61/87/61 25/88/25 
f 25/89/25 61/87/61 62/90/62 27/91/27 
f 27/92/27 62/90/62 63/93/63 29/94/29 
f 29/95/29 63/93/63 64/96/64 31/97/31 
f 31/98/31 64/96/64 49/53/49 1/99/1 
f 50/54/50 49/53/49 65/100/65 
f 49/53/49 64/96/64 65/100/65 
f 64/96/64 63/93/63 65/100/65 
f 63/93/63 62/90/62 65/100/65 
f 62/90/62 61/87/61 65/100/65 
f 61/87/61 60/84/60 65/100/65 
f 60/84/60 59/81/59 65/100/65 
f 59/81/59 58/78/58 65/100/65 
f 58/78/58 57/75/57 65/100/65 
f 57/75/57 56/72/56 65/100/65 
f 56/72/56 55/69/55 65/100/65 
f 55/69/55 54/66/54 65/100/65 
f 54/66/54 53/63/53 65/100/65 
f 53/63/53 52/60/52 65/100/65 
f 52/60/52 51/57/51 65/100/65 
f 51/57/51 50/54/50 65/100/65 
f 66/101/66 67/102/67 68/103/68 69/104/69 
f 70/105/70 66/101/66 69/104/69 71/106/71 
f 72/107/72 70/105/70 71/106/71 73/108/73 
f 74/109/74 72/107/72 73/108/73 75/110/75 
f 76/111/76 74/112/74 75/113/75 77/114/77 
f 78/115/78 76/111/76 77/114/77 79/116/79 
f 80/117/80 78/115/78 79/116/79 81/118/81 
f 82/119/82 80/117/80 81/118/81 83/120/83 
f 84/121/84 82/119/82 83/120/83 85/122/85 
f 86/123/86 84/121/84 85/122/85 87/124/87 
f 88/125/88 86/123/86 87/124/87 89/126/89 
f 90/127/90 88/125/88 89/126/89 91/128/91 
f 92/129/92 90/127/90 91/128/91 93/130/93 
f 94/131/94 92/129/92 93/130/93 95/132/95 
f 96/133/96 94/131/94 95/132/95 97/134/97 
f 67/102/67 96/133/96 97/134/97 68/103/68 
f 98/135/98 99/136/99 67/136/67 66/135/66 
f 100/137/100 98/135/98 66/135/66 70/137/70 
f 101/138/101 100/137/100 70/137/70 72/138/72 
f 102/139/102 101/138/101 72/138/72 74/139/74 
f 103/140/103 102/139/102 74/139/74 76/140/76 
f 104/141/104 103/140/103 76/140/76 78/141/78 
f 105/142/105 104/141/104 78/141/78 80/142/80 
f 106/143/106 105/142/105 80/142/80 82/143/82 
f 107/144/107 106/143/106 82/143/82 84/144/84 
f 108/145/108 107/144/107 84/144/84 86/145/86 
f 109/146/109 108/145/108 86/145/86 88/146/88 
f 110/147/110 109/146/109 88/146/88 90/147/90 
f 111/148/111 110/147/110 90/147/90 92/148/92 
f 112/149/112 111/148/111 92/148/92 94/149/94 
f 113/150/113 112/149/112 94/149/94 96/150/96 
f 99/136/99 113/150/113 96/150/96 67/136/67 
f 114/136/114 99/136/99 98/135/98 115/135/115 
f 115/135/115 98/135/98 100/137/100 116/137/116 
f 116/137/116 100/137/100 101/138/101 117/138/117 
f 117/138/117 101/138/101 102/139/102 118/139/118 
f 118/139/118 102/139/102 103/140/103 119/140/119 
f 119/140/119 103/140/103 104/141/104 120/141/120 
f 120/141/120 104/141/104 105/142/105 121/142/121 
f 121/142/121 105/142/105 106/143/106 122/143/122 
f 122/143/122 106/143/106 107/144/107 123/144/123 
f 123/144/123 107/144/107 108/145/108 124/145/124 
f 124/145/124 108/145/108 109/146/109 125/146/125 
f 125/146/125 109/146/109 110/147/110 126/147/126 
f 126/147/126 110/147/110 111/148/111 127/148/127 
f 127/148/127 111/148/111 112/149/112 128/149/128 
f 128/149/128 112/149/112 113/150/113 129/150/129 
f 129/150/129 113/150/113 99/136/99 114/136/114 
f 33/35/33 69/104/69 68/103/68 34/36/34 
f 35/37/35 71/106/71 69/104/69 33/35/33 
f 36/38/36 73/108/73 71/106/71 35/37/35 
f 37/39/37 75/110/75 73/108/73 36/38/36 
f 38/40/38 77/114/77 75/113/75 37/41/37 
f 39/42/39 79/116/79 77/114/77 38/40/38 
f 40/43/40 81/118/81 79/116/79 39/42/39 
f 41/44/41 83/120/83 81/118/81 40/43/40 
f 42/45/42 85/122/85 83/120/83 41/44/41 
f 43/46/43 87/124/87 85/122/85 42/45/42 
f 44/47/44 89/126/89 87/124/87 43/46/43 
f 45/48/45 91/128/91 89/126/89 44/47/44 
f 46/49/46 93/130/93 91/128/91 45/48/45 
f 47/50/47 95/132/95 93/130/93 46/49/46 
f 48/51/48 97/134/97 95/132/95 47/50/47 
f 34/36/34 68/103/68 97/134/97 48/51/48 
# 112 polygons - 16 triangles

#
# object cork
#

v  0.0400 0.2044 0.0000
v  0.0370 0.2044 -0.0153
v  0.0448 0.2500 -0.0186
v  0.0485 0.2500 0.0000
v  0.0283 0.2044 -0.0283
v  0.0343 0.2500 -0.0343
v  0.0153 0.2044 -0.0370
v  0.0186 0.2500 -0.0448
v  -0.0000 0.2044 -0.0400
v  -0.0000 0.2500 -0.0485
v  -0.0153 0.2044 -0.0370
v  -0.0186 0.2500 -0.0448
v  -0.0283 0.2044 -0.0283
v  -0.0343 0.2500 -0.0343
v  -0.0370 0.2044 -0.0153
v  -0.0448 0.2500 -0.0186
v  -0.0400 0.2044 -0.0000
v  -0.0485 0.2500 -0.0000
v  -0.0370 0.2044 0.0153
v  -0.0448 0.2500 0.0186
v  -0.0283 0.2044 0.0283
v  -0.0343 0.2500 0.0343
v  -0.0153 0.2044 0.0370
v  -0.0186 0.2500 0.0448
v  -0.0000 0.2044 0.0400
v  -0.0000 0.2500 0.0485
v  0.0153 0.2044 0.0370
v  0.0186 0.2500 0.0448
v  0.0283 0.2044 0.0283
v  0.0343 0.2500 0.0343
v  0.0370 0.2044 0.0153
v  0.0448 0.2500 0.0186
v  -0.0000 0.2500 0.0000
v  0.0000 0.1944 -0.0000
# 34 vertices

vn 0.9710 -0.2390 -0.0000
vn 0.8971 -0.2390 -0.3716
vn 0.6866 -0.2390 -0.6866
vn 0.3716 -0.2390 -0.8971
vn -0.0000 -0.2390 -0.9710
vn -0.3716 -0.2390 -0.8971
vn -0.6866 -0.2390 -0.6866
vn -0.8971 -0.2390 -0.3716
vn -0.9710 -0.2390 -0.0000
vn -0.8971 -0.2390 0.3716
vn -0.6866 -0.2390 0.6866
vn -0.3716 -0.2390 0.8971
vn -0.0000 -0.2390 0.9710
vn 0.3716 -0.2390 0.8971
vn 0.6866 -0.2390 0.6866
vn 0.8971 -0.2390 0.3716
vn -0.0000 1.0000 0.0000
vn 0.0000 1.0000 0.0000
vn 0.0000 1.0000 -0.0000
vn -0.0000 1.0000 -0.0000
vn 0.1857 -0.9819 -0.0369
vn 0.1857 -0.9819 0.0369
vn 0.1574 -0.9819 0.1052
vn 0.1052 -0.9819 0.1574
vn 0.0369 -0.9819 0.1857
vn -0.0369 -0.9819 0.1857
vn -0.1052 -0.9819 0.1574
vn -0.1574 -0.9819 0.1052
vn -0.1857 -0.9819 0.0369
vn -0.1857 -0.9819 -0.0369
vn -0.1574 -0.9819 -0.1052
vn -0.1052 -0.9819 -0.1574
vn -0.0369 -0.9819 -0.1857
vn 0.0369 -0.9819 -0.1857
vn 0.1052 -0.9819 -0.1574
vn 0.1574 -0.9819 -0.1052
# 36 vertex normals

vt 0.5000 1.0000 0.2500
vt 0.3087 0.9619 0.2500
vt 0.1464 0.8536 0.2500
vt 0.0381 0.6913 0.2500
vt 0.0000 0.5000 0.2500
vt 0.0381 0.3087 0.2500
vt 0.1464 0.1464 0.2500
vt 0.3087 0.0381 0.2500
vt 0.5000 0.0000 0.2500
vt 0.6913 0.0381 0.2500
vt 0.8536 0.1464 0.2500
vt 0.9619 0.3087 0.2500
vt 1.0000 0.5000 0.2500
vt 0.9619 0.6913 0.2500
vt 0.8536 0.8536 0.2500
vt 0.6913 0.9619 0.2500
vt 0.5000 0.5000 0.2500
# 17 texture coords

g cork
s 1
f 130/151/130 131/152/131 132/152/131 133/151/130 
f 131/152/131 134/153/132 135/153/132 132/152/131 
f 134/153/132 136/154/133 137/154/133 135/153/132 
f 136/154/133 138/155/134 139/155/134 137/154/133 
f 138/155/134 140/156/135 141/156/135 139/155/134 
f 140/156/135 142/157/136 143/157/136 141/156/135 
f 142/157/136 144/158/137 145/158/137 143/157/136 
f 144/158/137 146/159/138 147/159/138 145/158/137 
f 146/159/138 148/160/139 149/160/139 147/159/138 
f 148/160/139 150/161/140 151/161/140 149/160/139 
f 150/161/140 152/162/141 153/162/141 151/161/140 
f 152/162/141 154/163/142 155/163/142 153/162/141 
f 154/163/142 156/164/143 157/164/143 155/163/142 
f 156/164/143 158/165/144 159/165/144 157/164/143 
f 158/165/144 160/166/145 161/166/145 159/165/144 
f 160/166/145 130/151/130 133/151/130 161/166/145 
s off
f 133/151/146 132/152/146 162/167/146 
f 132/152/146 135/153/146 162/167/146 
f 135/153/146 137/154/146 162/167/146 
f 137/154/146 139/155/146 162/167/146 
f 139/155/147 141/156/147 162/167/147 
f 141/156/147 143/157/147 162/167/147 
f 143/157/147 145/158/147 162/167/147 
f 145/158/147 147/159/147 162/167/147 
f 147/159/148 149/160/148 162/167/148 
f 149/160/147 151/161/147 162/167/147 
f 151/161/148 153/162/148 162/167/148 
f 153/162/148 155/163/148 162/167/148 
f 155/163/149 157/164/149 162/167/149 
f 157/164/149 159/165/149 162/167/149 
f 159/165/146 161/166/146 162/167/146 
f 161/166/149 133/151/149 162/167/149 
f 131/152/150 130/151/150 163/167/150 
f 130/151/151 160/166/151 163/167/151 
f 160/166/152 158/165/152 163/167/152 
f 158/165/153 156/164/153 163/167/153 
f 156/164/154 154/163/154 163/167/154 
f 154/163/155 152/162/155 163/167/155 
f 152/162/156 150/161/156 163/167/156 
f 150/161/157 148/160/157 163/167/157 
f 148/160/158 146/159/158 163/167/158 
f 146/159/159 144/158/159 163/167/159 
f 144/158/160 142/157/160 163/167/160 
f 142/157/161 140/156/161 163/167/161 
f 140/156/162 138/155/162 163/167/162 
f 138/155/163 136/154/163 163/167/163 
f 136/154/164 134/153/164 163/167/164 
f 134/153/165 131/152/165 163/167/165 
# 16 polygons - 32 triangles

