# 3ds Max Wavefront OBJ Exporter v0.97b - (c)2007 guruware
# File Created: 23.08.2015 21:12:56

#
# object mattress
#

v  -1.1973 0.0372 1.1973
v  -1.2090 0.0211 0.4620
v  -0.4661 0.0477 0.4661
v  -0.4620 0.0211 1.2090
v  0.4661 0.0477 0.4661
v  0.4620 0.0211 1.2090
v  1.2090 0.0211 0.4620
v  1.1973 0.0372 1.1973
v  -1.2090 0.0211 -0.4620
v  -0.4661 0.0477 -0.4661
v  0.4661 0.0477 -0.4661
v  1.2090 0.0211 -0.4620
v  -1.1973 0.0372 -1.1973
v  -0.4620 0.0211 -1.2090
v  0.4620 0.0211 -1.2090
v  1.1973 0.0372 -1.1973
v  -1.1973 0.4628 1.1973
v  -0.4620 0.4789 1.2090
v  -0.4661 0.4523 0.4661
v  -1.2090 0.4789 0.4620
v  0.4620 0.4789 1.2090
v  0.4661 0.4523 0.4661
v  1.1973 0.4628 1.1973
v  1.2090 0.4789 0.4620
v  -0.4661 0.4523 -0.4661
v  -1.2090 0.4789 -0.4620
v  0.4661 0.4523 -0.4661
v  1.2090 0.4789 -0.4620
v  -0.4620 0.4789 -1.2090
v  -1.1973 0.4628 -1.1973
v  0.4620 0.4789 -1.2090
v  1.1973 0.4628 -1.1973
v  -1.1524 0.1536 1.3670
v  -0.4416 0.1531 1.3988
v  -0.4319 0.2500 1.3872
v  -1.1282 0.2500 1.3550
v  0.4416 0.1531 1.3988
v  0.4319 0.2500 1.3872
v  1.1524 0.1536 1.3670
v  1.1282 0.2500 1.3550
v  -0.4416 0.3469 1.3988
v  -1.1524 0.3464 1.3670
v  0.4416 0.3469 1.3988
v  1.1524 0.3464 1.3670
v  1.3670 0.1536 1.1524
v  1.3988 0.1531 0.4416
v  1.3872 0.2500 0.4319
v  1.3550 0.2500 1.1282
v  1.3988 0.1531 -0.4416
v  1.3872 0.2500 -0.4319
v  1.3670 0.1536 -1.1524
v  1.3550 0.2500 -1.1282
v  1.3988 0.3469 0.4416
v  1.3670 0.3464 1.1524
v  1.3988 0.3469 -0.4416
v  1.3670 0.3464 -1.1524
v  1.1524 0.1536 -1.3670
v  0.4416 0.1531 -1.3988
v  0.4319 0.2500 -1.3872
v  1.1282 0.2500 -1.3550
v  -0.4416 0.1531 -1.3988
v  -0.4319 0.2500 -1.3872
v  -1.1524 0.1536 -1.3670
v  -1.1282 0.2500 -1.3550
v  0.4416 0.3469 -1.3988
v  1.1524 0.3464 -1.3670
v  -0.4416 0.3469 -1.3988
v  -1.1524 0.3464 -1.3670
v  -1.3670 0.1536 -1.1524
v  -1.3988 0.1531 -0.4416
v  -1.3872 0.2500 -0.4319
v  -1.3550 0.2500 -1.1282
v  -1.3988 0.1531 0.4416
v  -1.3872 0.2500 0.4319
v  -1.3670 0.1536 1.1524
v  -1.3550 0.2500 1.1282
v  -1.3988 0.3469 -0.4416
v  -1.3670 0.3464 -1.1524
v  -1.3988 0.3469 0.4416
v  -1.3670 0.3464 1.1524
v  -1.1730 0.0876 1.3271
v  -1.2738 0.0876 1.2738
v  -1.3271 0.0876 1.1730
v  1.3271 0.0876 1.1730
v  1.2738 0.0876 1.2738
v  1.1730 0.0876 1.3271
v  -1.3271 0.0876 -1.1730
v  -1.2738 0.0876 -1.2738
v  -1.1730 0.0876 -1.3271
v  1.1730 0.0876 -1.3271
v  1.2738 0.0876 -1.2738
v  1.3271 0.0876 -1.1730
v  -1.3271 0.4124 1.1730
v  -1.2738 0.4124 1.2738
v  -1.1730 0.4124 1.3271
v  1.1730 0.4124 1.3271
v  1.2738 0.4124 1.2738
v  1.3271 0.4124 1.1730
v  -1.1730 0.4124 -1.3271
v  -1.2738 0.4124 -1.2738
v  -1.3271 0.4124 -1.1730
v  1.3271 0.4124 -1.1730
v  1.2738 0.4124 -1.2738
v  1.1730 0.4124 -1.3271
v  -1.3588 0.0843 0.4502
v  -0.4502 0.0843 1.3588
v  0.4502 0.0843 1.3588
v  1.3588 0.0843 0.4502
v  -1.3588 0.0843 -0.4502
v  1.3588 0.0843 -0.4502
v  -0.4502 0.0843 -1.3588
v  0.4502 0.0843 -1.3588
v  -0.4502 0.4157 1.3588
v  -1.3588 0.4157 0.4502
v  0.4502 0.4157 1.3588
v  1.3588 0.4157 0.4502
v  -1.3588 0.4157 -0.4502
v  1.3588 0.4157 -0.4502
v  -0.4502 0.4157 -1.3588
v  0.4502 0.4157 -1.3588
v  -1.2651 0.2500 1.2651
v  -1.2836 0.1536 1.2836
v  1.2836 0.1536 1.2836
v  1.2651 0.2500 1.2651
v  -1.2836 0.3464 1.2836
v  1.2836 0.3464 1.2836
v  1.2836 0.1536 -1.2836
v  1.2651 0.2500 -1.2651
v  1.2836 0.3464 -1.2836
v  -1.2836 0.1536 -1.2836
v  -1.2651 0.2500 -1.2651
v  -1.2836 0.3464 -1.2836
# 132 vertices

vn -0.1781 -0.9681 0.1763
vn -0.1821 -0.9832 0.0125
vn 0.0107 -0.9999 -0.0107
vn -0.0113 -0.9834 0.1812
vn -0.0180 -0.9997 -0.0180
vn 0.0053 -0.9820 0.1890
vn 0.1882 -0.9821 0.0041
vn 0.1837 -0.9653 0.1855
vn -0.1882 -0.9821 -0.0041
vn 0.0180 -0.9997 0.0180
vn -0.0107 -0.9999 0.0107
vn 0.1821 -0.9832 -0.0125
vn -0.1837 -0.9653 -0.1855
vn -0.0053 -0.9820 -0.1890
vn 0.0113 -0.9834 -0.1812
vn 0.1781 -0.9681 -0.1763
vn -0.1763 0.9681 0.1781
vn -0.0125 0.9832 0.1821
vn 0.0107 0.9999 -0.0107
vn -0.1812 0.9834 0.0113
vn 0.0041 0.9821 0.1882
vn -0.0180 0.9997 -0.0180
vn 0.1855 0.9653 0.1837
vn 0.1890 0.9820 0.0053
vn 0.0180 0.9997 0.0180
vn -0.1890 0.9820 -0.0053
vn -0.0107 0.9999 0.0107
vn 0.1812 0.9834 -0.0113
vn -0.0041 0.9821 -0.1882
vn -0.1855 0.9653 -0.1837
vn 0.0125 0.9832 -0.1821
vn 0.1763 0.9681 -0.1781
vn -0.2903 -0.1276 0.9484
vn -0.0219 -0.1994 0.9797
vn -0.0214 0.0002 0.9998
vn -0.2752 0.0004 0.9614
vn 0.0226 -0.1993 0.9797
vn 0.0214 -0.0002 0.9998
vn 0.2896 -0.1277 0.9486
vn 0.2752 -0.0004 0.9614
vn -0.0226 0.1993 0.9797
vn -0.2820 0.1228 0.9515
vn 0.0219 0.1994 0.9797
vn 0.2826 0.1226 0.9514
vn 0.9484 -0.1276 0.2903
vn 0.9797 -0.1994 0.0219
vn 0.9998 0.0002 0.0214
vn 0.9614 0.0004 0.2752
vn 0.9797 -0.1993 -0.0226
vn 0.9998 -0.0002 -0.0214
vn 0.9486 -0.1277 -0.2896
vn 0.9614 -0.0004 -0.2752
vn 0.9797 0.1993 0.0226
vn 0.9515 0.1228 0.2820
vn 0.9797 0.1994 -0.0219
vn 0.9514 0.1226 -0.2826
vn 0.2903 -0.1276 -0.9484
vn 0.0219 -0.1994 -0.9797
vn 0.0214 0.0002 -0.9998
vn 0.2752 0.0004 -0.9614
vn -0.0226 -0.1993 -0.9797
vn -0.0214 -0.0002 -0.9998
vn -0.2896 -0.1277 -0.9486
vn -0.2752 -0.0004 -0.9614
vn 0.0226 0.1993 -0.9797
vn 0.2820 0.1228 -0.9515
vn -0.0219 0.1994 -0.9797
vn -0.2826 0.1226 -0.9514
vn -0.9484 -0.1276 -0.2903
vn -0.9797 -0.1994 -0.0219
vn -0.9998 0.0002 -0.0214
vn -0.9614 0.0004 -0.2752
vn -0.9797 -0.1993 0.0226
vn -0.9998 -0.0002 0.0214
vn -0.9486 -0.1277 0.2896
vn -0.9614 -0.0004 0.2752
vn -0.9797 0.1993 -0.0226
vn -0.9515 0.1228 -0.2820
vn -0.9797 0.1994 0.0219
vn -0.9514 0.1226 0.2826
vn -0.2376 -0.6826 0.6911
vn -0.5741 -0.5838 0.5741
vn -0.6906 -0.6837 0.2359
vn 0.6911 -0.6826 0.2376
vn 0.5741 -0.5838 0.5741
vn 0.2359 -0.6837 0.6906
vn -0.6911 -0.6826 -0.2376
vn -0.5741 -0.5838 -0.5741
vn -0.2359 -0.6837 -0.6906
vn 0.2376 -0.6826 -0.6911
vn 0.5741 -0.5838 -0.5741
vn 0.6906 -0.6837 -0.2359
vn -0.6836 0.6983 0.2120
vn -0.5647 0.6019 0.5647
vn -0.2103 0.6994 0.6831
vn 0.2120 0.6983 0.6836
vn 0.5647 0.6019 0.5647
vn 0.6831 0.6994 0.2103
vn -0.2120 0.6983 -0.6836
vn -0.5647 0.6019 -0.5647
vn -0.6831 0.6994 -0.2103
vn 0.6836 0.6983 -0.2120
vn 0.5647 0.6019 -0.5647
vn 0.2103 0.6994 -0.6831
vn -0.6634 -0.7481 0.0178
vn -0.0164 -0.7478 0.6637
vn 0.0178 -0.7481 0.6634
vn 0.6637 -0.7478 0.0164
vn -0.6637 -0.7478 -0.0164
vn 0.6634 -0.7481 -0.0178
vn -0.0178 -0.7481 -0.6634
vn 0.0164 -0.7478 -0.6637
vn -0.0178 0.7481 0.6634
vn -0.6637 0.7478 0.0164
vn 0.0164 0.7478 0.6637
vn 0.6634 0.7481 0.0178
vn -0.6634 0.7481 -0.0178
vn 0.6637 0.7478 -0.0164
vn -0.0164 0.7478 -0.6637
vn 0.0178 0.7481 -0.6634
vn -0.7071 0.0000 0.7071
vn -0.7071 0.0057 0.7071
vn 0.7071 0.0057 0.7071
vn 0.7071 0.0000 0.7071
vn -0.7068 -0.0275 0.7068
vn 0.7068 -0.0275 0.7068
vn 0.7071 0.0057 -0.7071
vn 0.7071 0.0000 -0.7071
vn 0.7068 -0.0275 -0.7068
vn -0.7071 0.0057 -0.7071
vn -0.7071 0.0000 -0.7071
vn -0.7068 -0.0275 -0.7068
# 132 vertex normals

vt 0.1526 0.8360 0.0000
vt 0.1528 0.6280 0.0000
vt 0.3630 0.6331 0.0000
vt 0.3604 0.8433 0.0000
vt 0.6267 0.6378 0.0000
vt 0.6218 0.8480 0.0000
vt 0.8369 0.6406 0.0000
vt 0.8297 0.8484 0.0000
vt 0.1576 0.3667 0.0000
vt 0.3678 0.3694 0.0000
vt 0.6315 0.3742 0.0000
vt 0.8417 0.3792 0.0000
vt 0.1648 0.1589 0.0000
vt 0.3727 0.1593 0.0000
vt 0.6341 0.1640 0.0000
vt 0.8418 0.1713 0.0000
vt 0.1599 0.1521 0.0000
vt 0.3697 0.1515 0.0000
vt 0.3660 0.3657 0.0000
vt 0.1539 0.3637 0.0000
vt 0.6353 0.1565 0.0000
vt 0.6338 0.3688 0.0000
vt 0.8466 0.1625 0.0000
vt 0.8475 0.3723 0.0000
vt 0.3632 0.6328 0.0000
vt 0.1489 0.6288 0.0000
vt 0.6309 0.6365 0.0000
vt 0.8431 0.6386 0.0000
vt 0.3610 0.8450 0.0000
vt 0.1494 0.8386 0.0000
vt 0.6263 0.8507 0.0000
vt 0.8367 0.8503 0.0000
vt 0.1732 0.0428 0.0000
vt 0.3780 0.0405 0.0000
vt 0.3800 0.0667 0.0000
vt 0.1774 0.0669 0.0000
vt 0.6326 0.0406 0.0000
vt 0.6299 0.0684 0.0000
vt 0.8370 0.0417 0.0000
vt 0.8318 0.0726 0.0000
vt 0.3768 0.0902 0.0000
vt 0.1712 0.0916 0.0000
vt 0.6315 0.0940 0.0000
vt 0.8359 0.1036 0.0000
vt 0.9583 0.1762 0.0000
vt 0.9587 0.3810 0.0000
vt 0.9326 0.3828 0.0000
vt 0.9334 0.1801 0.0000
vt 0.9572 0.6356 0.0000
vt 0.9298 0.6327 0.0000
vt 0.9556 0.8400 0.0000
vt 0.9253 0.8348 0.0000
vt 0.9090 0.3795 0.0000
vt 0.9078 0.1738 0.0000
vt 0.9044 0.6344 0.0000
vt 0.8950 0.8390 0.0000
vt 0.8225 0.9632 0.0000
vt 0.6177 0.9626 0.0000
vt 0.6161 0.9361 0.0000
vt 0.8187 0.9381 0.0000
vt 0.3632 0.9590 0.0000
vt 0.3663 0.9316 0.0000
vt 0.1588 0.9561 0.0000
vt 0.1643 0.9261 0.0000
vt 0.6196 0.9126 0.0000
vt 0.8252 0.9127 0.0000
vt 0.3648 0.9058 0.0000
vt 0.1604 0.8961 0.0000
vt 0.0377 0.8254 0.0000
vt 0.0368 0.6206 0.0000
vt 0.0633 0.6187 0.0000
vt 0.0625 0.8213 0.0000
vt 0.0393 0.3661 0.0000
vt 0.0668 0.3691 0.0000
vt 0.0415 0.1617 0.0000
vt 0.0716 0.1672 0.0000
vt 0.0871 0.6221 0.0000
vt 0.0877 0.8274 0.0000
vt 0.0932 0.3675 0.0000
vt 0.1014 0.1630 0.0000
vt 0.1574 0.8756 0.0000
vt 0.1283 0.8594 0.0000
vt 0.1131 0.8297 0.0000
vt 0.8694 0.8436 0.0000
vt 0.8531 0.8726 0.0000
vt 0.8235 0.8878 0.0000
vt 0.1252 0.1637 0.0000
vt 0.1414 0.1346 0.0000
vt 0.1711 0.1194 0.0000
vt 0.8370 0.1316 0.0000
vt 0.8661 0.1479 0.0000
vt 0.8813 0.1775 0.0000
vt 0.1231 0.1570 0.0000
vt 0.1333 0.1234 0.0000
vt 0.1639 0.1111 0.0000
vt 0.8418 0.1255 0.0000
vt 0.8758 0.1355 0.0000
vt 0.8879 0.1664 0.0000
vt 0.1544 0.8752 0.0000
vt 0.1206 0.8650 0.0000
vt 0.1087 0.8346 0.0000
vt 0.8737 0.8452 0.0000
vt 0.8634 0.8795 0.0000
vt 0.8327 0.8914 0.0000
vt 0.1067 0.6241 0.0000
vt 0.3626 0.8895 0.0000
vt 0.6179 0.8941 0.0000
vt 0.8831 0.6383 0.0000
vt 0.1115 0.3689 0.0000
vt 0.8877 0.3831 0.0000
vt 0.3766 0.1132 0.0000
vt 0.6318 0.1178 0.0000
vt 0.3735 0.1066 0.0000
vt 0.1108 0.3656 0.0000
vt 0.6333 0.1138 0.0000
vt 0.8922 0.3761 0.0000
vt 0.1038 0.6253 0.0000
vt 0.8854 0.6363 0.0000
vt 0.3630 0.8881 0.0000
vt 0.6230 0.8957 0.0000
vt 0.1281 0.0696 0.0000
vt 0.1284 0.0404 0.0000
vt 0.8805 0.0408 0.0000
vt 0.8793 0.0742 0.0000
vt 0.1267 0.1015 0.0000
vt 0.8797 0.1090 0.0000
vt 0.9568 0.8836 0.0000
vt 0.9238 0.8824 0.0000
vt 0.8896 0.8830 0.0000
vt 0.1153 0.9573 0.0000
vt 0.1167 0.9244 0.0000
vt 0.1165 0.8905 0.0000
vt 0.1654 0.0255 0.0000
vt 0.1322 0.0212 0.0000
vt 0.9756 0.1686 0.0000
vt 0.9608 0.1314 0.0000
vt 0.9801 0.1354 0.0000
vt 0.0207 0.8330 0.0000
vt 0.0356 0.8702 0.0000
vt 0.0164 0.8663 0.0000
vt 0.8301 0.9803 0.0000
vt 0.8673 0.9656 0.0000
vt 0.8633 0.9848 0.0000
vt 0.1071 0.1193 0.0000
vt 0.0186 0.1538 0.0000
vt 0.0144 0.3632 0.0000
vt 0.3748 0.0186 0.0000
vt 0.6352 0.0162 0.0000
vt 0.9809 0.3780 0.0000
vt 0.8447 0.0189 0.0000
vt 0.0149 0.6236 0.0000
vt 0.9817 0.6384 0.0000
vt 0.1509 0.9789 0.0000
vt 0.3602 0.9838 0.0000
vt 0.6206 0.9847 0.0000
vt 0.9783 0.8479 0.0000
vt 0.0732 0.1196 0.0000
vt 0.0404 0.1181 0.0000
vt 0.9310 0.1308 0.0000
vt 0.8983 0.1291 0.0000
vt 0.8680 0.9358 0.0000
vt 0.8699 0.9028 0.0000
vt 0.0653 0.8705 0.0000
vt 0.0979 0.8717 0.0000
vt 0.0184 0.1204 0.0000
vt 0.8782 0.0187 0.0000
vt 0.1175 0.9792 0.0000
vt 0.9787 0.8813 0.0000
# 168 texture coords

g mattress
s 1
f 1/1/1 2/2/2 3/3/3 4/4/4 
f 4/4/4 3/3/3 5/5/5 6/6/6 
f 6/6/6 5/5/5 7/7/7 8/8/8 
f 2/2/2 9/9/9 10/10/10 3/3/3 
f 3/3/3 10/10/10 11/11/11 5/5/5 
f 5/5/5 11/11/11 12/12/12 7/7/7 
f 9/9/9 13/13/13 14/14/14 10/10/10 
f 10/10/10 14/14/14 15/15/15 11/11/11 
f 11/11/11 15/15/15 16/16/16 12/12/12 
f 17/17/17 18/18/18 19/19/19 20/20/20 
f 18/18/18 21/21/21 22/22/22 19/19/19 
f 21/21/21 23/23/23 24/24/24 22/22/22 
f 20/20/20 19/19/19 25/25/25 26/26/26 
f 19/19/19 22/22/22 27/27/27 25/25/25 
f 22/22/22 24/24/24 28/28/28 27/27/27 
f 26/26/26 25/25/25 29/29/29 30/30/30 
f 25/25/25 27/27/27 31/31/31 29/29/29 
f 27/27/27 28/28/28 32/32/32 31/31/31 
f 33/33/33 34/34/34 35/35/35 36/36/36 
f 34/34/34 37/37/37 38/38/38 35/35/35 
f 37/37/37 39/39/39 40/40/40 38/38/38 
f 36/36/36 35/35/35 41/41/41 42/42/42 
f 35/35/35 38/38/38 43/43/43 41/41/41 
f 38/38/38 40/40/40 44/44/44 43/43/43 
f 45/45/45 46/46/46 47/47/47 48/48/48 
f 46/46/46 49/49/49 50/50/50 47/47/47 
f 49/49/49 51/51/51 52/52/52 50/50/50 
f 48/48/48 47/47/47 53/53/53 54/54/54 
f 47/47/47 50/50/50 55/55/55 53/53/53 
f 50/50/50 52/52/52 56/56/56 55/55/55 
f 57/57/57 58/58/58 59/59/59 60/60/60 
f 58/58/58 61/61/61 62/62/62 59/59/59 
f 61/61/61 63/63/63 64/64/64 62/62/62 
f 60/60/60 59/59/59 65/65/65 66/66/66 
f 59/59/59 62/62/62 67/67/67 65/65/65 
f 62/62/62 64/64/64 68/68/68 67/67/67 
f 69/69/69 70/70/70 71/71/71 72/72/72 
f 70/70/70 73/73/73 74/74/74 71/71/71 
f 73/73/73 75/75/75 76/76/76 74/74/74 
f 72/72/72 71/71/71 77/77/77 78/78/78 
f 71/71/71 74/74/74 79/79/79 77/77/77 
f 74/74/74 76/76/76 80/80/80 79/79/79 
f 1/1/1 81/81/81 82/82/82 83/83/83 
f 8/8/8 84/84/84 85/85/85 86/86/86 
f 13/13/13 87/87/87 88/88/88 89/89/89 
f 16/16/16 90/90/90 91/91/91 92/92/92 
f 17/17/17 93/93/93 94/94/94 95/95/95 
f 23/23/23 96/96/96 97/97/97 98/98/98 
f 30/30/30 99/99/99 100/100/100 101/101/101 
f 32/32/32 102/102/102 103/103/103 104/104/104 
f 1/1/1 83/83/83 105/105/105 2/2/2 
f 4/4/4 106/106/106 81/81/81 1/1/1 
f 6/6/6 107/107/107 106/106/106 4/4/4 
f 7/7/7 108/108/108 84/84/84 8/8/8 
f 8/8/8 86/86/86 107/107/107 6/6/6 
f 2/2/2 105/105/105 109/109/109 9/9/9 
f 12/12/12 110/110/110 108/108/108 7/7/7 
f 9/9/9 109/109/109 87/87/87 13/13/13 
f 13/13/13 89/89/89 111/111/111 14/14/14 
f 14/14/14 111/111/111 112/112/112 15/15/15 
f 15/15/15 112/112/112 90/90/90 16/16/16 
f 16/16/16 92/92/92 110/110/110 12/12/12 
f 17/17/17 95/95/95 113/113/113 18/18/18 
f 20/20/20 114/114/114 93/93/93 17/17/17 
f 18/18/18 113/113/113 115/115/115 21/21/21 
f 21/21/21 115/115/115 96/96/96 23/23/23 
f 23/23/23 98/98/98 116/116/116 24/24/24 
f 26/26/26 117/117/117 114/114/114 20/20/20 
f 24/24/24 116/116/116 118/118/118 28/28/28 
f 29/29/29 119/119/119 99/99/99 30/30/30 
f 30/30/30 101/101/101 117/117/117 26/26/26 
f 31/31/31 120/120/120 119/119/119 29/29/29 
f 28/28/28 118/118/118 102/102/102 32/32/32 
f 32/32/32 104/104/104 120/120/120 31/31/31 
f 121/121/121 122/122/122 33/33/33 36/36/36 
f 39/39/39 123/123/123 124/124/124 40/40/40 
f 42/42/42 125/125/125 121/121/121 36/36/36 
f 124/124/124 126/126/126 44/44/44 40/40/40 
f 51/51/51 127/127/127 128/128/128 52/52/52 
f 128/128/128 129/129/129 56/56/56 52/52/52 
f 63/63/63 130/130/130 131/131/131 64/64/64 
f 131/131/131 132/132/132 68/68/68 64/64/64 
f 81/133/81 33/33/33 122/122/122 82/134/82 
f 84/135/84 45/45/45 123/136/123 85/137/85 
f 87/138/87 69/69/69 130/139/130 88/140/88 
f 90/141/90 57/57/57 127/142/127 91/143/91 
f 80/80/80 125/144/125 94/94/94 93/93/93 
f 44/44/44 126/126/126 97/97/97 96/96/96 
f 68/68/68 132/132/132 100/100/100 99/99/99 
f 56/56/56 129/129/129 103/103/103 102/102/102 
f 83/145/83 75/75/75 73/73/73 105/146/105 
f 106/147/106 34/34/34 33/33/33 81/133/81 
f 107/148/107 37/37/37 34/34/34 106/147/106 
f 108/149/108 46/46/46 45/45/45 84/135/84 
f 86/150/86 39/39/39 37/37/37 107/148/107 
f 105/146/105 73/73/73 70/70/70 109/151/109 
f 110/152/110 49/49/49 46/46/46 108/149/108 
f 109/151/109 70/70/70 69/69/69 87/138/87 
f 89/153/89 63/63/63 61/61/61 111/154/111 
f 111/154/111 61/61/61 58/58/58 112/155/112 
f 112/155/112 58/58/58 57/57/57 90/141/90 
f 92/156/92 51/51/51 49/49/49 110/152/110 
f 95/95/95 42/42/42 41/41/41 113/113/113 
f 114/114/114 79/79/79 80/80/80 93/93/93 
f 113/113/113 41/41/41 43/43/43 115/115/115 
f 115/115/115 43/43/43 44/44/44 96/96/96 
f 98/98/98 54/54/54 53/53/53 116/116/116 
f 117/117/117 77/77/77 79/79/79 114/114/114 
f 116/116/116 53/53/53 55/55/55 118/118/118 
f 119/119/119 67/67/67 68/68/68 99/99/99 
f 101/101/101 78/78/78 77/77/77 117/117/117 
f 120/120/120 65/65/65 67/67/67 119/119/119 
f 118/118/118 55/55/55 56/56/56 102/102/102 
f 104/104/104 66/66/66 65/65/65 120/120/120 
f 121/157/121 76/76/76 75/75/75 122/158/122 
f 45/45/45 48/48/48 124/159/124 123/136/123 
f 80/80/80 76/76/76 121/157/121 125/144/125 
f 124/159/124 48/48/48 54/54/54 126/160/126 
f 57/57/57 60/60/60 128/161/128 127/142/127 
f 128/161/128 60/60/60 66/66/66 129/162/129 
f 69/69/69 72/72/72 131/163/131 130/139/130 
f 131/163/131 72/72/72 78/78/78 132/164/132 
f 122/158/122 75/75/75 83/145/83 82/165/82 
f 123/123/123 39/39/39 86/150/86 85/166/85 
f 130/130/130 63/63/63 89/153/89 88/167/88 
f 127/127/127 51/51/51 92/156/92 91/168/91 
f 42/42/42 95/95/95 94/94/94 125/125/125 
f 54/54/54 98/98/98 97/97/97 126/160/126 
f 78/78/78 101/101/101 100/100/100 132/164/132 
f 66/66/66 104/104/104 103/103/103 129/162/129 
# 130 polygons

