# 3ds Max Wavefront OBJ Exporter v0.97b - (c)2007 guruware
# File Created: 22.04.2015 01:08:19

#
# object TargetingCursor
#

v  -0.0000 1.4104 -3.5000
v  -0.0000 1.8434 -2.7500
v  0.7118 1.8434 -2.6563
v  0.9059 1.4104 -3.3807
v  -0.0000 0.9774 -2.7500
v  0.7118 0.9774 -2.6563
v  1.3750 1.8434 -2.3816
v  1.7500 1.4104 -3.0311
v  1.3750 0.9774 -2.3816
v  1.9445 1.8434 -1.9445
v  2.4749 1.4104 -2.4749
v  1.9445 0.9774 -1.9445
v  2.3816 1.8434 -1.3750
v  3.0311 1.4104 -1.7500
v  2.3816 0.9774 -1.3750
v  2.6563 1.8434 -0.7118
v  3.3807 1.4104 -0.9059
v  2.6563 0.9774 -0.7118
v  2.7500 1.8434 -0.0000
v  3.5000 1.4104 -0.0000
v  2.7500 0.9774 -0.0000
v  2.6563 1.8434 0.7118
v  3.3807 1.4104 0.9059
v  2.6563 0.9774 0.7118
v  2.3816 1.8434 1.3750
v  3.0311 1.4104 1.7500
v  2.3816 0.9774 1.3750
v  1.9445 1.8434 1.9445
v  2.4749 1.4104 2.4749
v  1.9445 0.9774 1.9445
v  1.3750 1.8434 2.3816
v  1.7500 1.4104 3.0311
v  1.3750 0.9774 2.3816
v  0.7118 1.8434 2.6563
v  0.9059 1.4104 3.3807
v  0.7118 0.9774 2.6563
v  0.0000 1.8434 2.7500
v  0.0000 1.4104 3.5000
v  0.0000 0.9774 2.7500
v  -0.7118 1.8434 2.6563
v  -0.9059 1.4104 3.3807
v  -0.7118 0.9774 2.6563
v  -1.3750 1.8434 2.3816
v  -1.7500 1.4104 3.0311
v  -1.3750 0.9774 2.3816
v  -1.9445 1.8434 1.9445
v  -2.4749 1.4104 2.4749
v  -1.9445 0.9774 1.9445
v  -2.3816 1.8434 1.3750
v  -3.0311 1.4104 1.7500
v  -2.3816 0.9774 1.3750
v  -2.6563 1.8434 0.7118
v  -3.3807 1.4104 0.9059
v  -2.6563 0.9774 0.7118
v  -2.7500 1.8434 0.0000
v  -3.5000 1.4104 0.0000
v  -2.7500 0.9774 0.0000
v  -2.6563 1.8434 -0.7118
v  -3.3807 1.4104 -0.9059
v  -2.6563 0.9774 -0.7118
v  -2.3816 1.8434 -1.3750
v  -3.0311 1.4104 -1.7500
v  -2.3816 0.9774 -1.3750
v  -1.9445 1.8434 -1.9445
v  -2.4749 1.4104 -2.4749
v  -1.9445 0.9774 -1.9445
v  -1.3750 1.8434 -2.3816
v  -1.7500 1.4104 -3.0311
v  -1.3750 0.9774 -2.3816
v  -0.7118 1.8434 -2.6563
v  -0.9059 1.4104 -3.3807
v  -0.7118 0.9774 -2.6563
# 72 vertices

vn -0.0000 -0.0000 -1.0000
vn 0.0000 0.8970 0.4420
vn -0.1144 0.8970 0.4270
vn 0.2588 -0.0000 -0.9659
vn 0.0000 -0.8970 0.4420
vn -0.1144 -0.8970 0.4270
vn -0.2210 0.8970 0.3828
vn 0.5000 0.0000 -0.8660
vn -0.2210 -0.8970 0.3828
vn -0.3126 0.8970 0.3126
vn 0.7071 0.0000 -0.7071
vn -0.3126 -0.8970 0.3126
vn -0.3828 0.8970 0.2210
vn 0.8660 0.0000 -0.5000
vn -0.3828 -0.8970 0.2210
vn -0.4270 0.8970 0.1144
vn 0.9659 0.0000 -0.2588
vn -0.4270 -0.8970 0.1144
vn -0.4420 0.8970 0.0000
vn 1.0000 0.0000 0.0000
vn -0.4420 -0.8970 -0.0000
vn -0.4270 0.8970 -0.1144
vn 0.9659 0.0000 0.2588
vn -0.4270 -0.8970 -0.1144
vn -0.3828 0.8970 -0.2210
vn 0.8660 -0.0000 0.5000
vn -0.3828 -0.8970 -0.2210
vn -0.3126 0.8970 -0.3126
vn 0.7071 -0.0000 0.7071
vn -0.3126 -0.8970 -0.3126
vn -0.2210 0.8970 -0.3828
vn 0.5000 0.0000 0.8660
vn -0.2210 -0.8970 -0.3828
vn -0.1144 0.8970 -0.4270
vn 0.2588 0.0000 0.9659
vn -0.1144 -0.8970 -0.4270
vn -0.0000 0.8970 -0.4420
vn 0.0000 -0.0000 1.0000
vn -0.0000 -0.8970 -0.4420
vn 0.1144 0.8970 -0.4270
vn -0.2588 0.0000 0.9659
vn 0.1144 -0.8970 -0.4270
vn 0.2210 0.8970 -0.3828
vn -0.5000 0.0000 0.8660
vn 0.2210 -0.8970 -0.3828
vn 0.3126 0.8970 -0.3126
vn -0.7071 0.0000 0.7071
vn 0.3126 -0.8970 -0.3126
vn 0.3828 0.8970 -0.2210
vn -0.8660 -0.0000 0.5000
vn 0.3828 -0.8970 -0.2210
vn 0.4270 0.8970 -0.1144
vn -0.9659 -0.0000 0.2588
vn 0.4270 -0.8970 -0.1144
vn 0.4420 0.8970 -0.0000
vn -1.0000 0.0000 0.0000
vn 0.4420 -0.8970 -0.0000
vn 0.4270 0.8970 0.1144
vn -0.9659 0.0000 -0.2588
vn 0.4270 -0.8970 0.1144
vn 0.3828 0.8970 0.2210
vn -0.8660 0.0000 -0.5000
vn 0.3828 -0.8970 0.2210
vn 0.3126 0.8970 0.3126
vn -0.7071 0.0000 -0.7071
vn 0.3126 -0.8970 0.3126
vn 0.2210 0.8970 0.3828
vn -0.5000 0.0000 -0.8660
vn 0.2210 -0.8970 0.3828
vn 0.1144 0.8970 0.4270
vn -0.2588 -0.0000 -0.9659
vn 0.1144 -0.8970 0.4270
# 72 vertex normals

vt 0.0000 0.0000 0.0000
vt 0.3333 0.0000 0.0000
vt 0.3333 0.0417 0.0000
vt 0.0000 0.0417 0.0000
vt 0.6667 0.0000 0.0000
vt 0.6667 0.0417 0.0000
vt 1.0000 0.0000 0.0000
vt 1.0000 0.0417 0.0000
vt 0.3333 0.0833 0.0000
vt 0.0000 0.0833 0.0000
vt 0.6667 0.0833 0.0000
vt 1.0000 0.0833 0.0000
vt 0.3333 0.1250 0.0000
vt 0.0000 0.1250 0.0000
vt 0.6667 0.1250 0.0000
vt 1.0000 0.1250 0.0000
vt 0.3333 0.1667 0.0000
vt 0.0000 0.1667 0.0000
vt 0.6667 0.1667 0.0000
vt 1.0000 0.1667 0.0000
vt 0.3333 0.2083 0.0000
vt 0.0000 0.2083 0.0000
vt 0.6667 0.2083 0.0000
vt 1.0000 0.2083 0.0000
vt 0.3333 0.2500 0.0000
vt 0.0000 0.2500 0.0000
vt 0.6667 0.2500 0.0000
vt 1.0000 0.2500 0.0000
vt 0.3333 0.2917 0.0000
vt 0.0000 0.2917 0.0000
vt 0.6667 0.2917 0.0000
vt 1.0000 0.2917 0.0000
vt 0.3333 0.3333 0.0000
vt 0.0000 0.3333 0.0000
vt 0.6667 0.3333 0.0000
vt 1.0000 0.3333 0.0000
vt 0.3333 0.3750 0.0000
vt 0.0000 0.3750 0.0000
vt 0.6667 0.3750 0.0000
vt 1.0000 0.3750 0.0000
vt 0.3333 0.4167 0.0000
vt 0.0000 0.4167 0.0000
vt 0.6667 0.4167 0.0000
vt 1.0000 0.4167 0.0000
vt 0.3333 0.4583 0.0000
vt 0.0000 0.4583 0.0000
vt 0.6667 0.4583 0.0000
vt 1.0000 0.4583 0.0000
vt 0.3333 0.5000 0.0000
vt 0.0000 0.5000 0.0000
vt 0.6667 0.5000 0.0000
vt 1.0000 0.5000 0.0000
vt 0.3333 0.5417 0.0000
vt 0.0000 0.5417 0.0000
vt 0.6667 0.5417 0.0000
vt 1.0000 0.5417 0.0000
vt 0.3333 0.5833 0.0000
vt 0.0000 0.5833 0.0000
vt 0.6667 0.5833 0.0000
vt 1.0000 0.5833 0.0000
vt 0.3333 0.6250 0.0000
vt 0.0000 0.6250 0.0000
vt 0.6667 0.6250 0.0000
vt 1.0000 0.6250 0.0000
vt 0.3333 0.6667 0.0000
vt 0.0000 0.6667 0.0000
vt 0.6667 0.6667 0.0000
vt 1.0000 0.6667 0.0000
vt 0.3333 0.7083 0.0000
vt 0.0000 0.7083 0.0000
vt 0.6667 0.7083 0.0000
vt 1.0000 0.7083 0.0000
vt 0.3333 0.7500 0.0000
vt 0.0000 0.7500 0.0000
vt 0.6667 0.7500 0.0000
vt 1.0000 0.7500 0.0000
vt 0.3333 0.7917 0.0000
vt 0.0000 0.7917 0.0000
vt 0.6667 0.7917 0.0000
vt 1.0000 0.7917 0.0000
vt 0.3333 0.8333 0.0000
vt 0.0000 0.8333 0.0000
vt 0.6667 0.8333 0.0000
vt 1.0000 0.8333 0.0000
vt 0.3333 0.8750 0.0000
vt 0.0000 0.8750 0.0000
vt 0.6667 0.8750 0.0000
vt 1.0000 0.8750 0.0000
vt 0.3333 0.9167 0.0000
vt 0.0000 0.9167 0.0000
vt 0.6667 0.9167 0.0000
vt 1.0000 0.9167 0.0000
vt 0.3333 0.9583 0.0000
vt 0.0000 0.9583 0.0000
vt 0.6667 0.9583 0.0000
vt 1.0000 0.9583 0.0000
vt 0.3333 1.0000 0.0000
vt 0.0000 1.0000 0.0000
vt 0.6667 1.0000 0.0000
vt 1.0000 1.0000 0.0000
# 100 texture coords

g TargetingCursor
s 1
f 1/1/1 2/2/2 3/3/3 4/4/4 
f 2/2/2 5/5/5 6/6/6 3/3/3 
f 5/5/5 1/7/1 4/8/4 6/6/6 
f 4/4/4 3/3/3 7/9/7 8/10/8 
f 3/3/3 6/6/6 9/11/9 7/9/7 
f 6/6/6 4/8/4 8/12/8 9/11/9 
f 8/10/8 7/9/7 10/13/10 11/14/11 
f 7/9/7 9/11/9 12/15/12 10/13/10 
f 9/11/9 8/12/8 11/16/11 12/15/12 
f 11/14/11 10/13/10 13/17/13 14/18/14 
f 10/13/10 12/15/12 15/19/15 13/17/13 
f 12/15/12 11/16/11 14/20/14 15/19/15 
f 14/18/14 13/17/13 16/21/16 17/22/17 
f 13/17/13 15/19/15 18/23/18 16/21/16 
f 15/19/15 14/20/14 17/24/17 18/23/18 
f 17/22/17 16/21/16 19/25/19 20/26/20 
f 16/21/16 18/23/18 21/27/21 19/25/19 
f 18/23/18 17/24/17 20/28/20 21/27/21 
f 20/26/20 19/25/19 22/29/22 23/30/23 
f 19/25/19 21/27/21 24/31/24 22/29/22 
f 21/27/21 20/28/20 23/32/23 24/31/24 
f 23/30/23 22/29/22 25/33/25 26/34/26 
f 22/29/22 24/31/24 27/35/27 25/33/25 
f 24/31/24 23/32/23 26/36/26 27/35/27 
f 26/34/26 25/33/25 28/37/28 29/38/29 
f 25/33/25 27/35/27 30/39/30 28/37/28 
f 27/35/27 26/36/26 29/40/29 30/39/30 
f 29/38/29 28/37/28 31/41/31 32/42/32 
f 28/37/28 30/39/30 33/43/33 31/41/31 
f 30/39/30 29/40/29 32/44/32 33/43/33 
f 32/42/32 31/41/31 34/45/34 35/46/35 
f 31/41/31 33/43/33 36/47/36 34/45/34 
f 33/43/33 32/44/32 35/48/35 36/47/36 
f 35/46/35 34/45/34 37/49/37 38/50/38 
f 34/45/34 36/47/36 39/51/39 37/49/37 
f 36/47/36 35/48/35 38/52/38 39/51/39 
f 38/50/38 37/49/37 40/53/40 41/54/41 
f 37/49/37 39/51/39 42/55/42 40/53/40 
f 39/51/39 38/52/38 41/56/41 42/55/42 
f 41/54/41 40/53/40 43/57/43 44/58/44 
f 40/53/40 42/55/42 45/59/45 43/57/43 
f 42/55/42 41/56/41 44/60/44 45/59/45 
f 44/58/44 43/57/43 46/61/46 47/62/47 
f 43/57/43 45/59/45 48/63/48 46/61/46 
f 45/59/45 44/60/44 47/64/47 48/63/48 
f 47/62/47 46/61/46 49/65/49 50/66/50 
f 46/61/46 48/63/48 51/67/51 49/65/49 
f 48/63/48 47/64/47 50/68/50 51/67/51 
f 50/66/50 49/65/49 52/69/52 53/70/53 
f 49/65/49 51/67/51 54/71/54 52/69/52 
f 51/67/51 50/68/50 53/72/53 54/71/54 
f 53/70/53 52/69/52 55/73/55 56/74/56 
f 52/69/52 54/71/54 57/75/57 55/73/55 
f 54/71/54 53/72/53 56/76/56 57/75/57 
f 56/74/56 55/73/55 58/77/58 59/78/59 
f 55/73/55 57/75/57 60/79/60 58/77/58 
f 57/75/57 56/76/56 59/80/59 60/79/60 
f 59/78/59 58/77/58 61/81/61 62/82/62 
f 58/77/58 60/79/60 63/83/63 61/81/61 
f 60/79/60 59/80/59 62/84/62 63/83/63 
f 62/82/62 61/81/61 64/85/64 65/86/65 
f 61/81/61 63/83/63 66/87/66 64/85/64 
f 63/83/63 62/84/62 65/88/65 66/87/66 
f 65/86/65 64/85/64 67/89/67 68/90/68 
f 64/85/64 66/87/66 69/91/69 67/89/67 
f 66/87/66 65/88/65 68/92/68 69/91/69 
f 68/90/68 67/89/67 70/93/70 71/94/71 
f 67/89/67 69/91/69 72/95/72 70/93/70 
f 69/91/69 68/92/68 71/96/71 72/95/72 
f 71/94/71 70/93/70 2/97/2 1/98/1 
f 70/93/70 72/95/72 5/99/5 2/97/2 
f 72/95/72 71/96/71 1/100/1 5/99/5 
# 72 polygons

