# 3ds Max Wavefront OBJ Exporter v0.97b - (c)2007 guruware
# File Created: 23.08.2015 14:47:07

#
# object chest
#

v  -0.5000 0.0500 -0.0000
v  -0.2800 0.0500 -0.0000
v  -0.2800 0.0500 0.2500
v  -0.5000 0.0500 0.2400
v  -0.4900 0.0500 0.2500
v  -0.2200 0.0500 -0.0000
v  0.0000 0.0500 -0.0000
v  0.0000 0.0500 0.2500
v  -0.2200 0.0500 0.2500
v  0.2200 0.0500 -0.0000
v  0.2200 0.0500 0.2500
v  0.5000 0.0500 -0.0000
v  0.5000 0.0500 0.2400
v  0.4900 0.0500 0.2500
v  0.2800 0.0500 -0.0000
v  0.2800 0.0500 0.2500
v  -0.2800 0.2900 0.2500
v  -0.4900 0.2900 0.2500
v  0.0000 0.2900 0.2500
v  -0.2200 0.2900 0.2500
v  0.2200 0.2900 0.2500
v  0.4900 0.2900 0.2500
v  0.2800 0.2900 0.2500
v  0.5000 0.2900 -0.0000
v  0.5000 0.2900 0.2400
v  0.2800 0.0500 -0.2500
v  0.2800 0.2900 -0.2500
v  0.4900 0.2900 -0.2500
v  0.4900 0.0500 -0.2500
v  0.0000 0.0500 -0.2500
v  0.0000 0.2900 -0.2500
v  0.2200 0.2900 -0.2500
v  0.2200 0.0500 -0.2500
v  -0.2200 0.0500 -0.2500
v  -0.2200 0.2900 -0.2500
v  -0.4900 0.0500 -0.2500
v  -0.4900 0.2900 -0.2500
v  -0.2800 0.2900 -0.2500
v  -0.2800 0.0500 -0.2500
v  -0.5000 0.2900 -0.0000
v  -0.5000 0.2900 -0.2400
v  -0.5000 0.0500 -0.2400
v  0.4900 0.4500 -0.0000
v  0.2800 0.4500 -0.0000
v  0.2800 0.4500 0.2400
v  0.4900 0.4500 0.2400
v  0.0000 0.4500 -0.2400
v  0.0000 0.4500 -0.0000
v  0.2200 0.4500 -0.0000
v  0.2200 0.4500 -0.2400
v  -0.2200 0.4500 -0.2400
v  -0.2200 0.4500 -0.0000
v  -0.2800 0.4500 0.2400
v  -0.2800 0.4500 -0.0000
v  -0.4900 0.4500 -0.0000
v  -0.4900 0.4500 0.2400
v  -0.2250 0.0429 -0.2571
v  -0.2250 0.0429 -0.0000
v  -0.2750 0.0429 -0.0000
v  -0.2750 0.0429 -0.2571
v  0.2750 0.0429 -0.2571
v  0.2750 0.0429 -0.0000
v  0.2250 0.0429 -0.0000
v  0.2250 0.0429 -0.2571
v  -0.2250 0.0429 0.2571
v  -0.2250 0.3000 0.2571
v  -0.2750 0.3000 0.2571
v  -0.2750 0.0429 0.2571
v  0.2750 0.0429 0.2571
v  0.2750 0.3000 0.2571
v  0.2250 0.3000 0.2571
v  0.2250 0.0429 0.2571
v  0.2250 0.3000 -0.2571
v  0.2750 0.3000 -0.2571
v  -0.2750 0.3000 -0.2571
v  -0.2250 0.3000 -0.2571
v  0.2250 0.4571 -0.2471
v  0.2250 0.4571 -0.0000
v  0.2750 0.4571 -0.0000
v  0.2750 0.4571 -0.2471
v  -0.2750 0.4571 -0.2471
v  -0.2750 0.4571 -0.0000
v  -0.2250 0.4571 -0.0000
v  -0.2250 0.4571 -0.2471
v  -0.2800 0.4500 -0.2400
v  -0.2800 0.3100 0.2500
v  -0.2800 0.4400 0.2500
v  -0.2750 0.4471 0.2571
v  -0.2200 0.3100 -0.2500
v  -0.2200 0.4400 -0.2500
v  -0.2250 0.4471 -0.2571
v  -0.2200 0.4500 0.2400
v  -0.2250 0.4571 0.2471
v  0.2200 0.3100 0.2500
v  0.2200 0.4400 0.2500
v  0.2250 0.4471 0.2571
v  0.2800 0.3100 -0.2500
v  0.2800 0.4400 -0.2500
v  0.2750 0.4471 -0.2571
v  0.2750 0.4571 0.2471
v  0.5000 0.0500 -0.2400
v  0.5000 0.2900 -0.2400
v  -0.5000 0.2900 0.2400
v  0.4900 0.4500 -0.2400
v  0.2800 0.4500 -0.2400
v  0.0000 0.4500 0.2400
v  0.2200 0.4500 0.2400
v  -0.4900 0.4500 -0.2400
v  0.2250 0.4571 0.2471
v  -0.2750 0.4571 0.2471
v  -0.4900 0.4400 0.2500
v  -0.4900 0.3100 0.2500
v  0.0000 0.4400 0.2500
v  -0.2200 0.4400 0.2500
v  -0.2200 0.3100 0.2500
v  0.0000 0.3100 0.2500
v  0.4900 0.4400 0.2500
v  0.2800 0.4400 0.2500
v  0.2800 0.3100 0.2500
v  0.4900 0.3100 0.2500
v  0.5000 0.4400 -0.0000
v  0.5000 0.4400 0.2400
v  0.5000 0.3100 0.2400
v  0.5000 0.3100 -0.0000
v  0.4900 0.4400 -0.2500
v  0.4900 0.3100 -0.2500
v  0.0000 0.4400 -0.2500
v  0.2200 0.4400 -0.2500
v  0.2200 0.3100 -0.2500
v  0.0000 0.3100 -0.2500
v  -0.4900 0.4400 -0.2500
v  -0.2800 0.4400 -0.2500
v  -0.2800 0.3100 -0.2500
v  -0.4900 0.3100 -0.2500
v  -0.5000 0.4400 -0.0000
v  -0.5000 0.4400 -0.2400
v  -0.5000 0.3100 -0.2400
v  -0.5000 0.3100 -0.0000
v  -0.2250 0.4471 0.2571
v  0.2750 0.4471 0.2571
v  0.2250 0.4471 -0.2571
v  -0.2750 0.4471 -0.2571
v  0.5000 0.4400 -0.2400
v  0.5000 0.3100 -0.2400
v  -0.5000 0.4400 0.2400
v  -0.5000 0.3100 0.2400
v  -0.4794 0.3000 0.2392
v  -0.2800 0.3000 0.2350
v  -0.2200 0.3000 0.2350
v  0.0000 0.3000 0.2350
v  0.2200 0.3000 0.2350
v  0.2800 0.3000 0.2350
v  0.4794 0.3000 0.2392
v  0.4892 0.3000 0.2294
v  0.4850 0.3000 -0.0000
v  0.4794 0.3000 -0.2392
v  0.2800 0.3000 -0.2350
v  0.2200 0.3000 -0.2350
v  0.0000 0.3000 -0.2350
v  -0.2200 0.3000 -0.2350
v  -0.2800 0.3000 -0.2350
v  -0.4794 0.3000 -0.2392
v  -0.4892 0.3000 -0.2294
v  -0.4850 0.3000 -0.0000
v  0.4892 0.3000 -0.2294
v  -0.4892 0.3000 0.2294
v  -0.4750 0.0000 0.2500
v  -0.4750 0.0000 0.1550
v  -0.4250 0.0000 0.1550
v  -0.4250 0.0000 0.2500
v  -0.4750 0.0285 0.0925
v  -0.4250 0.0285 0.0925
v  -0.4750 0.0285 -0.0925
v  -0.4250 0.0285 -0.0925
v  -0.4250 0.0379 -0.0000
v  -0.4750 0.0379 -0.0000
v  -0.4750 0.0000 -0.1550
v  -0.4750 0.0000 -0.2500
v  -0.4250 0.0000 -0.2500
v  -0.4250 0.0000 -0.1550
v  -0.4250 0.0500 0.2500
v  -0.4750 0.0500 0.2500
v  -0.4250 0.0500 0.1550
v  -0.4250 0.0500 0.0925
v  -0.4250 0.0500 -0.0925
v  -0.4250 0.0500 -0.0000
v  -0.4250 0.0500 -0.2500
v  -0.4250 0.0500 -0.1550
v  -0.4750 0.0500 -0.2500
v  -0.4750 0.0500 -0.1550
v  -0.4750 0.0500 -0.0925
v  -0.4750 0.0500 0.0925
v  -0.4750 0.0500 -0.0000
v  -0.4750 0.0500 0.1550
v  0.4250 0.0000 0.2500
v  0.4250 0.0000 0.1550
v  0.4750 0.0000 0.1550
v  0.4750 0.0000 0.2500
v  0.4250 0.0285 0.0925
v  0.4750 0.0285 0.0925
v  0.4250 0.0285 -0.0925
v  0.4750 0.0285 -0.0925
v  0.4750 0.0379 -0.0000
v  0.4250 0.0379 -0.0000
v  0.4250 0.0000 -0.1550
v  0.4250 0.0000 -0.2500
v  0.4750 0.0000 -0.2500
v  0.4750 0.0000 -0.1550
v  0.4750 0.0500 0.2500
v  0.4250 0.0500 0.2500
v  0.4750 0.0500 0.1550
v  0.4750 0.0500 0.0925
v  0.4750 0.0500 -0.0925
v  0.4750 0.0500 -0.0000
v  0.4750 0.0500 -0.2500
v  0.4750 0.0500 -0.1550
v  0.4250 0.0500 -0.2500
v  0.4250 0.0500 -0.1550
v  0.4250 0.0500 -0.0925
v  0.4250 0.0500 0.0925
v  0.4250 0.0500 -0.0000
v  0.4250 0.0500 0.1550
# 222 vertices

vn 0.0000 -1.0000 -0.0000
vn 0.0000 0.0000 1.0000
vn 1.0000 0.0000 -0.0000
vn 0.0000 0.0000 -1.0000
vn -1.0000 0.0000 -0.0000
vn 0.0000 1.0000 -0.0000
vn -0.8165 -0.5773 -0.0000
vn -0.8165 0.0000 -0.5773
vn -0.8165 0.5773 -0.0000
vn -0.8165 0.0000 0.5773
vn 0.8165 0.0000 -0.5773
vn 0.8165 -0.5773 -0.0000
vn 0.8165 0.0000 0.5773
vn 0.8165 0.5773 -0.0000
vn -0.8772 -0.1079 -0.4678
vn -0.8772 0.1079 0.4678
vn 0.8772 0.1079 -0.4678
vn 0.8772 -0.1079 0.4678
vn 0.0063 0.7893 0.6140
vn 0.0000 0.8321 0.5547
vn -0.0063 0.7893 0.6140
vn 0.6142 0.7891 -0.0055
vn -0.0063 0.7893 -0.6140
vn 0.0000 0.8321 -0.5547
vn 0.0063 0.7893 -0.6140
vn -0.6142 0.7891 0.0055
vn -0.9258 0.3146 -0.2097
vn -0.9258 -0.3146 0.2097
vn 0.9258 -0.3146 -0.2097
vn 0.9258 0.3146 0.2097
vn 0.6142 0.7891 0.0055
vn -0.6142 0.7891 -0.0055
vn 0.0063 -0.7893 0.6140
vn 0.0000 -0.8321 0.5547
vn -0.0063 -0.7893 0.6140
vn 0.6142 -0.7891 -0.0055
vn -0.0063 -0.7893 -0.6140
vn 0.0000 -0.8321 -0.5547
vn 0.0063 -0.7893 -0.6140
vn -0.6142 -0.7891 0.0055
vn -0.9258 -0.3146 -0.2097
vn -0.9258 0.3146 0.2097
vn 0.9258 0.3146 -0.2097
vn 0.9258 -0.3146 0.2097
vn 0.6142 -0.7891 0.0055
vn -0.6142 -0.7891 -0.0055
vn -0.5774 0.5774 0.5773
vn 0.5774 0.5774 0.5773
vn -0.5774 0.5774 -0.5773
vn 0.5774 0.5774 -0.5773
vn 0.0000 0.7071 0.7071
vn -0.7071 0.7071 -0.0000
vn 0.7071 0.7071 -0.0000
vn 0.0000 0.7071 -0.7071
vn -0.7071 0.0000 0.7071
vn 0.7071 0.0000 0.7071
vn 0.7071 0.0000 -0.7071
vn -0.7071 0.0000 -0.7071
vn -0.8944 0.3162 -0.3162
vn -0.8944 0.3162 0.3162
vn 0.8944 0.3162 -0.3162
vn 0.8944 0.3162 0.3162
vn -0.3895 -0.8344 0.3900
vn 0.3895 0.8344 0.3900
vn 0.3895 0.8344 -0.3900
vn -0.3895 0.8344 -0.3900
vn -0.3895 0.8344 0.3900
vn 0.3895 -0.8344 0.3900
vn 0.3895 -0.8344 -0.3900
vn -0.3895 -0.8344 -0.3900
vn 0.0000 -0.9097 -0.4154
vn 0.0000 -0.9950 0.1002
vn 0.0000 -0.9950 -0.1002
vn 0.0000 -0.9097 0.4154
# 74 vertex normals

vt 1.0000 0.5000 0.0000
vt 0.7800 0.5000 0.0000
vt 0.7800 0.0000 0.0000
vt 1.0000 0.0200 0.0000
vt 0.9900 0.0000 0.0000
vt 0.7200 0.5000 0.0000
vt 0.5000 0.5000 0.0000
vt 0.5000 0.0000 0.0000
vt 0.7200 0.0000 0.0000
vt 0.2800 0.5000 0.0000
vt 0.2800 0.0000 0.0000
vt 0.0000 0.5000 0.0000
vt 0.0000 0.0200 0.0000
vt 0.0100 0.0000 0.0000
vt 0.2200 0.5000 0.0000
vt 0.2200 0.0000 0.0000
vt 0.2200 0.4800 0.0000
vt 0.0100 0.4800 0.0000
vt 0.5000 0.4800 0.0000
vt 0.2800 0.4800 0.0000
vt 0.7200 0.4800 0.0000
vt 0.9900 0.4800 0.0000
vt 0.7800 0.4800 0.0000
vt 0.0200 0.4800 0.0000
vt 0.0200 0.0000 0.0000
vt 0.9900 0.5000 0.0000
vt 0.7800 0.0200 0.0000
vt 0.9989 0.0025 0.0000
vt 0.5000 0.9800 0.0000
vt 0.7200 0.9800 0.0000
vt 0.2800 0.9800 0.0000
vt 0.2200 0.0200 0.0000
vt 0.0100 0.5000 0.0000
vt 0.0011 0.0025 0.0000
vt 0.7200 1.0000 0.0000
vt 0.7800 1.0000 0.0000
vt 0.2200 1.0000 0.0000
vt 0.2800 1.0000 0.0000
vt 0.7200 0.9806 0.0000
vt 0.7800 0.9806 0.0000
vt 0.2200 0.9806 0.0000
vt 0.2800 0.9806 0.0000
vt 0.2200 0.9800 0.0000
vt 0.2200 0.5333 0.0000
vt 0.2200 0.9667 0.0000
vt 0.2200 0.9682 0.0000
vt 0.7200 0.5333 0.0000
vt 0.7200 0.9667 0.0000
vt 0.7200 0.9682 0.0000
vt 0.2800 0.0200 0.0000
vt 0.2800 0.0194 0.0000
vt 0.7800 0.0194 0.0000
vt 1.0000 0.9800 0.0000
vt 0.9900 1.0000 0.0000
vt 0.5000 1.0000 0.0000
vt 0.0100 1.0000 0.0000
vt 0.0000 0.9800 0.0000
vt 0.9800 0.0000 0.0000
vt 0.9800 0.4800 0.0000
vt 0.9989 0.9975 0.0000
vt 0.7800 0.9800 0.0000
vt 0.5000 0.0200 0.0000
vt 0.7200 0.0200 0.0000
vt 0.0011 0.9975 0.0000
vt 0.7200 0.0194 0.0000
vt 0.2200 0.0194 0.0000
vt 0.0011 0.9977 0.0000
vt 0.0100 0.5333 0.0000
vt 0.5000 0.9667 0.0000
vt 0.2800 0.9667 0.0000
vt 0.2800 0.5333 0.0000
vt 0.5000 0.5333 0.0000
vt 0.9989 0.9977 0.0000
vt 0.7800 0.9667 0.0000
vt 0.7800 0.5333 0.0000
vt 0.9900 0.5333 0.0000
vt 0.0025 0.9977 0.0000
vt 0.0200 0.5333 0.0000
vt 0.2800 0.9682 0.0000
vt 0.7800 0.9682 0.0000
vt 0.9975 0.9977 0.0000
vt 0.9800 0.5333 0.0000
vt 0.0105 0.5000 0.0000
vt 0.9895 0.5000 0.0000
vt 0.0209 0.5000 0.0000
vt 0.9791 0.5000 0.0000
vt -0.0366 0.0189 0.0000
vt -0.0366 -0.0110 0.0000
vt 0.9762 1.0171 0.0000
vt 0.9762 0.9862 0.0000
vt 0.9599 1.0110 0.0000
vt 0.9599 0.9811 0.0000
vt 0.0459 1.0146 0.0000
vt 0.2570 1.0060 0.0000
vt 0.0419 1.0306 0.0000
vt 0.5283 1.0192 0.0000
vt 0.2800 0.9928 0.0000
vt 0.5000 0.9928 0.0000
vt 0.7200 0.9928 0.0000
vt 0.7430 1.0060 0.0000
vt 0.9541 1.0146 0.0000
vt 1.0561 0.9937 0.0000
vt 1.0402 0.5327 0.0000
vt -0.0075 -0.0000 0.0000
vt -0.0075 0.4800 0.0000
vt -0.0178 -0.0000 0.0000
vt -0.0178 0.4800 0.0000
vt 0.2800 0.0088 0.0000
vt 0.2200 0.0088 0.0000
vt 0.7800 0.0088 0.0000
vt 0.7200 0.0088 0.0000
vt 0.2200 0.9912 0.0000
vt 0.2800 0.9912 0.0000
vt 0.7200 0.9912 0.0000
vt 0.7800 0.9912 0.0000
vt 0.2200 0.9643 0.0000
vt 0.2317 1.0109 0.0000
vt 0.2321 1.0107 0.0000
vt 0.7317 1.0109 0.0000
vt 0.7321 1.0107 0.0000
vt 0.2800 0.0357 0.0000
vt 0.2800 0.0318 0.0000
vt 0.7200 0.9643 0.0000
vt 0.7800 0.0357 0.0000
vt 0.7800 0.0318 0.0000
vt 0.4717 1.0192 0.0000
vt 0.9581 1.0306 0.0000
vt 1.0075 0.4800 0.0000
vt 1.0075 -0.0000 0.0000
vt -0.0402 0.5327 0.0000
vt -0.0561 0.9937 0.0000
vt -0.0409 0.5453 0.0000
vt -0.0509 1.0134 0.0000
vt 1.0007 0.5179 0.0000
vt 0.9992 0.4849 0.0000
vt 0.0087 0.4892 0.0000
vt 0.0100 0.5090 0.0000
vt -0.0027 0.4892 0.0000
vt -0.0021 0.5091 0.0000
vt 0.9900 0.5090 0.0000
vt 0.9913 0.4892 0.0000
vt 0.0008 0.4849 0.0000
vt -0.0007 0.5179 0.0000
vt -0.0096 0.4849 0.0000
vt -0.0104 0.5179 0.0000
vt 1.0000 0.0000 0.0000
vt 1.0000 0.2500 0.0000
vt 0.0000 0.2500 0.0000
vt 0.0000 0.0000 0.0000
vt 1.0000 0.3750 0.0000
vt 0.0000 0.3750 0.0000
vt 1.0000 0.6250 0.0000
vt 0.0000 0.6250 0.0000
vt 1.0000 0.7500 0.0000
vt 1.0000 1.0000 0.0000
vt 0.0000 1.0000 0.0000
vt 0.0000 0.7500 0.0000
vt 0.2500 0.0000 0.0000
vt 0.2500 1.0000 0.0000
vt 0.3750 0.0000 0.0000
vt 0.3750 1.0000 0.0000
vt 0.6250 0.0000 0.0000
vt 0.6250 1.0000 0.0000
vt 0.7500 0.0000 0.0000
vt 0.7500 1.0000 0.0000
# 165 texture coords

g chest
s off
f 1/1/1 2/2/1 3/3/1 4/4/1 
f 5/5/1 4/4/1 3/3/1 
f 6/6/1 7/7/1 8/8/1 9/9/1 
f 7/7/1 10/10/1 11/11/1 8/8/1 
f 12/12/1 13/13/1 14/14/1 15/15/1 
f 16/16/1 15/15/1 14/14/1 
f 3/16/2 17/17/2 18/18/2 5/14/2 
f 8/8/2 19/19/2 20/20/2 9/11/2 
f 11/9/2 21/21/2 19/19/2 8/8/2 
f 14/5/2 22/22/2 23/23/2 16/3/2 
f 12/8/3 24/19/3 25/24/3 13/25/3 
f 26/16/4 27/17/4 28/18/4 29/14/4 
f 30/8/4 31/19/4 32/20/4 33/11/4 
f 34/9/4 35/21/4 31/19/4 30/8/4 
f 36/5/4 37/22/4 38/23/4 39/3/4 
f 1/8/5 40/19/5 41/24/5 42/25/5 
f 43/26/6 44/2/6 45/27/6 46/28/6 
f 47/29/6 48/7/6 49/6/6 50/30/6 
f 51/31/6 52/10/6 48/7/6 47/29/6 
f 53/32/6 54/15/6 55/33/6 56/34/6 
f 57/35/1 58/6/1 59/2/1 60/36/1 
f 61/37/1 62/15/1 63/10/1 64/38/1 
f 65/11/2 66/10/2 67/15/2 68/16/2 
f 69/3/2 70/2/2 71/6/2 72/9/2 
f 64/11/4 73/10/4 74/15/4 61/16/4 
f 60/3/4 75/2/4 76/6/4 57/9/4 
f 77/39/6 78/6/6 79/2/6 80/40/6 
f 81/41/6 82/15/6 83/10/6 84/42/6 
f 3/3/7 2/2/7 59/2/7 68/3/7 
f 38/23/8 75/2/8 75/2/8 39/3/8 
f 39/3/8 75/2/8 60/3/8 
f 85/43/9 54/15/9 82/15/9 81/41/9 
f 86/44/10 67/15/10 67/15/10 87/45/10 
f 87/45/10 67/15/10 88/46/10 
f 89/47/11 76/6/11 76/6/11 90/48/11 
f 90/48/11 76/6/11 91/49/11 
f 34/35/12 6/6/12 58/6/12 57/35/12 
f 20/20/13 66/10/13 66/10/13 9/11/13 
f 9/11/13 66/10/13 65/11/13 
f 92/50/14 52/10/14 83/10/14 93/51/14 
f 11/11/7 10/10/7 63/10/7 72/11/7 
f 32/20/8 73/10/8 73/10/8 33/11/8 
f 33/11/8 73/10/8 64/11/8 
f 50/30/9 49/6/9 78/6/9 77/39/9 
f 94/47/10 71/6/10 71/6/10 95/48/10 
f 95/48/10 71/6/10 96/49/10 
f 97/44/11 74/15/11 74/15/11 98/45/11 
f 98/45/11 74/15/11 99/46/11 
f 26/37/12 15/15/12 62/15/12 61/37/12 
f 23/23/13 70/2/13 70/2/13 16/3/13 
f 16/3/13 70/2/13 69/3/13 
f 45/27/14 44/2/14 79/2/14 100/52/14 
f 1/1/1 42/53/1 36/54/1 2/2/1 
f 36/54/1 39/36/1 2/2/1 
f 34/35/1 30/55/1 7/7/1 6/6/1 
f 30/55/1 33/38/1 10/10/1 7/7/1 
f 26/37/1 29/56/1 101/57/1 12/12/1 
f 15/15/1 26/37/1 12/12/1 
f 101/58/3 102/59/3 24/19/3 12/8/3 
f 4/58/5 103/59/5 40/19/5 1/8/5 
f 104/60/6 105/61/6 44/2/6 43/26/6 
f 106/62/6 107/63/6 49/6/6 48/7/6 
f 92/50/6 106/62/6 48/7/6 52/10/6 
f 85/43/6 108/64/6 55/33/6 54/15/6 
f 65/9/1 68/3/1 59/2/1 58/6/1 
f 69/16/1 72/11/1 63/10/1 62/15/1 
f 109/65/6 100/52/6 79/2/6 78/6/6 
f 110/66/6 93/51/6 83/10/6 82/15/6 
f 39/36/7 60/36/7 59/2/7 2/2/7 
f 53/32/9 110/66/9 82/15/9 54/15/9 
f 9/9/12 65/9/12 58/6/12 6/6/12 
f 51/31/14 84/42/14 83/10/14 52/10/14 
f 33/38/7 64/38/7 63/10/7 10/10/7 
f 107/63/9 109/65/9 78/6/9 49/6/9 
f 16/16/12 69/16/12 62/15/12 15/15/12 
f 105/61/14 80/40/14 79/2/14 44/2/14 
f 87/45/2 111/67/2 112/68/2 86/44/2 
f 113/69/2 114/70/2 115/71/2 116/72/2 
f 95/48/2 113/69/2 116/72/2 94/47/2 
f 117/73/2 118/74/2 119/75/2 120/76/2 
f 121/69/3 122/77/3 123/78/3 124/72/3 
f 98/45/4 125/67/4 126/68/4 97/44/4 
f 127/69/4 128/70/4 129/71/4 130/72/4 
f 90/48/4 127/69/4 130/72/4 89/47/4 
f 131/73/4 132/74/4 133/75/4 134/76/4 
f 135/69/5 136/77/5 137/78/5 138/72/5 
f 139/79/2 88/46/2 67/15/2 66/10/2 
f 140/80/2 96/49/2 71/6/2 70/2/2 
f 141/79/4 99/46/4 74/15/4 73/10/4 
f 142/80/4 91/49/4 76/6/4 75/2/4 
f 132/74/8 142/80/8 75/2/8 133/75/8 
f 133/75/15 75/2/15 75/2/15 
f 3/16/10 68/16/10 67/15/10 17/17/10 
f 17/17/16 67/15/16 67/15/16 
f 34/9/11 57/9/11 76/6/11 35/21/11 
f 35/21/17 76/6/17 76/6/17 
f 114/70/13 139/79/13 66/10/13 115/71/13 
f 115/71/18 66/10/18 66/10/18 
f 128/70/8 141/79/8 73/10/8 129/71/8 
f 129/71/15 73/10/15 73/10/15 
f 11/9/10 72/9/10 71/6/10 21/21/10 
f 21/21/16 71/6/16 71/6/16 
f 26/16/11 61/16/11 74/15/11 27/17/11 
f 27/17/17 74/15/17 74/15/17 
f 118/74/13 140/80/13 70/2/13 119/75/13 
f 119/75/18 70/2/18 70/2/18 
f 143/81/3 121/69/3 124/72/3 144/82/3 
f 145/81/5 135/69/5 138/72/5 146/82/5 
f 147/83/19 18/18/19 17/17/19 148/15/19 
f 149/10/20 20/20/20 19/19/20 150/7/20 
f 150/7/20 19/19/20 21/21/20 151/6/20 
f 152/2/21 23/23/21 22/22/21 153/84/21 
f 154/85/22 25/24/22 24/19/22 155/7/22 
f 156/83/23 28/18/23 27/17/23 157/15/23 
f 158/10/24 32/20/24 31/19/24 159/7/24 
f 159/7/24 31/19/24 35/21/24 160/6/24 
f 161/2/25 38/23/25 37/22/25 162/84/25 
f 163/85/26 41/24/26 40/19/26 164/7/26 
f 38/23/27 161/2/27 75/2/27 
f 86/44/28 148/15/28 67/15/28 
f 89/47/29 160/6/29 76/6/29 
f 20/20/30 149/10/30 66/10/30 
f 32/20/27 158/10/27 73/10/27 
f 94/47/28 151/6/28 71/6/28 
f 97/44/29 157/15/29 74/15/29 
f 23/23/30 152/2/30 70/2/30 
f 155/7/31 24/19/31 102/59/31 165/86/31 
f 164/7/32 40/19/32 103/59/32 166/86/32 
f 148/15/33 86/44/33 112/68/33 147/83/33 
f 150/7/34 116/72/34 115/71/34 149/10/34 
f 151/6/34 94/47/34 116/72/34 150/7/34 
f 153/84/35 120/76/35 119/75/35 152/2/35 
f 155/7/36 124/72/36 123/78/36 154/85/36 
f 157/15/37 97/44/37 126/68/37 156/83/37 
f 159/7/38 130/72/38 129/71/38 158/10/38 
f 160/6/38 89/47/38 130/72/38 159/7/38 
f 162/84/39 134/76/39 133/75/39 161/2/39 
f 164/7/40 138/72/40 137/78/40 163/85/40 
f 75/2/41 161/2/41 133/75/41 
f 67/15/42 148/15/42 17/17/42 
f 76/6/43 160/6/43 35/21/43 
f 66/10/44 149/10/44 115/71/44 
f 73/10/41 158/10/41 129/71/41 
f 71/6/42 151/6/42 21/21/42 
f 74/15/43 157/15/43 27/17/43 
f 70/2/44 152/2/44 119/75/44 
f 165/86/45 144/82/45 124/72/45 155/7/45 
f 166/86/46 146/82/46 138/72/46 164/7/46 
f 56/34/47 145/87/47 111/88/47 
f 117/73/48 122/89/48 46/90/48 
f 131/73/49 136/89/49 108/90/49 
f 104/60/50 143/91/50 125/92/50 
f 56/93/51 111/67/51 87/45/51 53/94/51 
f 108/95/52 136/77/52 135/69/52 55/96/52 
f 92/97/51 114/70/51 113/69/51 106/98/51 
f 106/98/51 113/69/51 95/48/51 107/99/51 
f 45/100/51 118/74/51 117/73/51 46/101/51 
f 46/95/53 122/77/53 121/69/53 43/96/53 
f 85/100/54 132/74/54 131/73/54 108/101/54 
f 47/98/54 127/69/54 90/48/54 51/99/54 
f 50/97/54 128/70/54 127/69/54 47/98/54 
f 104/93/54 125/67/54 98/45/54 105/94/54 
f 111/102/55 145/81/55 146/82/55 112/103/55 
f 14/104/56 13/25/56 25/24/56 22/105/56 
f 101/106/57 29/14/57 28/18/57 102/107/57 
f 36/104/58 42/25/58 41/24/58 37/105/58 
f 139/108/51 93/51/51 110/66/51 88/109/51 
f 140/110/51 100/52/51 109/65/51 96/111/51 
f 142/112/54 81/41/54 84/42/54 91/113/54 
f 141/114/54 77/39/54 80/40/54 99/115/54 
f 132/116/59 85/43/59 81/41/59 142/46/59 
f 53/117/60 87/45/60 88/46/60 110/118/60 
f 51/119/61 90/48/61 91/49/61 84/120/61 
f 114/121/62 92/50/62 93/51/62 139/122/62 
f 128/123/59 50/30/59 77/39/59 141/49/59 
f 107/119/60 95/48/60 96/49/60 109/120/60 
f 105/117/61 98/45/61 99/46/61 80/118/61 
f 118/124/62 45/27/62 100/52/62 140/125/62 
f 55/126/52 135/69/52 145/81/52 56/127/52 
f 43/126/53 121/69/53 143/81/53 104/127/53 
f 18/128/55 103/59/55 4/58/55 5/129/55 
f 120/130/56 123/78/56 122/77/56 117/131/56 
f 144/132/57 126/68/57 125/67/57 143/133/57 
f 134/130/58 137/78/58 136/77/58 131/131/58 
f 112/134/63 146/82/63 166/86/63 147/135/63 
f 22/136/64 25/24/64 154/85/64 153/137/64 
f 102/138/65 28/18/65 156/83/65 165/139/65 
f 37/136/66 41/24/66 163/85/66 162/137/66 
f 147/140/67 166/86/67 103/59/67 18/141/67 
f 153/142/68 154/85/68 123/78/68 120/143/68 
f 165/144/69 156/83/69 126/68/69 144/145/69 
f 162/142/70 163/85/70 137/78/70 134/143/70 
f 167/146/1 168/147/1 169/148/1 170/149/1 
f 171/150/71 172/151/71 169/148/71 168/147/71 
f 173/152/72 174/153/72 175/12/72 176/1/72 
f 177/154/1 178/155/1 179/156/1 180/157/1 
f 167/149/2 170/146/2 181/155/2 182/156/2 
f 170/149/3 169/158/3 183/159/3 181/156/3 
f 172/160/3 184/161/3 183/159/3 169/158/3 
f 175/8/3 174/162/3 185/163/3 186/55/3 
f 180/164/3 179/146/3 187/155/3 188/165/3 
f 179/149/4 178/146/4 189/155/4 187/156/4 
f 178/149/5 177/158/5 190/159/5 189/156/5 
f 173/160/5 191/161/5 190/159/5 177/158/5 
f 176/8/5 171/162/5 192/163/5 193/55/5 
f 168/164/5 167/146/5 182/155/5 194/165/5 
f 176/1/73 175/12/73 172/151/73 171/150/73 
f 177/154/74 180/157/74 174/153/74 173/152/74 
f 175/8/3 186/55/3 184/161/3 172/160/3 
f 174/162/3 180/164/3 188/165/3 185/163/3 
f 176/8/5 193/55/5 191/161/5 173/160/5 
f 171/162/5 168/164/5 194/165/5 192/163/5 
f 195/146/1 196/147/1 197/148/1 198/149/1 
f 199/150/71 200/151/71 197/148/71 196/147/71 
f 201/152/72 202/153/72 203/12/72 204/1/72 
f 205/154/1 206/155/1 207/156/1 208/157/1 
f 195/149/2 198/146/2 209/155/2 210/156/2 
f 198/149/3 197/158/3 211/159/3 209/156/3 
f 200/160/3 212/161/3 211/159/3 197/158/3 
f 203/8/3 202/162/3 213/163/3 214/55/3 
f 208/164/3 207/146/3 215/155/3 216/165/3 
f 207/149/4 206/146/4 217/155/4 215/156/4 
f 206/149/5 205/158/5 218/159/5 217/156/5 
f 201/160/5 219/161/5 218/159/5 205/158/5 
f 204/8/5 199/162/5 220/163/5 221/55/5 
f 196/164/5 195/146/5 210/155/5 222/165/5 
f 204/1/73 203/12/73 200/151/73 199/150/73 
f 205/154/74 208/157/74 202/153/74 201/152/74 
f 203/8/3 214/55/3 212/161/3 200/160/3 
f 202/162/3 208/164/3 216/165/3 213/163/3 
f 204/8/5 221/55/5 219/161/5 201/160/5 
f 199/162/5 196/164/5 222/165/5 220/163/5 
# 192 polygons - 40 triangles

