# 3ds Max Wavefront OBJ Exporter v0.97b - (c)2007 guruware
# File Created: 30.07.2015 04:40:34

#
# object cloth_pile
#

v  -25.1298 0.0000 51.9249
v  -10.3236 0.0000 59.0069
v  -12.2689 1.4161 50.9169
v  1.4877 0.0000 60.5826
v  0.3947 1.8193 50.5099
v  12.3570 0.0000 60.9862
v  13.0878 1.4161 50.5461
v  27.7681 0.0000 52.4865
v  -40.8336 0.0028 42.2449
v  -27.7791 3.0864 41.6619
v  -13.6768 5.6017 40.4914
v  -0.2086 6.6264 39.8045
v  12.4274 5.6017 39.2028
v  25.9339 3.0864 38.7101
v  39.4207 0.0028 39.0417
v  -52.5862 0.0000 26.3291
v  -41.7504 3.0864 28.1130
v  -27.8582 7.7689 27.8582
v  -13.5223 12.2415 26.8437
v  0.0186 14.0697 26.6532
v  13.4209 12.2415 26.5634
v  26.6704 7.7689 25.3997
v  38.7793 3.0864 25.7874
v  53.1561 0.0000 24.7385
v  -62.0107 0.0000 12.8472
v  -53.0144 1.4161 13.4095
v  -41.6306 5.6017 13.9197
v  -27.0259 12.2415 13.5298
v  -13.0577 18.4141 13.1656
v  0.3112 20.8432 13.6237
v  14.5496 18.3277 14.2940
v  28.0450 12.2415 13.3606
v  39.5020 5.6017 13.4172
v  52.8306 1.4161 12.9043
v  63.1546 0.0000 10.7938
v  -53.3855 1.8193 0.0522
v  -65.4760 0.0000 -0.0000
v  -41.0557 6.6264 0.2163
v  -26.7005 14.0884 0.0522
v  -12.9791 20.9177 -0.0000
v  0.3613 23.5182 -0.0876
v  14.7553 20.5725 -0.1056
v  28.6454 14.0020 0.0906
v  40.1021 6.6264 0.2295
v  53.2080 1.8193 0.0660
v  65.4760 0.0000 -0.0000
v  -53.1345 1.4161 -13.4110
v  -63.7639 0.0000 -12.7528
v  -40.6172 5.6017 -13.5609
v  -26.8437 12.2415 -13.5223
v  -13.0087 18.4327 -13.2319
v  0.2764 20.9298 -14.0405
v  14.0071 18.3444 -14.5788
v  27.8627 12.2415 -13.6379
v  39.5791 5.6017 -13.5722
v  52.6249 1.4161 -13.3153
v  62.0243 0.0000 -10.7765
v  -53.2515 0.0000 -26.4959
v  -40.6326 3.0864 -27.0323
v  -27.5737 7.7689 -27.6341
v  -13.6004 12.2536 -26.9754
v  -0.1778 14.1325 -27.2679
v  13.7026 12.2496 -27.6744
v  27.4979 7.8166 -27.5465
v  39.3695 3.0864 -27.8270
v  52.5186 0.0000 -27.7687
v  -41.7896 0.0028 -40.6663
v  -28.1253 3.0864 -41.8900
v  -13.8269 5.5996 -40.6454
v  -0.0901 6.6343 -39.8056
v  13.6176 5.6638 -39.8051
v  27.9790 3.2894 -40.9520
v  42.1325 0.0028 -42.5410
v  -26.9433 0.0000 -55.3277
v  -13.4669 1.4161 -53.3941
v  0.0103 1.8173 -53.1291
v  13.5752 1.4202 -53.3625
v  28.2341 0.0000 -56.4682
v  -12.7528 0.0000 -63.7639
v  0.0000 0.0000 -65.4760
v  12.7528 0.0000 -63.7639
# 81 vertices

vn -0.1329 0.9397 0.3150
vn -0.0464 0.9819 0.1837
vn -0.0580 0.9552 0.2903
vn -0.0021 0.9859 0.1670
vn 0.0130 0.9574 0.2886
vn 0.0265 0.9903 0.1362
vn 0.0641 0.9710 0.2302
vn 0.1150 0.9756 0.1868
vn -0.2547 0.9277 0.2729
vn -0.1870 0.9240 0.3337
vn -0.0897 0.9086 0.4080
vn 0.0303 0.8949 0.4452
vn 0.1464 0.9063 0.3964
vn 0.1963 0.9434 0.2675
vn 0.2152 0.9550 0.2043
vn -0.2852 0.9454 0.1576
vn -0.3149 0.9266 0.2057
vn -0.2857 0.9128 0.2919
vn -0.1773 0.8955 0.4082
vn 0.0136 0.8834 0.4684
vn 0.2303 0.8618 0.4519
vn 0.3329 0.8777 0.3447
vn 0.2764 0.9365 0.2160
vn 0.2046 0.9693 0.1363
vn -0.1562 0.9858 0.0615
vn -0.2573 0.9632 0.0779
vn -0.3788 0.9192 0.1076
vn -0.3940 0.9011 0.1811
vn -0.2707 0.9239 0.2703
vn -0.0021 0.9497 0.3130
vn 0.2818 0.9096 0.3052
vn 0.4449 0.8598 0.2505
vn 0.3864 0.9076 0.1642
vn 0.2172 0.9722 0.0875
vn 0.1464 0.9878 0.0534
vn -0.2517 0.9678 -0.0038
vn -0.1453 0.9894 0.0053
vn -0.4082 0.9127 -0.0206
vn -0.4413 0.8972 -0.0153
vn -0.3108 0.9505 -0.0044
vn 0.0031 1.0000 0.0063
vn 0.3086 0.9512 0.0015
vn 0.4778 0.8784 0.0071
vn 0.4356 0.9000 0.0145
vn 0.2408 0.9706 0.0030
vn 0.1456 0.9893 -0.0054
vn -0.2207 0.9723 -0.0774
vn -0.1348 0.9898 -0.0467
vn -0.3687 0.9200 -0.1332
vn -0.3999 0.8939 -0.2024
vn -0.2904 0.9154 -0.2787
vn -0.0177 0.9492 -0.3141
vn 0.2723 0.9204 -0.2804
vn 0.4342 0.8786 -0.1990
vn 0.3989 0.9088 -0.1224
vn 0.2436 0.9669 -0.0758
vn 0.1587 0.9857 -0.0567
vn -0.2189 0.9672 -0.1290
vn -0.2871 0.9393 -0.1878
vn -0.3002 0.9095 -0.2875
vn -0.2065 0.8907 -0.4050
vn -0.0273 0.8807 -0.4730
vn 0.1803 0.8841 -0.4312
vn 0.3179 0.9025 -0.2905
vn 0.3135 0.9342 -0.1702
vn 0.2374 0.9618 -0.1366
vn -0.2351 0.9500 -0.2053
vn -0.1928 0.9456 -0.2619
vn -0.1065 0.9268 -0.3601
vn -0.0070 0.9094 -0.4158
vn 0.0873 0.9185 -0.3857
vn 0.1817 0.9443 -0.2743
vn 0.2365 0.9510 -0.1993
vn -0.1144 0.9708 -0.2110
vn -0.0594 0.9736 -0.2202
vn -0.0046 0.9705 -0.2412
vn 0.0408 0.9724 -0.2298
vn 0.1162 0.9707 -0.2104
vn -0.0414 0.9896 -0.1380
vn -0.0018 0.9896 -0.1437
vn 0.0392 0.9893 -0.1408
# 81 vertex normals

vt 0.2985 0.0965 0.0000
vt 0.4093 0.0398 0.0000
vt 0.3966 0.1002 0.0000
vt 0.4992 0.0254 0.0000
vt 0.4932 0.1002 0.0000
vt 0.5825 0.0209 0.0000
vt 0.5898 0.0979 0.0000
vt 0.7004 0.0817 0.0000
vt 0.1810 0.1750 0.0000
vt 0.2812 0.1766 0.0000
vt 0.3889 0.1819 0.0000
vt 0.4913 0.1847 0.0000
vt 0.5878 0.1855 0.0000
vt 0.6915 0.1855 0.0000
vt 0.7953 0.1802 0.0000
vt 0.0965 0.2988 0.0000
vt 0.1786 0.2834 0.0000
vt 0.2856 0.2833 0.0000
vt 0.3950 0.2907 0.0000
vt 0.4950 0.2917 0.0000
vt 0.5946 0.2875 0.0000
vt 0.6978 0.2889 0.0000
vt 0.7927 0.2821 0.0000
vt 0.9012 0.2897 0.0000
vt 0.0289 0.4011 0.0000
vt 0.0955 0.3963 0.0000
vt 0.1835 0.3911 0.0000
vt 0.2983 0.3927 0.0000
vt 0.4059 0.3964 0.0000
vt 0.5003 0.3932 0.0000
vt 0.6001 0.3839 0.0000
vt 0.7044 0.3833 0.0000
vt 0.7987 0.3774 0.0000
vt 0.9004 0.3799 0.0000
vt 0.9770 0.3944 0.0000
vt 0.0937 0.4971 0.0000
vt 0.0043 0.4985 0.0000
vt 0.1894 0.4943 0.0000
vt 0.3047 0.4925 0.0000
vt 0.4108 0.4896 0.0000
vt 0.5024 0.4881 0.0000
vt 0.6020 0.4859 0.0000
vt 0.7082 0.4813 0.0000
vt 0.8045 0.4776 0.0000
vt 0.9057 0.4774 0.0000
vt 0.9964 0.4768 0.0000
vt 0.0976 0.5989 0.0000
vt 0.0192 0.5951 0.0000
vt 0.1936 0.5983 0.0000
vt 0.3033 0.5929 0.0000
vt 0.4099 0.5836 0.0000
vt 0.5037 0.5843 0.0000
vt 0.6008 0.5883 0.0000
vt 0.7077 0.5829 0.0000
vt 0.8035 0.5824 0.0000
vt 0.9025 0.5789 0.0000
vt 0.9719 0.5595 0.0000
vt 0.0989 0.6983 0.0000
vt 0.1948 0.7009 0.0000
vt 0.2968 0.7011 0.0000
vt 0.4037 0.6900 0.0000
vt 0.5033 0.6871 0.0000
vt 0.6059 0.6900 0.0000
vt 0.7115 0.6899 0.0000
vt 0.8048 0.6910 0.0000
vt 0.9037 0.6880 0.0000
vt 0.1889 0.8052 0.0000
vt 0.2942 0.8108 0.0000
vt 0.4027 0.7988 0.0000
vt 0.5065 0.7903 0.0000
vt 0.6108 0.7881 0.0000
vt 0.7201 0.7936 0.0000
vt 0.8278 0.8023 0.0000
vt 0.3060 0.9119 0.0000
vt 0.4075 0.8961 0.0000
vt 0.5096 0.8923 0.0000
vt 0.6122 0.8908 0.0000
vt 0.7231 0.9107 0.0000
vt 0.4144 0.9725 0.0000
vt 0.5113 0.9832 0.0000
vt 0.6076 0.9679 0.0000
# 81 texture coords

g cloth_pile
s 1
f 1/1/1 2/2/2 3/3/3 
f 2/2/2 4/4/4 5/5/5 3/3/3 
f 4/4/4 6/6/6 7/7/7 5/5/5 
f 7/7/7 6/6/6 8/8/8 
f 9/9/9 1/1/1 10/10/10 
f 1/1/1 3/3/3 11/11/11 10/10/10 
f 3/3/3 5/5/5 12/12/12 11/11/11 
f 5/5/5 7/7/7 13/13/13 12/12/12 
f 7/7/7 8/8/8 14/14/14 13/13/13 
f 14/14/14 8/8/8 15/15/15 
f 16/16/16 9/9/9 17/17/17 
f 9/9/9 10/10/10 18/18/18 17/17/17 
f 10/10/10 11/11/11 19/19/19 18/18/18 
f 11/11/11 12/12/12 20/20/20 19/19/19 
f 12/12/12 13/13/13 21/21/21 20/20/20 
f 13/13/13 14/14/14 22/22/22 21/21/21 
f 23/23/23 22/22/22 14/14/14 15/15/15 
f 23/23/23 15/15/15 24/24/24 
f 25/25/25 16/16/16 26/26/26 
f 16/16/16 17/17/17 27/27/27 26/26/26 
f 17/17/17 18/18/18 28/28/28 27/27/27 
f 18/18/18 19/19/19 29/29/29 28/28/28 
f 19/19/19 20/20/20 30/30/30 29/29/29 
f 20/20/20 21/21/21 31/31/31 30/30/30 
f 21/21/21 22/22/22 32/32/32 31/31/31 
f 22/22/22 23/23/23 33/33/33 32/32/32 
f 23/23/23 24/24/24 34/34/34 33/33/33 
f 34/34/34 24/24/24 35/35/35 
f 25/25/25 26/26/26 36/36/36 37/37/37 
f 26/26/26 27/27/27 38/38/38 36/36/36 
f 27/27/27 28/28/28 39/39/39 38/38/38 
f 28/28/28 29/29/29 40/40/40 39/39/39 
f 29/29/29 30/30/30 41/41/41 40/40/40 
f 30/30/30 31/31/31 42/42/42 41/41/41 
f 31/31/31 32/32/32 43/43/43 42/42/42 
f 32/32/32 33/33/33 44/44/44 43/43/43 
f 33/33/33 34/34/34 45/45/45 44/44/44 
f 34/34/34 35/35/35 46/46/46 45/45/45 
f 37/37/37 36/36/36 47/47/47 48/48/48 
f 36/36/36 38/38/38 49/49/49 47/47/47 
f 38/38/38 39/39/39 50/50/50 49/49/49 
f 39/39/39 40/40/40 51/51/51 50/50/50 
f 40/40/40 41/41/41 52/52/52 51/51/51 
f 41/41/41 42/42/42 53/53/53 52/52/52 
f 42/42/42 43/43/43 54/54/54 53/53/53 
f 43/43/43 44/44/44 55/55/55 54/54/54 
f 44/44/44 45/45/45 56/56/56 55/55/55 
f 45/45/45 46/46/46 57/57/57 56/56/56 
f 48/48/48 47/47/47 58/58/58 
f 47/47/47 49/49/49 59/59/59 58/58/58 
f 49/49/49 50/50/50 60/60/60 59/59/59 
f 50/50/50 51/51/51 61/61/61 60/60/60 
f 51/51/51 52/52/52 62/62/62 61/61/61 
f 52/52/52 53/53/53 63/63/63 62/62/62 
f 53/53/53 54/54/54 64/64/64 63/63/63 
f 54/54/54 55/55/55 65/65/65 64/64/64 
f 55/55/55 56/56/56 66/66/66 65/65/65 
f 66/66/66 56/56/56 57/57/57 
f 58/58/58 59/59/59 67/67/67 
f 59/59/59 60/60/60 68/68/68 67/67/67 
f 60/60/60 61/61/61 69/69/69 68/68/68 
f 61/61/61 62/62/62 70/70/70 69/69/69 
f 62/62/62 63/63/63 71/71/71 70/70/70 
f 63/63/63 64/64/64 72/72/72 71/71/71 
f 64/64/64 65/65/65 73/73/73 72/72/72 
f 73/73/73 65/65/65 66/66/66 
f 67/67/67 68/68/68 74/74/74 
f 68/68/68 69/69/69 75/75/75 74/74/74 
f 69/69/69 70/70/70 76/76/76 75/75/75 
f 70/70/70 71/71/71 77/77/77 76/76/76 
f 71/71/71 72/72/72 78/78/78 77/77/77 
f 72/72/72 73/73/73 78/78/78 
f 74/74/74 75/75/75 79/79/79 
f 75/75/75 76/76/76 80/80/80 79/79/79 
f 76/76/76 77/77/77 81/81/81 80/80/80 
f 77/77/77 78/78/78 81/81/81 
# 60 polygons - 16 triangles

