# 3ds Max Wavefront OBJ Exporter v0.97b - (c)2007 guruware
# File Created: 08.02.2015 01:10:36

#
# object marker
#

v  0.0690 5.0652 0.1251
v  0.2532 0.0000 0.1049
v  0.1049 0.0000 -0.2532
v  -0.1071 5.1238 -0.3042
v  -0.2532 0.0000 -0.1049
v  -0.5373 5.1238 -0.1260
v  -0.1049 0.0000 0.2532
v  -0.3591 5.1238 0.3042
v  0.4968 13.4189 0.1877
v  0.2325 13.3957 -0.4530
v  0.3453 14.3540 -0.3972
v  0.5091 14.3419 0.0000
v  -0.0504 14.3971 -0.5617
v  -0.4058 13.3399 -0.1877
v  -0.4191 14.5296 -0.3972
v  -0.5830 14.5418 0.0000
v  -0.1415 13.3630 0.4530
v  -0.4191 14.5296 0.3972
v  -0.0504 14.3971 0.5617
v  0.3453 14.3540 0.3972
v  0.6754 12.0419 0.2116
v  0.3773 12.0158 -0.5110
v  0.6037 12.4232 -0.4726
v  0.7987 12.4410 -0.0000
v  0.1329 12.3802 -0.6683
v  -0.3426 11.9529 -0.2116
v  -0.3378 12.3373 -0.4726
v  -0.5328 12.3195 -0.0000
v  -0.0444 11.9789 0.5110
v  -0.3378 12.3373 0.4726
v  0.1329 12.3802 0.6683
v  0.6037 12.4232 0.4726
v  0.6625 11.6568 -0.4643
v  0.8541 11.6743 -0.0000
v  0.6436 11.3607 0.1762
v  0.3954 11.3390 -0.4254
v  0.1999 11.6145 -0.6567
v  -0.2626 11.5723 -0.4643
v  -0.2040 11.2865 -0.1762
v  -0.4542 11.5548 -0.0000
v  -0.2626 11.5723 0.4643
v  0.0443 11.3083 0.4254
v  0.1999 11.6145 0.6567
v  0.6625 11.6568 0.4643
v  0.7434 13.2078 -0.0000
v  0.5449 13.1896 -0.4808
v  0.5449 13.1896 0.4808
v  0.0659 13.1459 0.6800
v  -0.4131 13.1022 0.4808
v  -0.6115 13.0841 -0.0000
v  -0.4131 13.1022 -0.4808
v  0.0659 13.1459 -0.6800
v  0.7252 10.5670 0.1489
v  0.6600 10.2348 -0.2943
v  0.3657 10.2348 -0.4162
v  0.0713 10.2060 -0.2943
v  -0.0506 10.2060 -0.0000
v  0.0713 10.2060 0.2943
v  0.3657 10.2348 0.4162
v  1.2981 10.3006 0.2117
v  1.1747 10.3006 0.5096
v  0.7559 9.8545 0.1454
v  1.1670 10.6689 0.1332
v  1.0163 10.6689 0.4997
v  0.2687 7.8932 0.1353
v  0.0992 8.0685 -0.3298
v  -0.3672 8.0685 -0.1366
v  -0.1740 8.0685 0.3298
v  0.6218 12.8088 0.2172
v  0.3158 12.7820 -0.5243
v  -0.4229 12.7174 -0.2172
v  -0.1169 12.7441 0.5243
v  -1.3832 0.0000 0.6916
v  -0.6916 0.0000 1.3832
v  -0.7367 0.4415 0.7367
v  0.0000 0.0000 1.5000
v  0.6916 0.0000 1.3832
v  0.7367 0.4415 0.7367
v  1.3832 0.0000 0.6916
v  -1.5000 0.0000 -0.0000
v  -0.7367 0.4415 -0.7367
v  0.0000 0.5990 0.0000
v  1.5000 0.0000 -0.0000
v  -1.3832 0.0000 -0.6916
v  0.7367 0.4415 -0.7367
v  -0.6916 0.0000 -1.3832
v  0.0000 0.0000 -1.5000
v  0.6916 0.0000 -1.3832
v  1.3832 0.0000 -0.6916
# 89 vertices

vn 0.9202 -0.0139 0.3913
vn 0.9263 0.0322 0.3754
vn 0.4003 0.0079 -0.9164
vn 0.3618 -0.0151 -0.9321
vn -0.9194 -0.0526 -0.3897
vn -0.9274 -0.0003 -0.3741
vn -0.3646 -0.0271 0.9308
vn -0.4026 -0.0061 0.9154
vn 0.7939 0.5004 0.3456
vn 0.3064 0.4564 -0.8354
vn 0.6144 0.5790 -0.5360
vn 0.8057 0.5911 -0.0379
vn 0.0264 0.5476 -0.8363
vn -0.8672 0.3681 -0.3354
vn -0.4316 0.6749 -0.5985
vn -0.7967 0.6036 0.0307
vn -0.3904 0.4056 0.8265
vn -0.4770 0.6703 0.5685
vn 0.0927 0.5499 0.8300
vn 0.5666 0.5754 0.5898
vn 0.9214 0.0655 0.3830
vn 0.3826 0.0172 -0.9237
vn 0.7738 0.0575 -0.6309
vn 0.9917 0.0776 -0.1025
vn -0.1010 -0.0201 -0.9947
vn -0.9186 -0.0995 -0.3824
vn -0.6273 -0.0688 -0.7757
vn -0.9896 -0.1010 0.1028
vn -0.3794 -0.0511 0.9238
vn -0.7719 -0.0808 0.6306
vn 0.1037 -0.0031 0.9946
vn 0.6288 0.0454 0.7762
vn 0.7740 -0.0639 -0.6300
vn 0.9945 -0.0440 -0.0947
vn 0.8640 -0.3727 0.3384
vn 0.3781 -0.4135 -0.8283
vn -0.0820 -0.1359 -0.9873
vn -0.6164 -0.1837 -0.7657
vn -0.7835 -0.5217 -0.3376
vn -0.9722 -0.2136 0.0957
vn -0.7510 -0.1938 0.6312
vn -0.3116 -0.4733 0.8239
vn 0.1080 -0.1218 0.9867
vn 0.6400 -0.0739 0.7648
vn 0.9621 0.2533 -0.1008
vn 0.7472 0.2329 -0.6225
vn 0.6043 0.2213 0.7654
vn 0.0867 0.1724 0.9812
vn -0.7772 0.0948 0.6221
vn -0.9920 0.0745 0.1016
vn -0.6348 0.1065 -0.7653
vn -0.1150 0.1555 -0.9811
vn 0.3912 0.9174 0.0728
vn 0.6308 -0.0375 -0.7750
vn 0.0110 -0.0256 -0.9996
vn -0.6667 -0.0015 -0.7454
vn -0.9996 0.0062 0.0287
vn -0.7061 -0.0016 0.7081
vn -0.0639 -0.0514 0.9966
vn 0.9613 -0.2262 -0.1571
vn 0.5755 -0.2454 0.7802
vn 0.7876 -0.5577 0.2621
vn 0.5529 0.7574 -0.3473
vn 0.1334 0.7370 0.6626
vn 0.9090 -0.1340 0.3947
vn 0.3468 -0.0975 -0.9329
vn -0.9247 0.0719 -0.3738
vn -0.4023 0.0114 0.9154
vn 0.9214 0.0654 0.3830
vn 0.3827 0.0172 -0.9237
vn -0.9186 -0.0995 -0.3825
vn -0.5588 0.7938 0.2401
vn -0.2401 0.7938 0.5588
vn -0.3057 0.9017 0.3057
vn 0.0000 0.8443 0.5358
vn 0.2401 0.7938 0.5588
vn 0.3057 0.9017 0.3057
vn 0.5588 0.7938 0.2401
vn -0.5358 0.8443 -0.0000
vn -0.3057 0.9017 -0.3057
vn -0.0000 1.0000 -0.0000
vn 0.5358 0.8443 -0.0000
vn -0.5588 0.7938 -0.2401
vn 0.3057 0.9017 -0.3057
vn -0.2401 0.7938 -0.5588
vn -0.0000 0.8443 -0.5358
vn 0.2401 0.7938 -0.5588
vn 0.5588 0.7938 -0.2401
# 88 vertex normals

vt 0.1651 0.2686 1.0000
vt 0.1651 0.0162 1.0000
vt 0.2180 0.0162 1.0000
vt 0.2180 0.2686 1.0000
vt 0.0180 0.2686 1.0000
vt 0.0180 0.0162 1.0000
vt 0.0581 0.0162 1.0000
vt 0.0581 0.2686 1.0000
vt 0.1114 0.0162 1.0000
vt 0.1114 0.2686 1.0000
vt 0.1651 0.9305 1.0000
vt 0.2180 0.9305 1.0000
vt 0.2047 0.9768 1.0000
vt 0.1780 0.9768 1.0000
vt 0.2313 0.9768 1.0000
vt 0.0180 0.9768 1.0000
vt 0.0180 0.9305 1.0000
vt 0.0576 0.9305 1.0000
vt 0.0448 0.9803 1.0000
vt 0.0715 0.9803 1.0000
vt 0.1114 0.9305 1.0000
vt 0.0981 0.9803 1.0000
vt 0.1248 0.9768 1.0000
vt 0.1514 0.9768 1.0000
vt 0.1651 0.7855 1.0000
vt 0.2180 0.7855 1.0000
vt 0.2047 0.8223 1.0000
vt 0.1780 0.8223 1.0000
vt 0.2313 0.8223 1.0000
vt 0.0180 0.7855 1.0000
vt 0.0581 0.7855 1.0000
vt 0.0448 0.8223 1.0000
vt 0.0180 0.8223 1.0000
vt 0.0715 0.8223 1.0000
vt 0.1114 0.7855 1.0000
vt 0.0981 0.8223 1.0000
vt 0.1248 0.8223 1.0000
vt 0.1514 0.8223 1.0000
vt 0.2047 0.7487 1.0000
vt 0.1780 0.7487 1.0000
vt 0.1651 0.7075 1.0000
vt 0.2189 0.7075 1.0000
vt 0.2313 0.7487 1.0000
vt 0.0448 0.7487 1.0000
vt 0.0180 0.7487 1.0000
vt 0.0180 0.7075 1.0000
vt 0.0581 0.7075 1.0000
vt 0.0715 0.7487 1.0000
vt 0.0981 0.7487 1.0000
vt 0.1117 0.7075 1.0000
vt 0.1248 0.7487 1.0000
vt 0.1514 0.7487 1.0000
vt 0.1780 0.8958 1.0000
vt 0.2047 0.8958 1.0000
vt 0.1514 0.8958 1.0000
vt 0.1248 0.8958 1.0000
vt 0.0981 0.8958 1.0000
vt 0.0715 0.8958 1.0000
vt 0.0448 0.8958 1.0000
vt 0.0180 0.8958 1.0000
vt 0.2313 0.8958 1.0000
vt 0.1651 0.6556 1.0000
vt 0.2047 0.6336 1.0000
vt 0.2313 0.6336 1.0000
vt 0.0180 0.6336 1.0000
vt 0.0448 0.6336 1.0000
vt 0.0715 0.6336 1.0000
vt 0.0981 0.6336 1.0000
vt 0.1248 0.6336 1.0000
vt 0.4159 0.9105 0.0000
vt 0.3834 0.9110 0.0000
vt 0.3997 0.8565 0.0000
vt 0.4493 0.9712 0.0000
vt 0.4087 0.9340 0.0000
vt 0.4004 0.9660 0.0000
vt 0.3897 0.9341 0.0000
vt 0.3509 0.9722 0.0000
vt 0.3286 0.9277 0.0000
vt 0.4702 0.9282 0.0000
vt 0.1651 0.4473 1.0000
vt 0.2180 0.4473 1.0000
vt 0.0180 0.4473 1.0000
vt 0.0581 0.4473 1.0000
vt 0.1114 0.4473 1.0000
vt 0.3394 0.8802 0.0000
vt 0.3116 0.8917 0.0000
vt 0.2838 0.8802 0.0000
vt 0.3509 0.8428 0.0000
vt 0.2723 0.8428 0.0000
vt 0.3394 0.8148 0.0000
vt 0.2838 0.8148 0.0000
vt 0.3116 0.8033 0.0000
vt 0.1651 0.8591 1.0000
vt 0.2180 0.8591 1.0000
vt 0.0180 0.8591 1.0000
vt 0.0581 0.8591 1.0000
vt 0.1114 0.8591 1.0000
vt 0.1651 0.5939 1.0000
vt 0.2697 0.0729 0.0000
vt 0.3195 0.0232 0.0000
vt 0.3162 0.0697 0.0000
vt 0.3692 0.0148 0.0000
vt 0.4190 0.0232 0.0000
vt 0.4222 0.0697 0.0000
vt 0.4687 0.0729 0.0000
vt 0.2613 0.1227 0.0000
vt 0.3162 0.1757 0.0000
vt 0.3692 0.1227 0.0000
vt 0.4771 0.1227 0.0000
vt 0.2697 0.1724 0.0000
vt 0.4222 0.1757 0.0000
vt 0.3195 0.2222 0.0000
vt 0.3692 0.2306 0.0000
vt 0.4190 0.2222 0.0000
vt 0.4687 0.1724 0.0000
# 115 texture coords

g marker
s 1
f 1/1/1 2/2/2 3/3/3 4/4/4 
f 4/5/4 3/6/3 5/7/5 6/8/6 
f 6/8/6 5/7/5 7/9/7 8/10/8 
f 1/1/1 8/10/8 7/9/7 2/2/2 
f 9/11/9 10/12/10 11/13/11 12/14/12 
f 10/12/10 13/15/13 11/13/11 
f 13/16/13 10/17/10 14/18/14 15/19/15 
f 14/18/14 16/20/16 15/19/15 
f 16/20/16 14/18/14 17/21/17 18/22/18 
f 17/21/17 19/23/19 18/22/18 
f 17/21/17 9/11/9 20/24/20 19/23/19 
f 9/11/9 12/14/12 20/24/20 
f 21/25/21 22/26/22 23/27/23 24/28/24 
f 25/29/25 23/27/23 22/26/22 
f 22/30/22 26/31/26 27/32/27 25/33/25 
f 28/34/28 27/32/27 26/31/26 
f 26/31/26 29/35/29 30/36/30 28/34/28 
f 31/37/31 30/36/30 29/35/29 
f 29/35/29 21/25/21 32/38/32 31/37/31 
f 24/28/24 32/38/32 21/25/21 
f 33/39/33 34/40/34 35/41/35 36/42/36 
f 36/42/36 37/43/37 33/39/33 
f 38/44/38 37/45/37 36/46/36 39/47/39 
f 39/47/39 40/48/40 38/44/38 
f 41/49/41 40/48/40 39/47/39 42/50/42 
f 42/50/42 43/51/43 41/49/41 
f 44/52/44 43/51/43 42/50/42 35/41/35 
f 35/41/35 34/40/34 44/52/44 
f 45/53/45 46/54/46 10/12/10 9/11/9 
f 9/11/9 47/55/47 45/53/45 
f 48/56/48 47/55/47 9/11/9 17/21/17 
f 17/21/17 49/57/49 48/56/48 
f 50/58/50 49/57/49 17/21/17 14/18/14 
f 14/18/14 51/59/51 50/58/50 
f 52/60/52 51/59/51 14/18/14 10/17/10 
f 10/12/10 46/54/46 52/61/52 
f 53/62/53 54/63/54 36/42/36 35/41/35 
f 55/64/55 36/42/36 54/63/54 
f 55/65/55 56/66/56 39/47/39 36/46/36 
f 57/67/57 39/47/39 56/66/56 
f 57/67/57 58/68/58 42/50/42 39/47/39 
f 59/69/59 42/50/42 58/68/58 
f 59/69/59 53/62/53 35/41/35 42/50/42 
f 60/70/60 61/71/61 62/72/62 
f 54/73/54 63/74/63 60/70/60 
f 53/75/53 64/76/64 63/74/63 
f 53/75/53 59/77/59 64/76/64 
f 54/73/54 53/75/53 63/74/63 
f 63/74/63 64/76/64 61/71/61 60/70/60 
f 61/71/61 64/76/64 59/77/59 
f 59/77/59 62/78/62 61/71/61 
f 60/70/60 62/79/62 54/73/54 
f 65/80/65 1/1/1 4/4/4 66/81/66 
f 66/82/66 4/5/4 6/8/6 67/83/67 
f 6/8/6 8/10/8 68/84/68 67/83/67 
f 8/10/8 1/1/1 65/80/65 68/84/68 
f 15/85/15 16/86/16 18/87/18 
f 13/88/13 15/85/15 18/87/18 19/89/19 
f 11/90/11 13/88/13 19/89/19 20/91/20 
f 11/90/11 20/91/20 12/92/12 
f 69/93/69 70/94/70 46/54/46 45/53/45 
f 24/28/24 23/27/23 70/94/70 69/93/69 
f 22/26/22 21/25/21 34/40/34 33/39/33 
f 70/94/70 52/61/52 46/54/46 
f 25/29/25 70/94/70 23/27/23 
f 22/26/22 33/39/33 37/43/37 
f 70/95/70 71/96/71 51/59/51 52/60/52 
f 25/33/25 27/32/27 71/96/71 70/95/70 
f 26/31/26 22/30/22 37/45/37 38/44/38 
f 71/96/71 50/58/50 51/59/51 
f 28/34/28 71/96/71 27/32/27 
f 26/31/26 38/44/38 40/48/40 
f 71/96/71 72/97/29 49/57/49 50/58/50 
f 28/34/28 30/36/30 72/97/29 71/96/71 
f 29/35/29 26/31/26 40/48/40 41/49/41 
f 72/97/29 48/56/48 49/57/49 
f 31/37/31 72/97/29 30/36/30 
f 29/35/29 41/49/41 43/51/43 
f 72/97/29 69/93/69 47/55/47 48/56/48 
f 31/37/31 32/38/32 69/93/69 72/97/29 
f 21/25/21 29/35/29 43/51/43 44/52/44 
f 69/93/69 45/53/45 47/55/47 
f 24/28/24 69/93/69 32/38/32 
f 21/25/21 44/52/44 34/40/34 
f 62/98/62 65/80/65 66/81/66 54/63/54 
f 66/81/66 55/64/55 54/63/54 
f 55/65/55 66/82/66 67/83/67 56/66/56 
f 67/83/67 57/67/57 56/66/56 
f 67/83/67 68/84/68 58/68/58 57/67/57 
f 68/84/68 59/69/59 58/68/58 
f 68/84/68 65/80/65 62/98/62 59/69/59 
f 73/99/72 74/100/73 75/101/74 
f 74/100/73 76/102/75 75/101/74 
f 76/102/75 77/103/76 78/104/77 
f 78/104/77 77/103/76 79/105/78 
f 73/99/72 75/101/74 80/106/79 
f 81/107/80 75/101/74 82/108/81 
f 82/108/81 75/101/74 78/104/77 
f 78/104/77 79/105/78 83/109/82 
f 84/110/83 80/106/79 81/107/80 
f 81/107/80 82/108/81 85/111/84 
f 82/108/81 78/104/77 85/111/84 
f 78/104/77 83/109/82 85/111/84 
f 84/110/83 81/107/80 86/112/85 
f 81/107/80 85/111/84 87/113/86 
f 87/113/86 85/111/84 88/114/87 
f 88/114/87 85/111/84 89/115/88 
f 83/109/82 89/115/88 85/111/84 
f 87/113/86 86/112/85 81/107/80 
f 75/101/74 81/107/80 80/106/79 
f 78/104/77 75/101/74 76/102/75 
# 47 polygons - 64 triangles

