# 3ds Max Wavefront OBJ Exporter v0.97b - (c)2007 guruware
# File Created: 30.07.2015 17:10:45

#
# object clay_pot
#

v  -0.0000 0.0000 -10.5211
v  -4.0263 0.0000 -9.7203
v  -5.7403 20.0000 -13.8582
v  -0.0000 20.0000 -15.0000
v  -7.4396 0.0000 -7.4396
v  -10.6066 20.0000 -10.6066
v  -9.7203 0.0000 -4.0263
v  -13.8582 20.0000 -5.7402
v  -10.5211 0.0000 0.0000
v  -15.0000 20.0000 0.0000
v  -9.7203 0.0000 4.0263
v  -13.8582 20.0000 5.7403
v  -7.4396 0.0000 7.4396
v  -10.6066 20.0000 10.6066
v  -4.0263 0.0000 9.7203
v  -5.7403 20.0000 13.8582
v  0.0000 0.0000 10.5211
v  0.0000 20.0000 15.0000
v  4.0263 0.0000 9.7203
v  5.7403 20.0000 13.8582
v  7.4396 0.0000 7.4396
v  10.6066 20.0000 10.6066
v  9.7203 0.0000 4.0263
v  13.8582 20.0000 5.7403
v  10.5211 0.0000 -0.0000
v  15.0000 20.0000 -0.0000
v  9.7203 0.0000 -4.0263
v  13.8582 20.0000 -5.7403
v  7.4396 0.0000 -7.4396
v  10.6066 20.0000 -10.6066
v  4.0263 0.0000 -9.7203
v  5.7402 20.0000 -13.8582
v  0.0000 20.5000 -16.2750
v  -6.2282 20.5000 -15.0361
v  -6.2282 29.5000 -15.0361
v  0.0000 29.5000 -16.2750
v  -11.5082 20.5000 -11.5082
v  -11.5082 29.5000 -11.5082
v  -15.0361 20.5000 -6.2282
v  -15.0361 29.5000 -6.2282
v  -16.2750 20.5000 0.0001
v  -16.2750 29.5000 -0.0001
v  -15.0361 20.5000 6.2282
v  -15.0361 29.5000 6.2282
v  -11.5082 20.5000 11.5082
v  -11.5082 29.5000 11.5082
v  -6.2282 20.5000 15.0361
v  -6.2282 29.5000 15.0361
v  0.0000 20.5000 16.2750
v  0.0000 29.5000 16.2750
v  6.2282 20.5000 15.0361
v  6.2282 29.5000 15.0361
v  11.5082 20.5000 11.5082
v  11.5082 29.5000 11.5082
v  15.0361 20.5000 6.2282
v  15.0361 29.5000 6.2282
v  16.2750 20.5000 -0.0000
v  16.2750 29.5000 0.0000
v  15.0361 20.5000 -6.2282
v  15.0361 29.5000 -6.2282
v  11.5082 20.5000 -11.5082
v  11.5082 29.5000 -11.5082
v  6.2282 20.5000 -15.0361
v  6.2282 29.5000 -15.0361
v  -9.1483 10.0000 -3.7893
v  -9.9020 10.0000 0.0000
v  -9.1483 10.0000 3.7894
v  -5.7403 30.0000 -13.8582
v  -0.0000 30.0000 -15.0000
v  5.7402 30.0000 -13.8582
v  10.6066 30.0000 -10.6066
v  13.8582 30.0000 -5.7403
v  15.0000 30.0000 -0.0000
v  13.8582 30.0000 5.7403
v  10.6066 30.0000 10.6066
v  5.7403 30.0000 13.8582
v  0.0000 30.0000 15.0000
v  -5.7403 30.0000 13.8582
v  -10.6066 30.0000 10.6066
v  -13.8582 30.0000 5.7403
v  -15.0000 30.0000 0.0000
v  -13.8582 30.0000 -5.7402
v  -10.6066 30.0000 -10.6066
v  -3.7894 10.0000 -9.1483
v  -0.0000 10.0000 -9.9020
v  -7.0018 10.0000 -7.0018
v  -7.0018 10.0000 7.0018
v  -3.7893 10.0000 9.1483
v  0.0000 10.0000 9.9020
v  3.7893 10.0000 9.1483
v  7.0018 10.0000 7.0018
v  9.1483 10.0000 3.7893
v  9.9020 10.0000 -0.0000
v  9.1483 10.0000 -3.7894
v  7.0018 10.0000 -7.0018
v  3.7893 10.0000 -9.1483
# 96 vertices

vn -0.0000 -0.2185 -0.9758
vn -0.3734 -0.2185 -0.9015
vn -0.6900 -0.2185 -0.6900
vn -0.9015 -0.2185 -0.3734
vn -0.9758 -0.2185 0.0000
vn -0.9015 -0.2185 0.3734
vn -0.6900 -0.2185 0.6900
vn -0.3734 -0.2185 0.9015
vn 0.0000 -0.2185 0.9758
vn 0.3734 -0.2185 0.9015
vn 0.6900 -0.2185 0.6900
vn 0.9015 -0.2185 0.3734
vn 0.9758 -0.2185 -0.0000
vn 0.9015 -0.2185 -0.3734
vn 0.6900 -0.2185 -0.6900
vn 0.3734 -0.2185 -0.9015
vn 0.0000 -0.5330 -0.8461
vn -0.3238 -0.5330 -0.7817
vn -0.3238 0.5330 -0.7817
vn 0.0000 0.5330 -0.8461
vn -0.5983 -0.5330 -0.5983
vn -0.5983 0.5330 -0.5983
vn -0.7817 -0.5330 -0.3238
vn -0.7817 0.5330 -0.3238
vn -0.8461 -0.5330 0.0000
vn -0.8461 0.5330 -0.0000
vn -0.7817 -0.5330 0.3238
vn -0.7817 0.5330 0.3238
vn -0.5983 -0.5330 0.5983
vn -0.5983 0.5330 0.5983
vn -0.3238 -0.5330 0.7817
vn -0.3238 0.5330 0.7817
vn 0.0000 -0.5330 0.8461
vn 0.0000 0.5330 0.8461
vn 0.3238 -0.5330 0.7817
vn 0.3238 0.5330 0.7817
vn 0.5983 -0.5330 0.5983
vn 0.5983 0.5330 0.5983
vn 0.7817 -0.5330 0.3238
vn 0.7817 0.5330 0.3238
vn 0.8461 -0.5330 -0.0000
vn 0.8461 0.5330 0.0000
vn 0.7817 -0.5330 -0.3238
vn 0.7817 0.5330 -0.3238
vn 0.5983 -0.5330 -0.5983
vn 0.5983 0.5330 -0.5983
vn 0.3238 -0.5330 -0.7817
vn 0.3238 0.5330 -0.7817
vn 0.0000 -1.0000 -0.0000
vn 0.0000 1.0000 -0.0000
vn -0.0000 -0.9310 -0.3651
vn -0.1397 -0.9310 -0.3373
vn -0.2582 -0.9310 -0.2582
vn -0.3373 -0.9310 -0.1397
vn -0.3651 -0.9310 -0.0000
vn -0.3373 -0.9310 0.1397
vn -0.2582 -0.9310 0.2582
vn -0.1397 -0.9310 0.3373
vn 0.0000 -0.9310 0.3651
vn 0.1397 -0.9310 0.3373
vn 0.2582 -0.9310 0.2582
vn 0.3373 -0.9310 0.1397
vn 0.3651 -0.9310 0.0000
vn 0.3373 -0.9310 -0.1397
vn 0.2582 -0.9310 -0.2582
vn 0.1397 -0.9310 -0.3373
vn 0.1439 0.9267 0.3473
vn -0.0000 0.9267 0.3759
vn -0.1439 0.9267 0.3473
vn -0.2658 0.9267 0.2658
vn -0.3473 0.9267 0.1439
vn -0.3759 0.9267 -0.0000
vn -0.3473 0.9267 -0.1439
vn -0.2658 0.9267 -0.2658
vn -0.1439 0.9267 -0.3473
vn 0.0000 0.9267 -0.3759
vn 0.1439 0.9267 -0.3473
vn 0.2658 0.9267 -0.2658
vn 0.3473 0.9267 -0.1439
vn 0.3759 0.9267 0.0000
vn 0.3473 0.9267 0.1439
vn 0.2658 0.9267 0.2658
vn 0.3708 0.2470 0.8953
vn 0.0000 0.2470 0.9690
vn 0.6852 0.2470 0.6852
vn 0.8953 0.2470 0.3708
vn 0.9690 0.2470 -0.0000
vn 0.8953 0.2470 -0.3708
vn 0.6852 0.2470 -0.6852
vn 0.3708 0.2470 -0.8953
vn -0.0000 0.2470 -0.9690
vn -0.3708 0.2470 -0.8953
vn -0.6852 0.2470 -0.6852
vn -0.8953 0.2470 -0.3708
vn -0.9690 0.2470 0.0000
vn -0.8953 0.2470 0.3708
vn -0.6852 0.2470 0.6852
vn -0.3708 0.2470 0.8953
# 98 vertex normals

vt 1.5293 0.0273 1.0000
vt 1.6540 0.0273 1.0000
vt 1.6540 0.6487 1.0000
vt 1.5293 0.6487 1.0000
vt 1.7768 0.0273 1.0000
vt 1.7768 0.6487 1.0000
vt 1.8956 0.0273 1.0000
vt 1.8956 0.6487 1.0000
vt 1.9914 0.0273 1.0000
vt 1.9914 0.6487 1.0000
vt 0.0194 0.0273 1.0000
vt 0.1462 0.0273 1.0000
vt 0.1462 0.6487 1.0000
vt 0.0194 0.6487 1.0000
vt 0.2691 0.0273 1.0000
vt 0.2691 0.6487 1.0000
vt 0.3936 0.0273 1.0000
vt 0.3936 0.6487 1.0000
vt 0.5192 0.0273 1.0000
vt 0.5192 0.6487 1.0000
vt 0.6453 0.0273 1.0000
vt 0.6453 0.6487 1.0000
vt 0.7717 0.0273 1.0000
vt 0.7717 0.6487 1.0000
vt 0.8982 0.0273 1.0000
vt 0.8982 0.6487 1.0000
vt 1.0248 0.0273 1.0000
vt 1.0248 0.6487 1.0000
vt 1.1514 0.0273 1.0000
vt 1.1514 0.6487 1.0000
vt 1.2779 0.0273 1.0000
vt 1.2779 0.6487 1.0000
vt 1.4040 0.0273 1.0000
vt 1.4040 0.6487 1.0000
vt 1.5293 0.6936 1.0000
vt 1.6540 0.6936 1.0000
vt 1.6540 0.9395 1.0000
vt 1.5293 0.9395 1.0000
vt 1.7768 0.6936 1.0000
vt 1.7768 0.9395 1.0000
vt 1.8956 0.6936 1.0000
vt 1.8956 0.9395 1.0000
vt 1.9914 0.6936 1.0000
vt 1.9914 0.9395 1.0000
vt 0.0194 0.6936 1.0000
vt 0.1462 0.6936 1.0000
vt 0.1462 0.9395 1.0000
vt 0.0194 0.9395 1.0000
vt 0.2691 0.6936 1.0000
vt 0.2691 0.9395 1.0000
vt 0.3936 0.6936 1.0000
vt 0.3936 0.9395 1.0000
vt 0.5192 0.6936 1.0000
vt 0.5192 0.9395 1.0000
vt 0.6453 0.6936 1.0000
vt 0.6453 0.9395 1.0000
vt 0.7717 0.6936 1.0000
vt 0.7717 0.9395 1.0000
vt 0.8982 0.6936 1.0000
vt 0.8982 0.9395 1.0000
vt 1.0248 0.6936 1.0000
vt 1.0248 0.9395 1.0000
vt 1.1514 0.6936 1.0000
vt 1.1514 0.9395 1.0000
vt 1.2779 0.6936 1.0000
vt 1.2779 0.9395 1.0000
vt 1.4040 0.6936 1.0000
vt 1.4040 0.9395 1.0000
vt 0.0648 0.0493 -0.2500
vt 0.0668 0.0463 -0.2500
vt 0.0675 0.0428 -0.2500
vt 0.0583 0.0520 -0.2500
vt 0.0668 0.0393 -0.2500
vt 0.0648 0.0363 -0.2500
vt 0.0583 0.0336 -0.2500
vt 0.0618 0.0343 -0.2500
vt 0.0548 0.0343 -0.2500
vt 0.0518 0.0363 -0.2500
vt 0.0491 0.0428 -0.2500
vt 0.0498 0.0393 -0.2500
vt 0.0498 0.0463 -0.2500
vt 0.0518 0.0493 -0.2500
vt 0.0548 0.0513 -0.2500
vt 0.0618 0.0513 -0.2500
vt 0.0554 0.0446 0.2500
vt 0.0551 0.0431 0.2500
vt 0.0554 0.0417 0.2500
vt 1.6540 0.9802 1.0000
vt 1.5293 0.9802 1.0000
vt 1.4040 0.9802 1.0000
vt 1.2779 0.9802 1.0000
vt 1.1514 0.9802 1.0000
vt 1.0248 0.9802 1.0000
vt 0.8982 0.9802 1.0000
vt 0.7717 0.9802 1.0000
vt 0.6453 0.9802 1.0000
vt 0.5192 0.9802 1.0000
vt 0.3936 0.9802 1.0000
vt 0.2691 0.9802 1.0000
vt 0.1462 0.9802 1.0000
vt 0.0194 0.9802 1.0000
vt 1.9914 0.9802 1.0000
vt 1.8956 0.9802 1.0000
vt 1.7768 0.9802 1.0000
vt 0.5336 1.6612 0.0000
vt 0.4120 1.6612 0.0000
vt 0.4120 1.0030 0.0000
vt 0.5336 1.0030 0.0000
vt 0.2905 1.6612 0.0000
vt 0.2905 1.0030 0.0000
vt 0.1690 1.6612 0.0000
vt 0.1690 1.0030 0.0000
vt 0.0225 1.6612 0.0000
vt 0.0225 1.0030 0.0000
vt 1.9840 1.6612 0.0000
vt 1.8707 1.6612 0.0000
vt 1.8707 1.0030 0.0000
vt 1.9840 1.0030 0.0000
vt 1.7492 1.6612 0.0000
vt 1.7492 1.0030 0.0000
vt 1.6276 1.6612 0.0000
vt 1.6276 1.0030 0.0000
vt 1.5061 1.6612 0.0000
vt 1.5061 1.0030 0.0000
vt 1.3845 1.6612 0.0000
vt 1.3845 1.0030 0.0000
vt 1.2629 1.6612 0.0000
vt 1.2629 1.0030 0.0000
vt 1.1414 1.6612 0.0000
vt 1.1414 1.0030 0.0000
vt 1.0198 1.6612 0.0000
vt 1.0198 1.0030 0.0000
vt 0.8983 1.6612 0.0000
vt 0.8983 1.0030 0.0000
vt 0.7767 1.6612 0.0000
vt 0.7767 1.0030 0.0000
vt 0.6551 1.6612 0.0000
vt 0.6551 1.0030 0.0000
vt 0.0604 0.0396 0.2500
vt 0.0604 0.0466 0.2500
vt 0.0589 0.0469 0.2500
vt 0.0589 0.0393 0.2500
vt 0.0575 0.0466 0.2500
vt 0.0575 0.0396 0.2500
vt 0.0562 0.0458 0.2500
vt 0.0562 0.0405 0.2500
vt 0.0616 0.0405 0.2500
vt 0.0616 0.0458 0.2500
vt 0.0624 0.0417 0.2500
vt 0.0624 0.0446 0.2500
vt 0.0627 0.0431 0.2500
# 151 texture coords

g clay_pot
s 4
f 1/1/1 2/2/2 3/3/2 4/4/1 
f 2/2/2 5/5/3 6/6/3 3/3/2 
f 5/5/3 7/7/4 8/8/4 6/6/3 
f 7/7/4 9/9/5 10/10/5 8/8/4 
f 9/11/5 11/12/6 12/13/6 10/14/5 
f 11/12/6 13/15/7 14/16/7 12/13/6 
f 13/15/7 15/17/8 16/18/8 14/16/7 
f 15/17/8 17/19/9 18/20/9 16/18/8 
f 17/19/9 19/21/10 20/22/10 18/20/9 
f 19/21/10 21/23/11 22/24/11 20/22/10 
f 21/23/11 23/25/12 24/26/12 22/24/11 
f 23/25/12 25/27/13 26/28/13 24/26/12 
f 25/27/13 27/29/14 28/30/14 26/28/13 
f 27/29/14 29/31/15 30/32/15 28/30/14 
f 29/31/15 31/33/16 32/34/16 30/32/15 
f 31/33/16 1/1/1 4/4/1 32/34/16 
s 1
f 33/35/17 34/36/18 35/37/19 36/38/20 
f 34/36/18 37/39/21 38/40/22 35/37/19 
f 37/39/21 39/41/23 40/42/24 38/40/22 
f 39/41/23 41/43/25 42/44/26 40/42/24 
f 41/45/25 43/46/27 44/47/28 42/48/26 
f 43/46/27 45/49/29 46/50/30 44/47/28 
f 45/49/29 47/51/31 48/52/32 46/50/30 
f 47/51/31 49/53/33 50/54/34 48/52/32 
f 49/53/33 51/55/35 52/56/36 50/54/34 
f 51/55/35 53/57/37 54/58/38 52/56/36 
f 53/57/37 55/59/39 56/60/40 54/58/38 
f 55/59/39 57/61/41 58/62/42 56/60/40 
f 57/61/41 59/63/43 60/64/44 58/62/42 
f 59/63/43 61/65/45 62/66/46 60/64/44 
f 61/65/45 63/67/47 64/68/48 62/66/46 
f 63/67/47 33/35/17 36/38/20 64/68/48 
s 2
f 29/69/49 27/70/49 25/71/49 1/72/49 
f 25/71/49 23/73/49 21/74/49 17/75/49 
f 21/74/49 19/76/49 17/75/49 
f 17/75/49 15/77/49 13/78/49 9/79/49 
f 13/78/49 11/80/49 9/79/49 
f 9/79/49 7/81/49 5/82/49 1/72/49 
f 5/82/49 2/83/49 1/72/49 
f 17/75/49 9/79/49 1/72/49 25/71/49 
f 31/84/49 29/69/49 1/72/49 
f 65/85/50 66/86/50 67/87/50 
s 1
f 4/4/51 3/3/52 34/36/18 33/35/17 
f 3/3/52 6/6/53 37/39/21 34/36/18 
f 6/6/53 8/8/54 39/41/23 37/39/21 
f 8/8/54 10/10/55 41/43/25 39/41/23 
f 10/14/55 12/13/56 43/46/27 41/45/25 
f 12/13/56 14/16/57 45/49/29 43/46/27 
f 14/16/57 16/18/58 47/51/31 45/49/29 
f 16/18/58 18/20/59 49/53/33 47/51/31 
f 18/20/59 20/22/60 51/55/35 49/53/33 
f 20/22/60 22/24/61 53/57/37 51/55/35 
f 22/24/61 24/26/62 55/59/39 53/57/37 
f 24/26/62 26/28/63 57/61/41 55/59/39 
f 26/28/63 28/30/64 59/63/43 57/61/41 
f 28/30/64 30/32/65 61/65/45 59/63/43 
f 30/32/65 32/34/66 63/67/47 61/65/45 
f 32/34/66 4/4/51 33/35/17 63/67/47 
f 68/88/67 69/89/68 36/38/20 35/37/19 
f 69/89/68 70/90/69 64/68/48 36/38/20 
f 70/90/69 71/91/70 62/66/46 64/68/48 
f 71/91/70 72/92/71 60/64/44 62/66/46 
f 72/92/71 73/93/72 58/62/42 60/64/44 
f 73/93/72 74/94/73 56/60/40 58/62/42 
f 74/94/73 75/95/74 54/58/38 56/60/40 
f 75/95/74 76/96/75 52/56/36 54/58/38 
f 76/96/75 77/97/76 50/54/34 52/56/36 
f 77/97/76 78/98/77 48/52/32 50/54/34 
f 78/98/77 79/99/78 46/50/30 48/52/32 
f 79/99/78 80/100/79 44/47/28 46/50/30 
f 80/100/79 81/101/80 42/48/26 44/47/28 
f 81/102/80 82/103/81 40/42/24 42/44/26 
f 82/103/81 83/104/82 38/40/22 40/42/24 
f 83/104/82 68/88/67 35/37/19 38/40/22 
f 69/105/68 68/106/67 84/107/83 85/108/84 
f 68/106/67 83/109/82 86/110/85 84/107/83 
f 83/109/82 82/111/81 65/112/86 86/110/85 
f 82/111/81 81/113/80 66/114/87 65/112/86 
f 81/115/80 80/116/79 67/117/88 66/118/87 
f 80/116/79 79/119/78 87/120/89 67/117/88 
f 79/119/78 78/121/77 88/122/90 87/120/89 
f 78/121/77 77/123/76 89/124/91 88/122/90 
f 77/123/76 76/125/75 90/126/92 89/124/91 
f 76/125/75 75/127/74 91/128/93 90/126/92 
f 75/127/74 74/129/73 92/130/94 91/128/93 
f 74/129/73 73/131/72 93/132/95 92/130/94 
f 73/131/72 72/133/71 94/134/96 93/132/95 
f 72/133/71 71/135/70 95/136/97 94/134/96 
f 71/135/70 70/137/69 96/138/98 95/136/97 
f 70/137/69 69/105/68 85/108/84 96/138/98 
s 2
f 90/139/50 96/140/50 85/141/50 89/142/50 
f 84/143/50 88/144/50 89/142/50 85/141/50 
f 88/144/50 84/143/50 86/145/50 87/146/50 
f 87/146/50 86/145/50 65/85/50 67/87/50 
f 91/147/50 95/148/50 96/140/50 90/139/50 
f 92/149/50 94/150/50 95/148/50 91/147/50 
f 92/149/50 93/151/50 94/150/50 
# 91 polygons - 6 triangles

