# 3ds Max Wavefront OBJ Exporter v0.97b - (c)2007 guruware
# File Created: 08.02.2015 07:03:19

#
# object sand_wall
#

v  0.7143 2.5000 0.8342
v  0.7143 2.5000 -0.8342
v  -0.7143 2.5000 -0.8342
v  -0.7143 2.5000 0.8342
v  -1.4286 0.8500 1.2797
v  1.4286 0.8500 1.2797
v  4.9302 2.5000 -0.8342
v  4.9302 2.5000 0.8342
v  5.2231 0.8500 1.2797
v  5.2231 0.8500 -1.2797
v  1.4286 0.8500 -1.2797
v  -1.4286 0.8500 -1.2797
v  -5.2231 0.8500 1.2797
v  -4.9302 2.5000 0.8342
v  -4.9302 2.5000 -0.8342
v  -5.2231 0.8500 -1.2797
v  1.4286 -0.0000 1.6794
v  -1.4286 -0.0000 1.6794
v  5.3703 -0.0000 1.6794
v  5.3703 0.0000 -1.6794
v  -1.4286 0.0000 -1.6794
v  1.4286 0.0000 -1.6794
v  -5.3703 0.0000 -1.6794
v  -5.3703 -0.0000 1.6794
v  4.7541 3.5000 0.6942
v  4.7541 3.5000 -0.6942
v  3.7362 3.5000 -0.6942
v  3.7362 3.5000 0.6942
v  3.5714 2.5000 0.8342
v  3.5714 2.5000 -0.8342
v  2.1429 2.5000 -0.8342
v  2.1429 2.5000 0.8342
v  1.9781 3.5000 0.6942
v  1.9781 3.5000 -0.6942
v  0.8791 3.5000 -0.6942
v  0.8791 3.5000 0.6942
v  -4.7541 3.5000 -0.6942
v  -4.7541 3.5000 0.6942
v  -3.7362 3.5000 0.6942
v  -3.7362 3.5000 -0.6942
v  -3.5714 2.5000 -0.8342
v  -3.5714 2.5000 0.8342
v  -2.1429 2.5000 0.8342
v  -2.1429 2.5000 -0.8342
v  -1.9781 3.5000 -0.6942
v  -1.9781 3.5000 0.6942
v  -0.8791 3.5000 0.6942
v  -0.8791 3.5000 -0.6942
# 48 vertices

vn -0.2602 0.5184 0.8146
vn -0.2602 0.5184 -0.8146
vn 0.2602 0.5184 -0.8146
vn 0.2602 0.5184 0.8146
vn 0.0000 0.3444 0.9388
vn -0.0000 0.3444 0.9388
vn 0.6980 0.2641 -0.6656
vn 0.6980 0.2641 0.6656
vn 0.6970 0.3566 0.6221
vn 0.6970 0.3566 -0.6221
vn 0.0000 0.3444 -0.9388
vn -0.0000 0.3444 -0.9388
vn -0.6970 0.3566 0.6221
vn -0.6980 0.2641 0.6656
vn -0.6980 0.2641 -0.6656
vn -0.6970 0.3566 -0.6221
vn 0.0000 0.4255 0.9049
vn 0.5963 0.4239 0.6817
vn 0.5963 0.4239 -0.6817
vn 0.0000 0.4255 -0.9049
vn -0.5963 0.4239 -0.6817
vn -0.5963 0.4239 0.6817
vn 0.5252 0.6584 0.5391
vn 0.5252 0.6584 -0.5391
vn -0.5291 0.6557 -0.5386
vn -0.5291 0.6557 0.5386
vn 0.5291 0.6557 0.5386
vn 0.5291 0.6557 -0.5386
vn -0.5252 0.6584 -0.5391
vn -0.5252 0.6584 0.5391
# 30 vertex normals

vt 0.5554 0.3713 0.0000
vt 0.5554 0.4877 0.0000
vt 0.4463 0.4877 0.0000
vt 0.4463 0.3713 0.0000
vt 0.4138 0.2793 0.0000
vt 0.3697 0.1427 0.0000
vt 0.5775 0.1427 0.0000
vt 0.5422 0.2793 0.0000
vt 0.1204 0.2793 0.0000
vt 0.0158 0.2793 0.0000
vt 0.0158 0.1427 0.0000
vt 0.1204 0.1427 0.0000
vt 0.5775 0.0563 0.0000
vt 0.3697 0.0563 0.0000
vt 0.0158 0.0563 0.0000
vt 0.1204 0.0563 0.0000
vt 0.9728 0.3713 0.0000
vt 0.9728 0.4877 0.0000
vt 0.8675 0.4877 0.0000
vt 0.8675 0.3713 0.0000
vt 0.8357 0.3713 0.0000
vt 0.8357 0.4877 0.0000
vt 0.7302 0.4877 0.0000
vt 0.7302 0.3713 0.0000
vt 0.6962 0.3713 0.0000
vt 0.6962 0.4877 0.0000
vt 0.5905 0.4877 0.0000
vt 0.5905 0.3713 0.0000
vt 0.0270 0.4877 0.0000
vt 0.0270 0.3713 0.0000
vt 0.1290 0.3713 0.0000
vt 0.1290 0.4877 0.0000
vt 0.1586 0.4877 0.0000
vt 0.1586 0.3713 0.0000
vt 0.2622 0.3713 0.0000
vt 0.2622 0.4877 0.0000
vt 0.2973 0.4877 0.0000
vt 0.2973 0.3713 0.0000
vt 0.4123 0.3713 0.0000
vt 0.4123 0.4877 0.0000
vt 0.2074 0.2793 0.0000
vt 0.3322 0.2793 0.0000
vt 0.8138 0.1427 0.0000
vt 0.8138 0.2793 0.0000
vt 0.7267 0.2793 0.0000
vt 0.6227 0.2793 0.0000
vt 0.8138 0.0563 0.0000
vt 0.1204 0.3329 0.0000
vt 0.0158 0.3329 0.0000
vt 0.2074 0.3329 0.0000
vt 0.8138 0.3329 0.0000
vt 0.7267 0.3329 0.0000
vt 0.6227 0.3329 0.0000
vt 0.5422 0.3329 0.0000
vt 0.4138 0.3329 0.0000
vt 0.3322 0.3329 0.0000
# 56 texture coords

g sand_wall
s 1
f 1/1/1 2/2/2 3/3/3 4/4/4 
f 4/5/4 5/6/5 6/7/6 1/8/1 
f 7/9/7 8/10/8 9/11/9 10/12/10 
f 2/5/2 11/6/11 12/7/12 3/8/3 
f 13/12/13 14/9/14 15/10/15 16/11/16 
f 17/13/17 6/7/6 5/6/5 18/14/17 
f 19/15/18 20/16/19 10/12/10 9/11/9 
f 21/13/20 12/7/12 11/6/11 22/14/20 
f 23/15/21 24/16/22 13/12/13 16/11/16 
f 25/17/23 26/18/24 27/19/25 28/20/26 
f 29/21/1 30/22/2 31/23/3 32/24/4 
f 33/25/27 34/26/28 35/27/25 36/28/26 
f 37/29/29 38/30/30 39/31/27 40/32/28 
f 41/33/3 42/34/4 43/35/1 44/36/2 
f 45/37/25 46/38/26 47/39/27 48/40/28 
f 42/41/4 14/9/14 13/12/13 
f 42/41/4 13/12/13 5/6/5 43/42/1 
f 4/5/4 43/42/1 5/6/5 
f 9/43/9 8/44/8 29/45/1 
f 9/43/9 29/45/1 32/46/4 6/7/6 
f 6/7/6 32/46/4 1/8/1 
f 30/41/2 7/9/7 10/12/10 
f 30/41/2 10/12/10 11/6/11 31/42/3 
f 2/5/2 31/42/3 11/6/11 
f 16/43/16 15/44/15 41/45/3 
f 16/43/16 41/45/3 44/46/2 12/7/12 
f 12/7/12 44/46/2 3/8/3 
f 19/47/18 9/43/9 6/7/6 17/13/17 
f 13/12/13 24/16/22 18/14/17 5/6/5 
f 23/47/21 16/43/16 12/7/12 21/13/20 
f 10/12/10 20/16/19 22/14/20 11/6/11 
f 8/10/8 7/9/7 26/48/24 25/49/23 
f 7/9/7 30/41/2 27/50/25 26/48/24 
f 30/22/2 29/21/1 28/20/26 27/19/25 
f 29/45/1 8/44/8 25/51/23 28/52/26 
f 1/8/1 32/46/4 33/53/27 36/54/26 
f 32/24/4 31/23/3 34/26/28 33/25/27 
f 31/42/3 2/5/2 35/55/25 34/56/28 
f 2/2/2 1/1/1 36/28/26 35/27/25 
f 14/9/14 42/41/4 39/50/27 38/48/30 
f 42/34/4 41/33/3 40/32/28 39/31/27 
f 41/45/3 15/44/15 37/51/29 40/52/28 
f 15/10/15 14/9/14 38/48/30 37/49/29 
f 43/42/1 4/5/4 47/55/27 46/56/26 
f 4/4/4 3/3/3 48/40/28 47/39/27 
f 3/8/3 44/46/2 45/53/25 48/54/28 
f 44/36/2 43/35/1 46/38/26 45/37/25 
# 39 polygons - 8 triangles

