# 3ds Max Wavefront OBJ Exporter v0.97b - (c)2007 guruware
# File Created: 09.02.2015 18:53:38

#
# object seashell
#

v  -1.3292 0.0000 1.8798
v  -0.0000 0.6415 2.6727
v  -0.0000 1.5285 -0.1456
v  -3.4295 -0.0000 0.0125
v  -2.1813 0.0000 -2.0948
v  -1.8061 -0.0000 2.6727
v  -0.0000 0.0000 -3.0185
v  1.3292 0.0000 1.8798
v  3.4295 -0.0000 0.0125
v  2.1813 0.0000 -2.0948
v  1.8061 -0.0000 2.6727
# 11 vertices

vn -0.8702 -0.3893 0.3020
vn -0.0000 0.7099 0.7043
vn -0.0000 1.0000 -0.0099
vn -0.9796 -0.1564 0.1265
vn -0.6569 -0.2041 -0.7258
vn -0.9286 -0.1243 0.3496
vn 0.0000 -0.1996 -0.9799
vn 0.8702 -0.3893 0.3020
vn 0.9796 -0.1564 0.1265
vn 0.6569 -0.2041 -0.7258
vn 0.9286 -0.1243 0.3496
# 11 vertex normals

vt 0.2376 0.5706 0.0000
vt 0.1991 0.5423 0.0000
vt 0.1991 0.6271 0.0000
vt 0.2985 0.6271 0.0000
vt 0.2623 0.6938 0.0000
vt 0.2514 0.5423 0.0000
vt 0.1991 0.7258 0.0000
vt 0.1606 0.5706 0.0000
vt 0.0998 0.6271 0.0000
vt 0.1359 0.6938 0.0000
vt 0.1468 0.5423 0.0000
# 11 texture coords

g seashell
s 1
f 1/1/1 2/2/2 3/3/3 
f 4/4/4 3/3/3 5/5/5 
f 2/2/2 1/1/1 6/6/6 
f 4/4/4 1/1/1 3/3/3 
f 3/3/3 7/7/7 5/5/5 
f 8/8/8 3/3/3 2/2/2 
f 9/9/9 10/10/10 3/3/3 
f 2/2/2 11/11/11 8/8/8 
f 9/9/9 3/3/3 8/8/8 
f 3/3/3 10/10/10 7/7/7 
f 11/11/11 2/2/2 6/6/6 
f 5/5/5 7/7/7 10/10/10 1/1/1 
f 10/10/10 9/9/9 8/8/8 6/6/6 
f 8/8/8 11/11/11 6/6/6 
f 10/10/10 6/6/6 1/1/1 
f 4/4/4 5/5/5 1/1/1 
# 2 polygons - 14 triangles

